{
.appVersion = "1150";
DisplayStrings = (
"oondula/Placeholder oo/Placeholder on/Placeholder nl/Placeholder l\012oooo/Placeholder/Placeholder/Placeholder/Placeholder ooon|/Placeholder |nI/Placeholder I\012nnnn/Placeholder/Placeholder/Placeholder/Placeholder nnnn\012aaaa/Placeholder/Placeholder/Placeholder/Placeholder aaaa \012llllll/Placeholder/Placeholder/Placeholder/Placeholder llllll"
);
classes = (
{
automatic = 1;
code = "A Aogonek AE B C D Eth E Eogonek F G H Hbar I Iogonek J K L Lcaron Ldot Lslash M N Eng O Oslash Ohorn Oogonek OE P Thorn Q R S Germandbls Schwa T Tbar U Uogonek Uhorn V W X Y Z Aacute Abreve Acircumflex Adieresis Agrave Amacron Aring Atilde Cacute Ccaron Ccedilla Ccircumflex Cdotaccent Dcaron Dcroat Eacute Ebreve Ecaron Ecircumflex Edieresis Edotaccent Egrave Emacron Gbreve Gcircumflex Gcommaaccent Gdotaccent Hcircumflex IJ Iacute Ibreve Icircumflex Idieresis Idotaccent Igrave Imacron Itilde Jcircumflex Kcommaaccent Lacute Lcommaaccent Nacute Ncaron Ncommaaccent Ntilde Oacute Obreve Ocircumflex Odieresis Ograve Ohungarumlaut Omacron Otilde Racute Rcaron Rcommaaccent Sacute Scaron Scedilla Scircumflex Scommaaccent Tcaron Tcommaaccent Uacute Ubreve Ucircumflex Udieresis Ugrave Uhungarumlaut Umacron Uring Utilde Wcircumflex Yacute Ycircumflex Ydieresis Zacute Zcaron Zdotaccent";
name = Uppercase;
}
);
copyright = "Copyright (c) 2010, Sebastian Kosch (sebastian@aldusleaf.org),\012with Reserved Font Name \"Crimson Text\".\012This Font Software is licensed under the SIL Open Font License, Version 1.1.\012This license is available with a FAQ at: http://scripts.sil.org/OFL";
customParameters = (
{
name = glyphOrder;
value = (
A,
Aogonek,
AE,
B,
C,
D,
Eth,
E,
Eogonek,
F,
G,
H,
Hbar,
I,
Iogonek,
I_J.loclNLD,
J,
K,
L,
Lcaron,
Ldot,
Lslash,
M,
N,
Eng,
O,
Oslash,
Ohorn,
Oogonek,
OE,
P,
Thorn,
Q,
R,
S,
Germandbls,
Schwa,
T,
Tbar,
U,
Uogonek,
Uhorn,
V,
W,
X,
Y,
Z,
a,
aogonek,
ae,
b,
c,
d,
dcaron,
dcroat,
eth,
e,
eogonek,
f,
g,
h,
hbar,
i,
idotless,

glyphs = (
{
color = 4;
glyphname = A;
lastChange = "2018-06-09 19:35:47 +0000";
layers = (
{
anchors = (
{
name = bottom;
position = "{229, 0}";
},
{
name = ogonek;
position = "{498, 0}";
},
{
name = top;
position = "{364, 587}";
}
);
background = {
anchors = (
{
name = bottom;
position = "{229, 0}";
},
{
name = ogonek;
position = "{498, 0}";
},
{
name = top;
position = "{364, 587}";
}
);
paths = (
{
closed = 1;
nodes = (
"126 0 LINE",
"136 38 LINE",
"78 52 LINE",
"162 201 LINE",
"180 231 LINE",
"345 516 LINE",
"319 503 LINE",
"370 231 LINE",
"374 200 LINE",
"402 52 LINE",
"338 38 LINE",
"332 0 LINE",
"535 0 LINE",
"545 38 LINE",
"498 52 LINE",
"397 605 LINE",
"332 570 LINE",
"17 52 LINE",
"-36 38 LINE",
"-42 0 LINE"
);
},
{
closed = 1;
nodes = (
"187 186 OFFCURVE",
"230 187 OFFCURVE",
"270 187 CURVE SMOOTH",
"311 187 OFFCURVE",
"356 186 OFFCURVE",
"402 185 CURVE",
"413 238 LINE",
"389 237 OFFCURVE",
"344 235 OFFCURVE",
"281 235 CURVE SMOOTH",
"218 235 OFFCURVE",
"173 237 OFFCURVE",
"148 238 CURVE",
"137 185 LINE"
);
}
);
};
layerId = "720C727D-0ED9-429E-914E-55EB9E513E33";
paths = (
{
closed = 1;
nodes = (
"129 0 LINE",
"139 38 LINE",
"81 52 LINE",
"166 201 LINE",
"184 231 LINE",
"348 516 LINE",
"322 503 LINE",
"373 231 LINE",
"378 200 LINE",
"404 52 LINE",
"340 38 LINE",
"334 0 LINE",
"535 0 LINE",
"545 38 LINE",
"498 52 LINE",
"397 605 LINE",
"332 570 LINE",
"17 52 LINE",
"-36 38 LINE",
"-42 0 LINE"
);
},
{
closed = 1;
nodes = (
"187 186 OFFCURVE",
"230 187 OFFCURVE",
"270 187 CURVE SMOOTH",
"311 187 OFFCURVE",
"356 186 OFFCURVE",
"402 185 CURVE",
"413 238 LINE",
"389 237 OFFCURVE",
"344 235 OFFCURVE",
"281 235 CURVE SMOOTH",
"218 235 OFFCURVE",
"173 237 OFFCURVE",
"148 238 CURVE",
"137 185 LINE"
);
}
);
width = 583;
},
{
anchors = (
{
name = bottom;
position = "{222, 0}";
},
{
name = ogonek;
position = "{521, 0}";
},
{
name = top;
position = "{370, 587}";
}
);
background = {
paths = (
{
closed = 1;
nodes = (
"153 0 LINE",
"166 50 LINE",
"106 67 LINE",
"181 202 LINE",
"198 232 LINE",
"328 455 LINE",
"299 464 LINE",
"349 229 LINE",
"353 194 LINE",
"379 67 LINE",
"311 50 LINE",
"304 0 LINE",
"575 0 LINE",
"588 50 LINE",
"540 67 LINE",
"423 605 LINE",
"329 557 LINE",
"22 67 LINE",
"-34 50 LINE",
"-41 0 LINE"
);
},
{
closed = 1;
nodes = (
"179 170 OFFCURVE",
"210 172 OFFCURVE",
"262 172 CURVE SMOOTH",
"313 172 OFFCURVE",
"346 170 OFFCURVE",
"369 170 CURVE",
"383 238 LINE",
"359 237 OFFCURVE",
"326 234 OFFCURVE",
"275 234 CURVE SMOOTH",
"223 234 OFFCURVE",
"194 237 OFFCURVE",
"169 238 CURVE",
"155 169 LINE"
);
}
);
};
layerId = "DEDDD934-E4FE-4A27-B966-8C21F8A9BC34";
paths = (
{
closed = 1;
nodes = (
"149 0 LINE",
"163 50 LINE",
"103 67 LINE",
"181 202 LINE",
"197 232 LINE",
"325 455 LINE",
"298 464 LINE",
"349 229 LINE",
"354 194 LINE",
"379 67 LINE",
"311 50 LINE",
"303 0 LINE",
"567 0 LINE",
"581 50 LINE",
"533 67 LINE",
"416 605 LINE",
"322 557 LINE",
"15 67 LINE",
"-41 50 LINE",
"-49 0 LINE"
);
},
{
closed = 1;
nodes = (
"172 170 OFFCURVE",
"203 172 OFFCURVE",
"255 172 CURVE SMOOTH",
"306 172 OFFCURVE",
"339 170 OFFCURVE",
"362 170 CURVE",
"376 238 LINE",
"352 237 OFFCURVE",
"319 234 OFFCURVE",
"268 234 CURVE SMOOTH",
"216 234 OFFCURVE",
"187 237 OFFCURVE",
"162 238 CURVE",
"148 169 LINE"
);
}
);
width = 609;
}
);
note = A;
unicode = 0041;
},
{
color = 9;
glyphname = Aogonek;
lastChange = "2018-06-05 14:05:21 +0000";
layers = (
{
anchors = (
{
name = bottom;
position = "{275, 0}";
},
{
name = top;
position = "{286, 587}";
}
);
background = {
anchors = (
{
name = bottom;
position = "{275, 0}";
},
{
name = top;
position = "{286, 587}";
}
);
paths = (
{
closed = 1;
nodes = (
"534 -223 OFFCURVE",
"570 -204 OFFCURVE",
"596 -173 CURVE",
"574 -146 LINE",
"553 -167 OFFCURVE",
"531 -181 OFFCURVE",
"505 -181 CURVE SMOOTH",
"470 -181 OFFCURVE",
"447 -158 OFFCURVE",
"447 -122 CURVE SMOOTH",
"447 -69 OFFCURVE",
"501 -21 OFFCURVE",
"582 0 CURVE",
"581 0 LINE",
"583 38 LINE",
"533 52 LINE",
"315 605 LINE",
"257 570 LINE",
"52 52 LINE",
"2 38 LINE",
"4 0 LINE",
"172 0 LINE",
"174 38 LINE",
"113 52 LINE",
"166 201 LINE",
"177 231 LINE",
"284 516 LINE",
"258 503 LINE",
"367 231 LINE",
"378 200 LINE",
"437 52 LINE",
"376 38 LINE",
"378 0 LINE",
"540 0 LINE",
"533 15 LINE",
"436 -18 OFFCURVE",
"377 -72 OFFCURVE",
"377 -132 CURVE SMOOTH",
"377 -183 OFFCURVE",
"421 -223 OFFCURVE",
"491 -223 CURVE SMOOTH"
);
},
{
closed = 1;
nodes = (
"194 186 OFFCURVE",
"237 187 OFFCURVE",
"277 187 CURVE SMOOTH",
"318 187 OFFCURVE",
"363 186 OFFCURVE",
"409 185 CURVE",
"409 238 LINE",
"385 237 OFFCURVE",
"340 235 OFFCURVE",
"277 235 CURVE SMOOTH",
"214 235 OFFCURVE",
"169 237 OFFCURVE",
"144 238 CURVE",
"144 185 LINE"
);
}
);
};
layerId = "720C727D-0ED9-429E-914E-55EB9E513E33";
paths = (
{
closed = 1;
nodes = (
"534 -223 OFFCURVE",
"570 -204 OFFCURVE",
"596 -173 CURVE",
"574 -146 LINE",
"553 -167 OFFCURVE",
"531 -181 OFFCURVE",
"505 -181 CURVE SMOOTH",
"470 -181 OFFCURVE",
"447 -158 OFFCURVE",
"447 -122 CURVE SMOOTH",
"447 -69 OFFCURVE",
"501 -21 OFFCURVE",
"582 0 CURVE",
"581 0 LINE",
"583 38 LINE",
"533 52 LINE",
"315 605 LINE",
"257 570 LINE",
"52 52 LINE",
"2 38 LINE",
"4 0 LINE",
"172 0 LINE",
"174 38 LINE",
"113 52 LINE",
"166 201 LINE",
"177 231 LINE",
"284 516 LINE",
"258 503 LINE",
"367 231 LINE",
"378 200 LINE",
"437 52 LINE",
"376 38 LINE",
"378 0 LINE",
"540 0 LINE",
"533 15 LINE",
"436 -18 OFFCURVE",
"377 -72 OFFCURVE",
"377 -132 CURVE SMOOTH",
"377 -183 OFFCURVE",
"421 -223 OFFCURVE",
"491 -223 CURVE SMOOTH"
);
},
{
closed = 1;
nodes = (
"194 186 OFFCURVE",
"237 187 OFFCURVE",
"277 187 CURVE SMOOTH",
"318 187 OFFCURVE",
"363 186 OFFCURVE",
"409 185 CURVE",
"409 238 LINE",
"385 237 OFFCURVE",
"340 235 OFFCURVE",
"277 235 CURVE SMOOTH",
"214 235 OFFCURVE",
"169 237 OFFCURVE",
"144 238 CURVE",
"144 185 LINE"
);
}
);
width = 583;
},
{
anchors = (
{
name = bottom;
position = "{268, 0}";
},
{
name = top;
position = "{292, 587}";
}
);
background = {
anchors = (
{
name = bottom;
position = "{268, 0}";
},
{
name = top;
position = "{292, 587}";
}
);
paths = (
{
closed = 1;
nodes = (
"558 -223 OFFCURVE",
"599 -205 OFFCURVE",
"627 -173 CURVE",
"599 -134 LINE",
"575 -157 OFFCURVE",
"553 -168 OFFCURVE",
"531 -168 CURVE SMOOTH",
"499 -168 OFFCURVE",
"479 -146 OFFCURVE",
"479 -113 CURVE SMOOTH",
"479 -63 OFFCURVE",
"533 -18 OFFCURVE",
"616 0 CURVE",
"614 0 LINE",
"617 50 LINE",
"565 67 LINE",
"334 605 LINE",
"250 557 LINE",
"47 67 LINE",
"-5 50 LINE",
"-2 0 LINE",
"190 0 LINE",
"193 50 LINE",
"131 67 LINE",
"177 202 LINE",
"188 232 LINE",
"274 463 LINE",
"240 462 LINE",
"340 229 LINE",
"351 194 LINE",
"404 67 LINE",
"342 50 LINE",
"345 0 LINE",
"541 0 LINE",
"531 11 LINE",
"448 -9 OFFCURVE",
"382 -65 OFFCURVE",
"382 -122 CURVE SMOOTH",
"382 -179 OFFCURVE",
"438 -223 OFFCURVE",
"512 -223 CURVE SMOOTH"
);
},
{
closed = 1;
nodes = (
"182 170 OFFCURVE",
"213 172 OFFCURVE",
"265 172 CURVE SMOOTH",
"316 172 OFFCURVE",
"349 170 OFFCURVE",
"372 170 CURVE",
"372 238 LINE",
"348 237 OFFCURVE",
"316 234 OFFCURVE",
"265 234 CURVE SMOOTH",
"213 234 OFFCURVE",
"183 237 OFFCURVE",
"158 238 CURVE",
"158 169 LINE"
);
}
);
};
layerId = "DEDDD934-E4FE-4A27-B966-8C21F8A9BC34";
paths = (
{
closed = 1;
nodes = (
"558 -223 OFFCURVE",
"599 -205 OFFCURVE",
"627 -173 CURVE",
"599 -134 LINE",
"575 -157 OFFCURVE",
"553 -168 OFFCURVE",
"531 -168 CURVE SMOOTH",
"499 -168 OFFCURVE",
"479 -146 OFFCURVE",
"479 -113 CURVE SMOOTH",
"479 -63 OFFCURVE",
"533 -18 OFFCURVE",
"616 0 CURVE",
"614 0 LINE",
"617 50 LINE",
"565 67 LINE",
"334 605 LINE",
"250 557 LINE",
"47 67 LINE",
"-5 50 LINE",
"-2 0 LINE",
"190 0 LINE",
"193 50 LINE",
"131 67 LINE",
"177 202 LINE",
"188 232 LINE",
"274 463 LINE",
"240 462 LINE",
"340 229 LINE",
"351 194 LINE",
"404 67 LINE",
"342 50 LINE",
"345 0 LINE",
"541 0 LINE",
"531 11 LINE",
"448 -9 OFFCURVE",
"382 -65 OFFCURVE",
"382 -122 CURVE SMOOTH",
"382 -179 OFFCURVE",
"438 -223 OFFCURVE",
"512 -223 CURVE SMOOTH"
);
},
{
closed = 1;
nodes = (
"182 170 OFFCURVE",
"213 172 OFFCURVE",
"265 172 CURVE SMOOTH",
"316 172 OFFCURVE",
"349 170 OFFCURVE",
"372 170 CURVE",
"372 238 LINE",
"348 237 OFFCURVE",
"316 234 OFFCURVE",
"265 234 CURVE SMOOTH",
"213 234 OFFCURVE",
"183 237 OFFCURVE",
"158 238 CURVE",
"158 169 LINE"
);
}
);
width = 609;
}
);
note = Aogonek;
unicode = 0104;
},
{
color = 9;
glyphname = AE;
lastChange = "2018-06-05 14:05:21 +0000";
layers = (
{
anchors = (
{
name = bottom;
position = "{415, 0}";
},
{
name = top;
position = "{415, 587}";
}
);
background = {
anchors = (
{
name = bottom;
position = "{415, 0}";
},
{
name = top;
position = "{415, 587}";
}
);
paths = (
{
closed = 1;
nodes = (
"668 205 LINE",
"668 399 LINE",
"627 399 LINE",
"614 330 LINE",
"606 328 OFFCURVE",
"590 327 OFFCURVE",
"568 327 CURVE SMOOTH",
"501 327 LINE SMOOTH",
"483 327 OFFCURVE",
"464 328 OFFCURVE",
"441 329 CURVE",
"441 275 LINE",
"464 276 OFFCURVE",
"483 277 OFFCURVE",
"501 277 CURVE SMOOTH",
"568 277 LINE SMOOTH",
"590 277 OFFCURVE",
"606 276 OFFCURVE",
"614 274 CURVE",
"627 205 LINE"
);
},
{
closed = 1;
nodes = (
"197 182 OFFCURVE",
"234 182 OFFCURVE",
"287 182 CURVE SMOOTH",
"357 182 OFFCURVE",
"380 182 OFFCURVE",
"398 180 CURVE",
"398 234 LINE",
"377 232 OFFCURVE",
"340 231 OFFCURVE",
"287 231 CURVE SMOOTH",
"235 231 OFFCURVE",
"200 232 OFFCURVE",
"179 234 CURVE",
"167 180 LINE"
);
},
{
closed = 1;
nodes = (
"681 52 LINE",
"669 49 OFFCURVE",
"652 48 OFFCURVE",
"609 48 CURVE SMOOTH",
"524 48 LINE SMOOTH",
"487 48 OFFCURVE",
"477 48 OFFCURVE",
"460 50 CURVE",
"459 63 OFFCURVE",
"458 114 OFFCURVE",
"458 153 CURVE SMOOTH",
"458 423 LINE SMOOTH",
"458 471 OFFCURVE",
"459 530 OFFCURVE",
"460 540 CURVE",
"482 541 OFFCURVE",
"501 542 OFFCURVE",
"521 542 CURVE SMOOTH",
"625 542 LINE SMOOTH",
"640 542 OFFCURVE",
"653 541 OFFCURVE",
"662 539 CURVE",
"696 452 LINE",
"741 459 LINE",
"721 591 LINE",
"688 588 OFFCURVE",
"657 587 OFFCURVE",
"621 587 CURVE SMOOTH",
"291 587 LINE",
"289 549 LINE",
"379 535 LINE",
"368 570 LINE",
"37 52 LINE",
"-14 38 LINE",
"-12 0 LINE",
"163 0 LINE",
"165 38 LINE",
"104 52 LINE",
"401 539 LINE",
"372 520 LINE",
"372 158 LINE SMOOTH",
"372 96 OFFCURVE",
"371 69 OFFCURVE",
"370 52 CURVE",
"309 38 LINE",
"311 0 LINE",
"643 0 LINE SMOOTH",
"669 0 OFFCURVE",
"693 -1 OFFCURVE",
"738 -5 CURVE",
"777 141 LINE",
"732 150 LINE"
);
}
);
};
layerId = "720C727D-0ED9-429E-914E-55EB9E513E33";
paths = (
{
closed = 1;
nodes = (
"668 205 LINE",
"668 399 LINE",
"627 399 LINE",
"614 330 LINE",
"606 328 OFFCURVE",
"590 327 OFFCURVE",
"568 327 CURVE SMOOTH",
"501 327 LINE SMOOTH",
"483 327 OFFCURVE",
"464 328 OFFCURVE",
"441 329 CURVE",
"441 275 LINE",
"464 276 OFFCURVE",
"483 277 OFFCURVE",
"501 277 CURVE SMOOTH",
"568 277 LINE SMOOTH",
"590 277 OFFCURVE",
"606 276 OFFCURVE",
"614 274 CURVE",
"627 205 LINE"
);
},
{
closed = 1;
nodes = (
"197 182 OFFCURVE",
"234 182 OFFCURVE",
"287 182 CURVE SMOOTH",
"357 182 OFFCURVE",
"380 182 OFFCURVE",
"398 180 CURVE",
"398 234 LINE",
"377 232 OFFCURVE",
"340 231 OFFCURVE",
"287 231 CURVE SMOOTH",
"235 231 OFFCURVE",
"200 232 OFFCURVE",
"179 234 CURVE",
"167 180 LINE"
);
},
{
closed = 1;
nodes = (
"681 52 LINE",
"669 49 OFFCURVE",
"652 48 OFFCURVE",
"609 48 CURVE SMOOTH",
"524 48 LINE SMOOTH",
"487 48 OFFCURVE",
"477 48 OFFCURVE",
"460 50 CURVE",
"459 63 OFFCURVE",
"458 114 OFFCURVE",
"458 153 CURVE SMOOTH",
"458 423 LINE SMOOTH",
"458 471 OFFCURVE",
"459 530 OFFCURVE",
"460 540 CURVE",
"482 541 OFFCURVE",
"501 542 OFFCURVE",
"521 542 CURVE SMOOTH",
"625 542 LINE SMOOTH",
"640 542 OFFCURVE",
"653 541 OFFCURVE",
"662 539 CURVE",
"696 452 LINE",
"741 459 LINE",
"721 591 LINE",
"688 588 OFFCURVE",
"657 587 OFFCURVE",
"621 587 CURVE SMOOTH",
"291 587 LINE",
"289 549 LINE",
"379 535 LINE",
"368 570 LINE",
"37 52 LINE",
"-14 38 LINE",
"-12 0 LINE",
"163 0 LINE",
"165 38 LINE",
"104 52 LINE",
"401 539 LINE",
"372 520 LINE",
"372 158 LINE SMOOTH",
"372 96 OFFCURVE",
"371 69 OFFCURVE",
"370 52 CURVE",
"309 38 LINE",
"311 0 LINE",
"643 0 LINE SMOOTH",
"669 0 OFFCURVE",
"693 -1 OFFCURVE",
"738 -5 CURVE",
"777 141 LINE",
"732 150 LINE"
);
}
);
width = 809;
},
{
anchors = (
{
name = bottom;
position = "{435, 0}";
},
{
name = top;
position = "{435, 587}";
}
);
background = {
anchors = (
{
name = bottom;
position = "{435, 0}";
},
{
name = top;
position = "{435, 587}";
}
);
paths = (
{
closed = 1;
nodes = (
"702 199 LINE",
"702 401 LINE",
"648 401 LINE",
"636 335 LINE",
"628 335 OFFCURVE",
"606 333 OFFCURVE",
"580 333 CURVE SMOOTH",
"537 333 LINE SMOOTH",
"513 333 OFFCURVE",
"492 335 OFFCURVE",
"480 336 CURVE",
"480 266 LINE",
"492 267 OFFCURVE",
"513 269 OFFCURVE",
"537 269 CURVE SMOOTH",
"580 269 LINE SMOOTH",
"606 269 OFFCURVE",
"628 267 OFFCURVE",
"636 267 CURVE",
"648 199 LINE"
);
},
{
closed = 1;
nodes = (
"177 163 OFFCURVE",
"212 164 OFFCURVE",
"265 164 CURVE SMOOTH",
"299 164 OFFCURVE",
"331 163 OFFCURVE",
"380 162 CURVE",
"380 230 LINE",
"347 227 OFFCURVE",
"312 226 OFFCURVE",
"265 226 CURVE SMOOTH",
"209 226 OFFCURVE",
"199 228 OFFCURVE",
"173 230 CURVE",
"153 161 LINE"
);
},
{
closed = 1;
nodes = (
"708 64 LINE",
"692 60 OFFCURVE",
"688 60 OFFCURVE",
"637 60 CURVE SMOOTH",
"593 60 LINE SMOOTH",
"559 60 OFFCURVE",
"534 61 OFFCURVE",
"505 63 CURVE",
"503 75 OFFCURVE",
"503 91 OFFCURVE",
"503 194 CURVE SMOOTH",
"503 402 LINE SMOOTH",
"503 504 OFFCURVE",
"503 517 OFFCURVE",
"505 529 CURVE",
"520 531 OFFCURVE",
"546 532 OFFCURVE",
"571 532 CURVE SMOOTH",
"636 532 LINE SMOOTH",
"652 532 OFFCURVE",
"664 531 OFFCURVE",
"682 528 CURVE",
"719 435 LINE",
"778 443 LINE",
"750 592 LINE",
"716 591 OFFCURVE",
"638 587 OFFCURVE",
"596 587 CURVE SMOOTH",
"279 587 LINE",
"276 536 LINE",
"371 520 LINE",
"361 559 LINE",
"30 67 LINE",
"-25 51 LINE",
"-22 0 LINE",
"170 0 LINE",
"173 51 LINE",
"111 67 LINE",
"401 513 LINE",
"366 502 LINE",
"366 190 LINE SMOOTH",
"366 137 OFFCURVE",
"366 95 OFFCURVE",
"364 67 CURVE",
"302 50 LINE",
"305 0 LINE",
"634 0 LINE SMOOTH",
"676 0 OFFCURVE",
"740 -4 OFFCURVE",
"775 -6 CURVE",
"820 157 LINE",
"763 168 LINE"
);
}
);
};
layerId = "DEDDD934-E4FE-4A27-B966-8C21F8A9BC34";
paths = (
{
closed = 1;
nodes = (
"702 199 LINE",
"702 401 LINE",
"648 401 LINE",
"636 335 LINE",
"628 335 OFFCURVE",
"606 333 OFFCURVE",
"580 333 CURVE SMOOTH",
"537 333 LINE SMOOTH",
"513 333 OFFCURVE",
"492 335 OFFCURVE",
"480 336 CURVE",
"480 266 LINE",
"492 267 OFFCURVE",
"513 269 OFFCURVE",
"537 269 CURVE SMOOTH",
"580 269 LINE SMOOTH",
"606 269 OFFCURVE",
"628 267 OFFCURVE",
"636 267 CURVE",
"648 199 LINE"
);
},
{
closed = 1;
nodes = (
"177 163 OFFCURVE",
"212 164 OFFCURVE",
"265 164 CURVE SMOOTH",
"299 164 OFFCURVE",
"331 163 OFFCURVE",
"380 162 CURVE",
"380 230 LINE",
"347 227 OFFCURVE",
"312 226 OFFCURVE",
"265 226 CURVE SMOOTH",
"209 226 OFFCURVE",
"199 228 OFFCURVE",
"173 230 CURVE",
"153 161 LINE"
);
},
{
closed = 1;
nodes = (
"708 64 LINE",
"692 60 OFFCURVE",
"688 60 OFFCURVE",
"637 60 CURVE SMOOTH",
"593 60 LINE SMOOTH",
"559 60 OFFCURVE",
"534 61 OFFCURVE",
"505 63 CURVE",
"503 75 OFFCURVE",
"503 91 OFFCURVE",
"503 194 CURVE SMOOTH",
"503 402 LINE SMOOTH",
"503 504 OFFCURVE",
"503 517 OFFCURVE",
"505 529 CURVE",
"520 531 OFFCURVE",
"546 532 OFFCURVE",
"571 532 CURVE SMOOTH",
"636 532 LINE SMOOTH",
"652 532 OFFCURVE",
"664 531 OFFCURVE",
"682 528 CURVE",
"719 435 LINE",
"778 443 LINE",
"750 592 LINE",
"716 591 OFFCURVE",
"638 587 OFFCURVE",
"596 587 CURVE SMOOTH",
"279 587 LINE",
"276 536 LINE",
"371 520 LINE",
"361 559 LINE",
"30 67 LINE",
"-25 51 LINE",
"-22 0 LINE",
"170 0 LINE",
"173 51 LINE",
"111 67 LINE",
"401 513 LINE",
"366 502 LINE",
"366 190 LINE SMOOTH",
"366 137 OFFCURVE",
"366 95 OFFCURVE",
"364 67 CURVE",
"302 50 LINE",
"305 0 LINE",
"634 0 LINE SMOOTH",
"676 0 OFFCURVE",
"740 -4 OFFCURVE",
"775 -6 CURVE",
"820 157 LINE",
"763 168 LINE"
);
}
);
width = 836;
}
);
note = AE;
unicode = 00C6;
},
{
color = 9;
glyphname = B;
lastChange = "2018-06-05 14:05:21 +0000";
layers = (
{
anchors = (
{
name = bottom;
position = "{279, 0}";
},
{
name = top;
position = "{279, 587}";
}
);
background = {
anchors = (
{
name = bottom;
position = "{279, 0}";
},
{
name = top;
position = "{279, 587}";
}
);
paths = (
{
closed = 1;
nodes = (
"44 38 LINE",
"46 0 LINE",
"266 0 LINE SMOOTH",
"419 0 OFFCURVE",
"515 65 OFFCURVE",
"515 169 CURVE SMOOTH",
"515 260 OFFCURVE",
"445 313 OFFCURVE",
"318 317 CURVE",
"329 310 LINE",
"421 317 OFFCURVE",
"485 373 OFFCURVE",
"485 446 CURVE SMOOTH",
"485 537 OFFCURVE",
"415 587 OFFCURVE",
"286 587 CURVE SMOOTH",
"46 587 LINE",
"44 548 LINE",
"105 538 LINE",
"110 530 OFFCURVE",
"113 474 OFFCURVE",
"113 387 CURVE SMOOTH",
"113 199 LINE SMOOTH",
"113 119 OFFCURVE",
"110 62 OFFCURVE",
"105 52 CURVE"
);
},
{
closed = 1;
nodes = (
"197 413 LINE SMOOTH",
"197 475 OFFCURVE",
"198 533 OFFCURVE",
"199 543 CURVE",
"266 543 LINE SMOOTH",
"348 543 OFFCURVE",
"394 505 OFFCURVE",
"394 436 CURVE SMOOTH",
"394 365 OFFCURVE",
"344 325 OFFCURVE",
"257 325 CURVE SMOOTH",
"229 325 OFFCURVE",
"209 326 OFFCURVE",
"184 327 CURVE",
"184 276 LINE",
"199 278 OFFCURVE",
"211 278 OFFCURVE",
"262 278 CURVE SMOOTH",
"369 278 OFFCURVE",
"424 238 OFFCURVE",
"424 159 CURVE SMOOTH",
"424 83 OFFCURVE",
"373 46 OFFCURVE",
"270 46 CURVE SMOOTH",
"252 46 OFFCURVE",
"216 50 OFFCURVE",
"200 53 CURVE",
"198 65 OFFCURVE",
"197 118 OFFCURVE",
"197 177 CURVE SMOOTH"
);
}
);
};
layerId = "720C727D-0ED9-429E-914E-55EB9E513E33";
paths = (
{
closed = 1;
nodes = (
"44 38 LINE",
"46 0 LINE",
"266 0 LINE SMOOTH",
"419 0 OFFCURVE",
"515 65 OFFCURVE",
"515 169 CURVE SMOOTH",
"515 260 OFFCURVE",
"445 313 OFFCURVE",
"318 317 CURVE",
"329 310 LINE",
"421 317 OFFCURVE",
"485 373 OFFCURVE",
"485 446 CURVE SMOOTH",
"485 537 OFFCURVE",
"415 587 OFFCURVE",
"286 587 CURVE SMOOTH",
"46 587 LINE",
"44 548 LINE",
"105 538 LINE",
"110 530 OFFCURVE",
"113 474 OFFCURVE",
"113 387 CURVE SMOOTH",
"113 199 LINE SMOOTH",
"113 119 OFFCURVE",
"110 62 OFFCURVE",
"105 52 CURVE"
);
},
{
closed = 1;
nodes = (
"197 413 LINE SMOOTH",
"197 475 OFFCURVE",
"198 533 OFFCURVE",
"199 543 CURVE",
"266 543 LINE SMOOTH",
"348 543 OFFCURVE",
"394 505 OFFCURVE",
"394 436 CURVE SMOOTH",
"394 365 OFFCURVE",
"344 325 OFFCURVE",
"257 325 CURVE SMOOTH",
"229 325 OFFCURVE",
"209 326 OFFCURVE",
"184 327 CURVE",
"184 276 LINE",
"199 278 OFFCURVE",
"211 278 OFFCURVE",
"262 278 CURVE SMOOTH",
"369 278 OFFCURVE",
"424 238 OFFCURVE",
"424 159 CURVE SMOOTH",
"424 83 OFFCURVE",
"373 46 OFFCURVE",
"270 46 CURVE SMOOTH",
"252 46 OFFCURVE",
"216 50 OFFCURVE",
"200 53 CURVE",
"198 65 OFFCURVE",
"197 118 OFFCURVE",
"197 177 CURVE SMOOTH"
);
}
);
width = 564;
},
{
anchors = (
{
name = bottom;
position = "{306, 0}";
},
{
name = top;
position = "{306, 587}";
}
);
background = {
anchors = (
{
name = bottom;
position = "{306, 0}";
},
{
name = top;
position = "{306, 587}";
}
);
paths = (
{
closed = 1;
nodes = (
"33 50 LINE",
"36 0 LINE",
"301 0 LINE SMOOTH",
"466 0 OFFCURVE",
"562 63 OFFCURVE",
"562 172 CURVE SMOOTH",
"562 260 OFFCURVE",
"491 314 OFFCURVE",
"367 320 CURVE",
"360 312 LINE",
"462 318 OFFCURVE",
"532 373 OFFCURVE",
"532 446 CURVE SMOOTH",
"532 540 OFFCURVE",
"463 587 OFFCURVE",
"323 587 CURVE SMOOTH",
"36 587 LINE",
"33 537 LINE",
"97 520 LINE",
"101 513 OFFCURVE",
"104 448 OFFCURVE",
"104 366 CURVE SMOOTH",
"104 221 LINE SMOOTH",
"104 140 OFFCURVE",
"101 75 OFFCURVE",
"97 67 CURVE"
);
},
{
closed = 1;
nodes = (
"240 409 LINE SMOOTH",
"240 469 OFFCURVE",
"241 519 OFFCURVE",
"242 531 CURVE",
"278 531 LINE SMOOTH",
"351 531 OFFCURVE",
"385 493 OFFCURVE",
"385 432 CURVE SMOOTH",
"385 367 OFFCURVE",
"349 331 OFFCURVE",
"281 331 CURVE SMOOTH",
"260 331 OFFCURVE",
"247 331 OFFCURVE",
"232 332 CURVE",
"232 266 LINE",
"252 268 OFFCURVE",
"268 268 OFFCURVE",
"288 268 CURVE SMOOTH",
"374 268 OFFCURVE",
"415 233 OFFCURVE",
"415 158 CURVE SMOOTH",
"415 95 OFFCURVE",
"375 59 OFFCURVE",
"307 59 CURVE SMOOTH",
"284 59 OFFCURVE",
"257 62 OFFCURVE",
"243 67 CURVE",
"241 82 OFFCURVE",
"240 124 OFFCURVE",
"240 177 CURVE SMOOTH"
);
}
);
};
layerId = "DEDDD934-E4FE-4A27-B966-8C21F8A9BC34";
paths = (
{
closed = 1;
nodes = (
"33 50 LINE",
"36 0 LINE",
"301 0 LINE SMOOTH",
"466 0 OFFCURVE",
"562 63 OFFCURVE",
"562 172 CURVE SMOOTH",
"562 260 OFFCURVE",
"491 314 OFFCURVE",
"367 320 CURVE",
"360 312 LINE",
"462 318 OFFCURVE",
"532 373 OFFCURVE",
"532 446 CURVE SMOOTH",
"532 540 OFFCURVE",
"463 587 OFFCURVE",
"323 587 CURVE SMOOTH",
"36 587 LINE",
"33 537 LINE",
"97 520 LINE",
"101 513 OFFCURVE",
"104 448 OFFCURVE",
"104 366 CURVE SMOOTH",
"104 221 LINE SMOOTH",
"104 140 OFFCURVE",
"101 75 OFFCURVE",
"97 67 CURVE"
);
},
{
closed = 1;
nodes = (
"240 409 LINE SMOOTH",
"240 469 OFFCURVE",
"241 519 OFFCURVE",
"242 531 CURVE",
"278 531 LINE SMOOTH",
"351 531 OFFCURVE",
"385 493 OFFCURVE",
"385 432 CURVE SMOOTH",
"385 367 OFFCURVE",
"349 331 OFFCURVE",
"281 331 CURVE SMOOTH",
"260 331 OFFCURVE",
"247 331 OFFCURVE",
"232 332 CURVE",
"232 266 LINE",
"252 268 OFFCURVE",
"268 268 OFFCURVE",
"288 268 CURVE SMOOTH",
"374 268 OFFCURVE",
"415 233 OFFCURVE",
"415 158 CURVE SMOOTH",
"415 95 OFFCURVE",
"375 59 OFFCURVE",
"307 59 CURVE SMOOTH",
"284 59 OFFCURVE",
"257 62 OFFCURVE",
"243 67 CURVE",
"241 82 OFFCURVE",
"240 124 OFFCURVE",
"240 177 CURVE SMOOTH"
);
}
);
width = 610;
}
);
note = B;
unicode = 0042;
},
{
color = 9;
glyphname = C;
lastChange = "2018-06-05 14:05:21 +0000";
layers = (
{
anchors = (
{
name = bottom;
position = "{349, 0}";
},
{
name = top;
position = "{349, 587}";
}
);
background = {
anchors = (
{
name = bottom;
position = "{349, 0}";
},
{
name = top;
position = "{349, 587}";
}
);
paths = (
{
closed = 1;
nodes = (
"437 -9 OFFCURVE",
"502 11 OFFCURVE",
"548 35 CURVE",
"576 161 LINE",
"530 166 LINE",
"486 72 LINE",
"455 53 OFFCURVE",
"420 44 OFFCURVE",
"378 44 CURVE SMOOTH",
"256 44 OFFCURVE",
"158 136 OFFCURVE",
"158 307 CURVE SMOOTH",
"158 436 OFFCURVE",
"222 545 OFFCURVE",
"372 545 CURVE SMOOTH",
"410 545 OFFCURVE",
"456 536 OFFCURVE",
"482 519 CURVE",
"512 424 LINE",
"557 428 LINE",
"550 565 LINE",
"502 585 OFFCURVE",
"435 596 OFFCURVE",
"381 596 CURVE SMOOTH",
"173 596 OFFCURVE",
"52 456 OFFCURVE",
"52 289 CURVE SMOOTH",
"52 92 OFFCURVE",
"194 -9 OFFCURVE",
"368 -9 CURVE SMOOTH"
);
}
);
};
layerId = "720C727D-0ED9-429E-914E-55EB9E513E33";
paths = (
{
closed = 1;
nodes = (
"437 -9 OFFCURVE",
"502 11 OFFCURVE",
"548 35 CURVE",
"576 161 LINE",
"530 166 LINE",
"486 72 LINE",
"455 53 OFFCURVE",
"420 44 OFFCURVE",
"378 44 CURVE SMOOTH",
"256 44 OFFCURVE",
"158 136 OFFCURVE",
"158 307 CURVE SMOOTH",
"158 436 OFFCURVE",
"222 545 OFFCURVE",
"372 545 CURVE SMOOTH",
"410 545 OFFCURVE",
"456 536 OFFCURVE",
"482 519 CURVE",
"512 424 LINE",
"557 428 LINE",
"550 565 LINE",
"502 585 OFFCURVE",
"435 596 OFFCURVE",
"381 596 CURVE SMOOTH",
"173 596 OFFCURVE",
"52 456 OFFCURVE",
"52 289 CURVE SMOOTH",
"52 92 OFFCURVE",
"194 -9 OFFCURVE",
"368 -9 CURVE SMOOTH"
);
}
);
width = 603;
},
{
anchors = (
{
name = bottom;
position = "{351, 0}";
},
{
name = top;
position = "{351, 587}";
}
);
background = {
anchors = (
{
name = bottom;
position = "{351, 0}";
},
{
name = top;
position = "{351, 587}";
}
);
paths = (
{
closed = 1;
nodes = (
"451 -9 OFFCURVE",
"530 16 OFFCURVE",
"570 42 CURVE",
"599 176 LINE",
"531 183 LINE",
"496 94 LINE",
"476 72 OFFCURVE",
"429 61 OFFCURVE",
"398 61 CURVE SMOOTH",
"292 61 OFFCURVE",
"208 154 OFFCURVE",
"208 308 CURVE SMOOTH",
"208 444 OFFCURVE",
"272 529 OFFCURVE",
"386 529 CURVE SMOOTH",
"419 529 OFFCURVE",
"448 522 OFFCURVE",
"474 510 CURVE",
"510 404 LINE",
"572 408 LINE",
"565 562 LINE",
"523 582 OFFCURVE",
"457 596 OFFCURVE",
"395 596 CURVE SMOOTH",
"193 596 OFFCURVE",
"44 478 OFFCURVE",
"44 283 CURVE SMOOTH",
"44 98 OFFCURVE",
"177 -9 OFFCURVE",
"373 -9 CURVE SMOOTH"
);
}
);
};
layerId = "DEDDD934-E4FE-4A27-B966-8C21F8A9BC34";
paths = (
{
closed = 1;
nodes = (
"451 -9 OFFCURVE",
"530 16 OFFCURVE",
"570 42 CURVE",
"599 176 LINE",
"531 183 LINE",
"496 94 LINE",
"476 72 OFFCURVE",
"429 61 OFFCURVE",
"398 61 CURVE SMOOTH",
"292 61 OFFCURVE",
"208 154 OFFCURVE",
"208 308 CURVE SMOOTH",
"208 444 OFFCURVE",
"272 529 OFFCURVE",
"386 529 CURVE SMOOTH",
"419 529 OFFCURVE",
"448 522 OFFCURVE",
"474 510 CURVE",
"510 404 LINE",
"572 408 LINE",
"565 562 LINE",
"523 582 OFFCURVE",
"457 596 OFFCURVE",
"395 596 CURVE SMOOTH",
"193 596 OFFCURVE",
"44 478 OFFCURVE",
"44 283 CURVE SMOOTH",
"44 98 OFFCURVE",
"177 -9 OFFCURVE",
"373 -9 CURVE SMOOTH"
);
}
);
width = 621;
}
);
note = C;
unicode = 0043;
},
{
color = 9;
glyphname = D;
lastChange = "2018-06-05 14:05:21 +0000";
layers = (
{
anchors = (
{
name = bottom;
position = "{344, 0}";
},
{
name = center;
position = "{344, 294}";
},
{
name = stroke;
position = "{201, 294}";
},
{
name = top;
position = "{344, 587}";
}
);
background = {
anchors = (
{
name = bottom;
position = "{344, 0}";
},
{
name = center;
position = "{344, 294}";
},
{
name = stroke;
position = "{201, 294}";
},
{
name = top;
position = "{344, 587}";
}
);
paths = (
{
closed = 1;
nodes = (
"46 549 LINE",
"107 535 LINE",
"111 526 OFFCURVE",
"114 466 OFFCURVE",
"114 387 CURVE SMOOTH",
"114 199 LINE SMOOTH",
"114 127 OFFCURVE",
"111 64 OFFCURVE",
"107 52 CURVE",
"46 38 LINE",
"48 0 LINE",
"305 0 LINE SMOOTH",
"495 0 OFFCURVE",
"628 124 OFFCURVE",
"628 300 CURVE SMOOTH",
"628 481 OFFCURVE",
"504 587 OFFCURVE",
"292 587 CURVE SMOOTH",
"48 587 LINE"
);
},
{
closed = 1;
nodes = (
"230 538 OFFCURVE",
"256 540 OFFCURVE",
"281 540 CURVE SMOOTH",
"439 540 OFFCURVE",
"526 445 OFFCURVE",
"526 271 CURVE SMOOTH",
"526 128 OFFCURVE",
"451 52 OFFCURVE",
"311 52 CURVE SMOOTH",
"278 52 OFFCURVE",
"246 55 OFFCURVE",
"204 61 CURVE",
"201 89 OFFCURVE",
"199 139 OFFCURVE",
"199 199 CURVE SMOOTH",
"199 387 LINE SMOOTH",
"199 484 OFFCURVE",
"201 514 OFFCURVE",
"201 533 CURVE"
);
}
);
};
layerId = "720C727D-0ED9-429E-914E-55EB9E513E33";
paths = (
{
closed = 1;
nodes = (
"46 549 LINE",
"107 535 LINE",
"111 526 OFFCURVE",
"114 466 OFFCURVE",
"114 387 CURVE SMOOTH",
"114 199 LINE SMOOTH",
"114 127 OFFCURVE",
"111 64 OFFCURVE",
"107 52 CURVE",
"46 38 LINE",
"48 0 LINE",
"305 0 LINE SMOOTH",
"495 0 OFFCURVE",
"628 124 OFFCURVE",
"628 300 CURVE SMOOTH",
"628 481 OFFCURVE",
"504 587 OFFCURVE",
"292 587 CURVE SMOOTH",
"48 587 LINE"
);
},
{
closed = 1;
nodes = (
"230 538 OFFCURVE",
"256 540 OFFCURVE",
"281 540 CURVE SMOOTH",
"439 540 OFFCURVE",
"526 445 OFFCURVE",
"526 271 CURVE SMOOTH",
"526 128 OFFCURVE",
"451 52 OFFCURVE",
"311 52 CURVE SMOOTH",
"278 52 OFFCURVE",
"246 55 OFFCURVE",
"204 61 CURVE",
"201 89 OFFCURVE",
"199 139 OFFCURVE",
"199 199 CURVE SMOOTH",
"199 387 LINE SMOOTH",
"199 484 OFFCURVE",
"201 514 OFFCURVE",
"201 533 CURVE"
);
}
);
width = 685;
},
{
anchors = (
{
name = bottom;
position = "{358, 0}";
},
{
name = center;
position = "{358, 294}";
},
{
name = stroke;
position = "{214, 294}";
},
{
name = top;
position = "{358, 587}";
}
);
background = {
anchors = (
{
name = bottom;
position = "{358, 0}";
},
{
name = center;
position = "{358, 294}";
},
{
name = stroke;
position = "{214, 294}";
},
{
name = top;
position = "{358, 587}";
}
);
paths = (
{
closed = 1;
nodes = (
"34 537 LINE",
"98 520 LINE",
"102 513 OFFCURVE",
"105 448 OFFCURVE",
"105 366 CURVE SMOOTH",
"105 221 LINE SMOOTH",
"105 140 OFFCURVE",
"102 75 OFFCURVE",
"98 67 CURVE",
"34 50 LINE",
"37 0 LINE",
"325 0 LINE SMOOTH",
"519 0 OFFCURVE",
"658 126 OFFCURVE",
"658 301 CURVE SMOOTH",
"658 481 OFFCURVE",
"531 587 OFFCURVE",
"315 587 CURVE SMOOTH",
"37 587 LINE"
);
},
{
closed = 1;
nodes = (
"266 524 OFFCURVE",
"287 525 OFFCURVE",
"307 525 CURVE SMOOTH",
"411 525 OFFCURVE",
"505 458 OFFCURVE",
"505 270 CURVE SMOOTH",
"505 129 OFFCURVE",
"447 67 OFFCURVE",
"335 67 CURVE SMOOTH",
"308 67 OFFCURVE",
"276 70 OFFCURVE",
"247 76 CURVE",
"244 104 OFFCURVE",
"242 169 OFFCURVE",
"242 221 CURVE SMOOTH",
"242 366 LINE SMOOTH",
"242 455 OFFCURVE",
"244 507 OFFCURVE",
"244 521 CURVE"
);
}
);
};
layerId = "DEDDD934-E4FE-4A27-B966-8C21F8A9BC34";
paths = (
{
closed = 1;
nodes = (
"34 537 LINE",
"98 520 LINE",
"102 513 OFFCURVE",
"105 448 OFFCURVE",
"105 366 CURVE SMOOTH",
"105 221 LINE SMOOTH",
"105 140 OFFCURVE",
"102 75 OFFCURVE",
"98 67 CURVE",
"34 50 LINE",
"37 0 LINE",
"325 0 LINE SMOOTH",
"519 0 OFFCURVE",
"658 126 OFFCURVE",
"658 301 CURVE SMOOTH",
"658 481 OFFCURVE",
"531 587 OFFCURVE",
"315 587 CURVE SMOOTH",
"37 587 LINE"
);
},
{
closed = 1;
nodes = (
"266 524 OFFCURVE",
"287 525 OFFCURVE",
"307 525 CURVE SMOOTH",
"411 525 OFFCURVE",
"505 458 OFFCURVE",
"505 270 CURVE SMOOTH",
"505 129 OFFCURVE",
"447 67 OFFCURVE",
"335 67 CURVE SMOOTH",
"308 67 OFFCURVE",
"276 70 OFFCURVE",
"247 76 CURVE",
"244 104 OFFCURVE",
"242 169 OFFCURVE",
"242 221 CURVE SMOOTH",
"242 366 LINE SMOOTH",
"242 455 OFFCURVE",
"244 507 OFFCURVE",
"244 521 CURVE"
);
}
);
width = 706;
}
);
note = D;
unicode = 0044;
},
{
color = 9;
glyphname = E;
lastChange = "2018-06-05 14:05:21 +0000";
layers = (
{
anchors = (
{
name = bottom;
position = "{281, 0}";
},
{
name = ogonek;
position = "{489, 0}";
},
{
name = top;
position = "{281, 587}";
},
{
name = topleft;
position = "{26, 587}";
}
);
background = {
anchors = (
{
name = bottom;
position = "{281, 0}";
},
{
name = ogonek;
position = "{489, 0}";
},
{
name = top;
position = "{281, 587}";
},
{
name = topleft;
position = "{26, 587}";
}
);
paths = (
{
closed = 1;
nodes = (
"527 141 LINE",
"482 150 LINE",
"430 55 LINE",
"419 52 OFFCURVE",
"402 51 OFFCURVE",
"359 51 CURVE SMOOTH",
"263 51 LINE SMOOTH",
"237 51 OFFCURVE",
"218 52 OFFCURVE",
"199 54 CURVE",
"198 66 OFFCURVE",
"197 113 OFFCURVE",
"197 153 CURVE SMOOTH",
"197 423 LINE SMOOTH",
"197 470 OFFCURVE",
"198 527 OFFCURVE",
"199 536 CURVE",
"217 538 OFFCURVE",
"235 539 OFFCURVE",
"260 539 CURVE SMOOTH",
"374 539 LINE SMOOTH",
"389 539 OFFCURVE",
"402 538 OFFCURVE",
"412 536 CURVE",
"446 452 LINE",
"491 459 LINE",
"471 591 LINE",
"431 588 OFFCURVE",
"399 587 OFFCURVE",
"371 587 CURVE SMOOTH",
"47 587 LINE",
"45 549 LINE",
"107 534 LINE",
"111 526 OFFCURVE",
"113 476 OFFCURVE",
"113 387 CURVE SMOOTH",
"113 199 LINE SMOOTH",
"113 111 OFFCURVE",
"111 61 OFFCURVE",
"107 52 CURVE",
"45 38 LINE",
"47 0 LINE",
"393 0 LINE",
"419 0 OFFCURVE",
"447 -1 OFFCURVE",
"487 -5 CURVE"
);
},
{
closed = 1;
nodes = (
"418 205 LINE",
"418 399 LINE",
"376 399 LINE",
"364 330 LINE",
"356 328 OFFCURVE",
"340 327 OFFCURVE",
"318 327 CURVE SMOOTH",
"242 327 LINE SMOOTH",
"224 327 OFFCURVE",
"204 328 OFFCURVE",
"182 329 CURVE",
"182 275 LINE",
"204 276 OFFCURVE",
"224 277 OFFCURVE",
"242 277 CURVE SMOOTH",
"318 277 LINE SMOOTH",
"340 277 OFFCURVE",
"356 276 OFFCURVE",
"364 274 CURVE",
"376 205 LINE"
);
}
);
};
layerId = "720C727D-0ED9-429E-914E-55EB9E513E33";
paths = (
{
closed = 1;
nodes = (
"527 141 LINE",
"482 150 LINE",
"430 55 LINE",
"419 52 OFFCURVE",
"402 51 OFFCURVE",
"359 51 CURVE SMOOTH",
"263 51 LINE SMOOTH",
"237 51 OFFCURVE",
"218 52 OFFCURVE",
"199 54 CURVE",
"198 66 OFFCURVE",
"197 113 OFFCURVE",
"197 153 CURVE SMOOTH",
"197 423 LINE SMOOTH",
"197 470 OFFCURVE",
"198 527 OFFCURVE",
"199 536 CURVE",
"217 538 OFFCURVE",
"235 539 OFFCURVE",
"260 539 CURVE SMOOTH",
"374 539 LINE SMOOTH",
"389 539 OFFCURVE",
"402 538 OFFCURVE",
"412 536 CURVE",
"446 452 LINE",
"491 459 LINE",
"471 591 LINE",
"431 588 OFFCURVE",
"399 587 OFFCURVE",
"371 587 CURVE SMOOTH",
"47 587 LINE",
"45 549 LINE",
"107 534 LINE",
"111 526 OFFCURVE",
"113 476 OFFCURVE",
"113 387 CURVE SMOOTH",
"113 199 LINE SMOOTH",
"113 111 OFFCURVE",
"111 61 OFFCURVE",
"107 52 CURVE",
"45 38 LINE",
"47 0 LINE",
"393 0 LINE",
"419 0 OFFCURVE",
"447 -1 OFFCURVE",
"487 -5 CURVE"
);
},
{
closed = 1;
nodes = (
"418 205 LINE",
"418 399 LINE",
"376 399 LINE",
"364 330 LINE",
"356 328 OFFCURVE",
"340 327 OFFCURVE",
"318 327 CURVE SMOOTH",
"242 327 LINE SMOOTH",
"224 327 OFFCURVE",
"204 328 OFFCURVE",
"182 329 CURVE",
"182 275 LINE",
"204 276 OFFCURVE",
"224 277 OFFCURVE",
"242 277 CURVE SMOOTH",
"318 277 LINE SMOOTH",
"340 277 OFFCURVE",
"356 276 OFFCURVE",
"364 274 CURVE",
"376 205 LINE"
);
}
);
width = 558;
},
{
anchors = (
{
name = bottom;
position = "{293, 0}";
},
{
name = ogonek;
position = "{523, 0}";
},
{
name = top;
position = "{293, 587}";
},
{
name = topleft;
position = "{28, 587}";
}
);
background = {
anchors = (
{
name = bottom;
position = "{293, 0}";
},
{
name = ogonek;
position = "{523, 0}";
},
{
name = top;
position = "{293, 587}";
},
{
name = topleft;
position = "{28, 587}";
}
);
paths = (
{
closed = 1;
nodes = (
"566 157 LINE",
"509 168 LINE",
"454 68 LINE",
"438 64 OFFCURVE",
"434 64 OFFCURVE",
"383 64 CURVE SMOOTH",
"331 64 LINE SMOOTH",
"290 64 OFFCURVE",
"267 65 OFFCURVE",
"243 68 CURVE",
"241 86 OFFCURVE",
"240 128 OFFCURVE",
"240 194 CURVE SMOOTH",
"240 402 LINE SMOOTH",
"240 469 OFFCURVE",
"241 509 OFFCURVE",
"243 525 CURVE",
"257 527 OFFCURVE",
"282 528 OFFCURVE",
"308 528 CURVE SMOOTH",
"382 528 LINE SMOOTH",
"398 528 OFFCURVE",
"410 527 OFFCURVE",
"428 524 CURVE",
"466 435 LINE",
"524 443 LINE",
"497 592 LINE",
"462 591 OFFCURVE",
"385 587 OFFCURVE",
"343 587 CURVE SMOOTH",
"36 587 LINE",
"33 537 LINE",
"97 520 LINE",
"101 513 OFFCURVE",
"104 448 OFFCURVE",
"104 366 CURVE SMOOTH",
"104 221 LINE SMOOTH",
"104 140 OFFCURVE",
"101 75 OFFCURVE",
"97 67 CURVE",
"33 50 LINE",
"36 0 LINE",
"381 0 LINE",
"423 0 OFFCURVE",
"486 -4 OFFCURVE",
"521 -6 CURVE"
);
},
{
closed = 1;
nodes = (
"449 199 LINE",
"449 402 LINE",
"393 402 LINE",
"383 336 LINE",
"374 336 OFFCURVE",
"352 334 OFFCURVE",
"326 334 CURVE SMOOTH",
"274 334 LINE SMOOTH",
"250 334 OFFCURVE",
"229 336 OFFCURVE",
"218 337 CURVE",
"218 266 LINE",
"229 267 OFFCURVE",
"250 269 OFFCURVE",
"274 269 CURVE SMOOTH",
"326 269 LINE SMOOTH",
"352 269 OFFCURVE",
"374 267 OFFCURVE",
"383 267 CURVE",
"393 199 LINE"
);
}
);
};
layerId = "DEDDD934-E4FE-4A27-B966-8C21F8A9BC34";
paths = (
{
closed = 1;
nodes = (
"566 157 LINE",
"509 168 LINE",
"454 68 LINE",
"438 64 OFFCURVE",
"434 64 OFFCURVE",
"383 64 CURVE SMOOTH",
"331 64 LINE SMOOTH",
"290 64 OFFCURVE",
"267 65 OFFCURVE",
"243 68 CURVE",
"241 86 OFFCURVE",
"240 128 OFFCURVE",
"240 194 CURVE SMOOTH",
"240 402 LINE SMOOTH",
"240 469 OFFCURVE",
"241 509 OFFCURVE",
"243 525 CURVE",
"257 527 OFFCURVE",
"282 528 OFFCURVE",
"308 528 CURVE SMOOTH",
"382 528 LINE SMOOTH",
"398 528 OFFCURVE",
"410 527 OFFCURVE",
"428 524 CURVE",
"466 435 LINE",
"524 443 LINE",
"497 592 LINE",
"462 591 OFFCURVE",
"385 587 OFFCURVE",
"343 587 CURVE SMOOTH",
"36 587 LINE",
"33 537 LINE",
"97 520 LINE",
"101 513 OFFCURVE",
"104 448 OFFCURVE",
"104 366 CURVE SMOOTH",
"104 221 LINE SMOOTH",
"104 140 OFFCURVE",
"101 75 OFFCURVE",
"97 67 CURVE",
"33 50 LINE",
"36 0 LINE",
"381 0 LINE",
"423 0 OFFCURVE",
"486 -4 OFFCURVE",
"521 -6 CURVE"
);
},
{
closed = 1;
nodes = (
"449 199 LINE",
"449 402 LINE",
"393 402 LINE",
"383 336 LINE",
"374 336 OFFCURVE",
"352 334 OFFCURVE",
"326 334 CURVE SMOOTH",
"274 334 LINE SMOOTH",
"250 334 OFFCURVE",
"229 336 OFFCURVE",
"218 337 CURVE",
"218 266 LINE",
"229 267 OFFCURVE",
"250 269 OFFCURVE",
"274 269 CURVE SMOOTH",
"326 269 LINE SMOOTH",
"352 269 OFFCURVE",
"374 267 OFFCURVE",
"383 267 CURVE",
"393 199 LINE"
);
}
);
width = 581;
}
);
note = E;
unicode = 0045;
},
{
color = 9;
glyphname = Eogonek;
lastChange = "2018-06-05 14:05:21 +0000";
layers = (
{
anchors = (
{
name = bottom;
position = "{281, 0}";
},
{
name = top;
position = "{281, 587}";
},
{
name = topleft;
position = "{26, 587}";
}
);
background = {
anchors = (
{
name = bottom;
position = "{281, 0}";
},
{
name = top;
position = "{281, 587}";
},
{
name = topleft;
position = "{26, 587}";
}
);
paths = (
{
closed = 1;
nodes = (
"478 -223 OFFCURVE",
"515 -205 OFFCURVE",
"543 -173 CURVE",
"521 -146 LINE",
"497 -170 OFFCURVE",
"475 -181 OFFCURVE",
"452 -181 CURVE SMOOTH",
"417 -181 OFFCURVE",
"394 -158 OFFCURVE",
"394 -122 CURVE SMOOTH",
"394 -79 OFFCURVE",
"426 -38 OFFCURVE",
"489 0 CURVE",
"527 141 LINE",
"482 150 LINE",
"430 55 LINE",
"419 52 OFFCURVE",
"402 51 OFFCURVE",
"359 51 CURVE SMOOTH",
"263 51 LINE SMOOTH",
"237 51 OFFCURVE",
"218 52 OFFCURVE",
"199 54 CURVE",
"198 66 OFFCURVE",
"197 113 OFFCURVE",
"197 153 CURVE SMOOTH",
"197 423 LINE SMOOTH",
"197 470 OFFCURVE",
"198 527 OFFCURVE",
"199 536 CURVE",
"217 538 OFFCURVE",
"235 539 OFFCURVE",
"260 539 CURVE SMOOTH",
"374 539 LINE SMOOTH",
"389 539 OFFCURVE",
"402 538 OFFCURVE",
"412 536 CURVE",
"446 452 LINE",
"491 459 LINE",
"471 591 LINE",
"431 588 OFFCURVE",
"399 587 OFFCURVE",
"371 587 CURVE SMOOTH",
"47 587 LINE",
"45 549 LINE",
"107 534 LINE",
"111 526 OFFCURVE",
"113 476 OFFCURVE",
"113 387 CURVE SMOOTH",
"113 199 LINE SMOOTH",
"113 111 OFFCURVE",
"111 61 OFFCURVE",
"107 52 CURVE",
"45 38 LINE",
"47 0 LINE",
"437 0 LINE",
"363 -37 OFFCURVE",
"324 -83 OFFCURVE",
"324 -132 CURVE SMOOTH",
"324 -185 OFFCURVE",
"371 -223 OFFCURVE",
"438 -223 CURVE SMOOTH"
);
},
{
closed = 1;
nodes = (
"418 205 LINE",
"418 399 LINE",
"376 399 LINE",
"364 330 LINE",
"356 328 OFFCURVE",
"340 327 OFFCURVE",
"318 327 CURVE SMOOTH",
"242 327 LINE SMOOTH",
"224 327 OFFCURVE",
"204 328 OFFCURVE",
"182 329 CURVE",
"182 275 LINE",
"204 276 OFFCURVE",
"224 277 OFFCURVE",
"242 277 CURVE SMOOTH",
"318 277 LINE SMOOTH",
"340 277 OFFCURVE",
"356 276 OFFCURVE",
"364 274 CURVE",
"376 205 LINE"
);
}
);
};
layerId = "720C727D-0ED9-429E-914E-55EB9E513E33";
paths = (
{
closed = 1;
nodes = (
"478 -223 OFFCURVE",
"515 -205 OFFCURVE",
"543 -173 CURVE",
"521 -146 LINE",
"497 -170 OFFCURVE",
"475 -181 OFFCURVE",
"452 -181 CURVE SMOOTH",
"417 -181 OFFCURVE",
"394 -158 OFFCURVE",
"394 -122 CURVE SMOOTH",
"394 -79 OFFCURVE",
"426 -38 OFFCURVE",
"489 0 CURVE",
"527 141 LINE",
"482 150 LINE",
"430 55 LINE",
"419 52 OFFCURVE",
"402 51 OFFCURVE",
"359 51 CURVE SMOOTH",
"263 51 LINE SMOOTH",
"237 51 OFFCURVE",
"218 52 OFFCURVE",
"199 54 CURVE",
"198 66 OFFCURVE",
"197 113 OFFCURVE",
"197 153 CURVE SMOOTH",
"197 423 LINE SMOOTH",
"197 470 OFFCURVE",
"198 527 OFFCURVE",
"199 536 CURVE",
"217 538 OFFCURVE",
"235 539 OFFCURVE",
"260 539 CURVE SMOOTH",
"374 539 LINE SMOOTH",
"389 539 OFFCURVE",
"402 538 OFFCURVE",
"412 536 CURVE",
"446 452 LINE",
"491 459 LINE",
"471 591 LINE",
"431 588 OFFCURVE",
"399 587 OFFCURVE",
"371 587 CURVE SMOOTH",
"47 587 LINE",
"45 549 LINE",
"107 534 LINE",
"111 526 OFFCURVE",
"113 476 OFFCURVE",
"113 387 CURVE SMOOTH",
"113 199 LINE SMOOTH",
"113 111 OFFCURVE",
"111 61 OFFCURVE",
"107 52 CURVE",
"45 38 LINE",
"47 0 LINE",
"437 0 LINE",
"363 -37 OFFCURVE",
"324 -83 OFFCURVE",
"324 -132 CURVE SMOOTH",
"324 -185 OFFCURVE",
"371 -223 OFFCURVE",
"438 -223 CURVE SMOOTH"
);
},
{
closed = 1;
nodes = (
"418 205 LINE",
"418 399 LINE",
"376 399 LINE",
"364 330 LINE",
"356 328 OFFCURVE",
"340 327 OFFCURVE",
"318 327 CURVE SMOOTH",
"242 327 LINE SMOOTH",
"224 327 OFFCURVE",
"204 328 OFFCURVE",
"182 329 CURVE",
"182 275 LINE",
"204 276 OFFCURVE",
"224 277 OFFCURVE",
"242 277 CURVE SMOOTH",
"318 277 LINE SMOOTH",
"340 277 OFFCURVE",
"356 276 OFFCURVE",
"364 274 CURVE",
"376 205 LINE"
);
}
);
width = 558;
},
{
anchors = (
{
name = bottom;
position = "{293, 0}";
},
{
name = top;
position = "{293, 587}";
},
{
name = topleft;
position = "{28, 587}";
}
);
background = {
anchors = (
{
name = bottom;
position = "{293, 0}";
},
{
name = top;
position = "{293, 587}";
},
{
name = topleft;
position = "{28, 587}";
}
);
paths = (
{
closed = 1;
nodes = (
"515 -223 OFFCURVE",
"554 -206 OFFCURVE",
"584 -173 CURVE",
"556 -134 LINE",
"532 -157 OFFCURVE",
"510 -168 OFFCURVE",
"488 -168 CURVE SMOOTH",
"456 -168 OFFCURVE",
"436 -146 OFFCURVE",
"436 -113 CURVE SMOOTH",
"436 -75 OFFCURVE",
"465 -37 OFFCURVE",
"523 0 CURVE",
"566 157 LINE",
"509 168 LINE",
"454 68 LINE",
"438 64 OFFCURVE",
"434 64 OFFCURVE",
"383 64 CURVE SMOOTH",
"331 64 LINE SMOOTH",
"290 64 OFFCURVE",
"267 65 OFFCURVE",
"243 68 CURVE",
"241 86 OFFCURVE",
"240 128 OFFCURVE",
"240 194 CURVE SMOOTH",
"240 402 LINE SMOOTH",
"240 469 OFFCURVE",
"241 509 OFFCURVE",
"243 525 CURVE",
"257 527 OFFCURVE",
"282 528 OFFCURVE",
"308 528 CURVE SMOOTH",
"382 528 LINE SMOOTH",
"398 528 OFFCURVE",
"410 527 OFFCURVE",
"428 524 CURVE",
"466 435 LINE",
"524 443 LINE",
"497 592 LINE",
"462 591 OFFCURVE",
"385 587 OFFCURVE",
"343 587 CURVE SMOOTH",
"36 587 LINE",
"33 537 LINE",
"97 520 LINE",
"101 513 OFFCURVE",
"104 448 OFFCURVE",
"104 366 CURVE SMOOTH",
"104 221 LINE SMOOTH",
"104 140 OFFCURVE",
"101 75 OFFCURVE",
"97 67 CURVE",
"33 50 LINE",
"36 0 LINE",
"448 0 LINE",
"377 -34 OFFCURVE",
"339 -77 OFFCURVE",
"339 -122 CURVE SMOOTH",
"339 -179 OFFCURVE",
"395 -223 OFFCURVE",
"469 -223 CURVE SMOOTH"
);
},
{
closed = 1;
nodes = (
"449 199 LINE",
"449 402 LINE",
"393 402 LINE",
"383 336 LINE",
"374 336 OFFCURVE",
"352 334 OFFCURVE",
"326 334 CURVE SMOOTH",
"274 334 LINE SMOOTH",
"250 334 OFFCURVE",
"229 336 OFFCURVE",
"218 337 CURVE",
"218 266 LINE",
"229 267 OFFCURVE",
"250 269 OFFCURVE",
"274 269 CURVE SMOOTH",
"326 269 LINE SMOOTH",
"352 269 OFFCURVE",
"374 267 OFFCURVE",
"383 267 CURVE",
"393 199 LINE"
);
}
);
};
layerId = "DEDDD934-E4FE-4A27-B966-8C21F8A9BC34";
paths = (
{
closed = 1;
nodes = (
"515 -223 OFFCURVE",
"554 -206 OFFCURVE",
"584 -173 CURVE",
"556 -134 LINE",
"532 -157 OFFCURVE",
"510 -168 OFFCURVE",
"488 -168 CURVE SMOOTH",
"456 -168 OFFCURVE",
"436 -146 OFFCURVE",
"436 -113 CURVE SMOOTH",
"436 -75 OFFCURVE",
"465 -37 OFFCURVE",
"523 0 CURVE",
"566 157 LINE",
"509 168 LINE",
"454 68 LINE",
"438 64 OFFCURVE",
"434 64 OFFCURVE",
"383 64 CURVE SMOOTH",
"331 64 LINE SMOOTH",
"290 64 OFFCURVE",
"267 65 OFFCURVE",
"243 68 CURVE",
"241 86 OFFCURVE",
"240 128 OFFCURVE",
"240 194 CURVE SMOOTH",
"240 402 LINE SMOOTH",
"240 469 OFFCURVE",
"241 509 OFFCURVE",
"243 525 CURVE",
"257 527 OFFCURVE",
"282 528 OFFCURVE",
"308 528 CURVE SMOOTH",
"382 528 LINE SMOOTH",
"398 528 OFFCURVE",
"410 527 OFFCURVE",
"428 524 CURVE",
"466 435 LINE",
"524 443 LINE",
"497 592 LINE",
"462 591 OFFCURVE",
"385 587 OFFCURVE",
"343 587 CURVE SMOOTH",
"36 587 LINE",
"33 537 LINE",
"97 520 LINE",
"101 513 OFFCURVE",
"104 448 OFFCURVE",
"104 366 CURVE SMOOTH",
"104 221 LINE SMOOTH",
"104 140 OFFCURVE",
"101 75 OFFCURVE",
"97 67 CURVE",
"33 50 LINE",
"36 0 LINE",
"448 0 LINE",
"377 -34 OFFCURVE",
"339 -77 OFFCURVE",
"339 -122 CURVE SMOOTH",
"339 -179 OFFCURVE",
"395 -223 OFFCURVE",
"469 -223 CURVE SMOOTH"
);
},
{
closed = 1;
nodes = (
"449 199 LINE",
"449 402 LINE",
"393 402 LINE",
"383 336 LINE",
"374 336 OFFCURVE",
"352 334 OFFCURVE",
"326 334 CURVE SMOOTH",
"274 334 LINE SMOOTH",
"250 334 OFFCURVE",
"229 336 OFFCURVE",
"218 337 CURVE",
"218 266 LINE",
"229 267 OFFCURVE",
"250 269 OFFCURVE",
"274 269 CURVE SMOOTH",
"326 269 LINE SMOOTH",
"352 269 OFFCURVE",
"374 267 OFFCURVE",
"383 267 CURVE",
"393 199 LINE"
);
}
);
width = 581;
}
);
note = Eogonek;
unicode = 0118;
},
{
color = 9;
glyphname = F;
lastChange = "2018-06-05 14:05:21 +0000";
layers = (
{
anchors = (
{
name = bottom;
position = "{157, 0}";
},
{
name = top;
position = "{261, 587}";
}
);
background = {
anchors = (
{
name = bottom;
position = "{157, 0}";
},
{
name = top;
position = "{261, 587}";
}
);
paths = (
{
closed = 1;
nodes = (
"285 0 LINE",
"287 40 LINE",
"206 52 LINE",
"201 60 OFFCURVE",
"199 99 OFFCURVE",
"199 194 CURVE",
"198 405 LINE",
"198 468 OFFCURVE",
"199 525 OFFCURVE",
"200 536 CURVE",
"214 537 OFFCURVE",
"241 539 OFFCURVE",
"261 539 CURVE SMOOTH",
"371 539 LINE SMOOTH",
"386 539 OFFCURVE",
"399 538 OFFCURVE",
"408 536 CURVE",
"443 452 LINE",
"488 459 LINE",
"468 591 LINE",
"435 588 OFFCURVE",
"404 587 OFFCURVE",
"368 587 CURVE SMOOTH",
"48 587 LINE",
"46 549 LINE",
"107 534 LINE",
"112 527 OFFCURVE",
"114 485 OFFCURVE",
"114 405 CURVE",
"113 194 LINE",
"113 103 OFFCURVE",
"111 60 OFFCURVE",
"106 52 CURVE",
"49 38 LINE",
"51 0 LINE"
);
},
{
closed = 1;
nodes = (
"415 198 LINE",
"415 395 LINE",
"373 395 LINE",
"360 327 LINE",
"352 324 OFFCURVE",
"338 323 OFFCURVE",
"311 323 CURVE SMOOTH",
"228 323 LINE SMOOTH",
"210 323 OFFCURVE",
"192 325 OFFCURVE",
"176 326 CURVE",
"176 272 LINE",
"198 273 OFFCURVE",
"214 274 OFFCURVE",
"228 274 CURVE SMOOTH",
"311 274 LINE SMOOTH",
"340 274 OFFCURVE",
"353 273 OFFCURVE",
"360 270 CURVE",
"373 198 LINE"
);
}
);
};
layerId = "720C727D-0ED9-429E-914E-55EB9E513E33";
paths = (
{
closed = 1;
nodes = (
"285 0 LINE",
"287 40 LINE",
"206 52 LINE",
"201 60 OFFCURVE",
"199 99 OFFCURVE",
"199 194 CURVE",
"198 405 LINE",
"198 468 OFFCURVE",
"199 525 OFFCURVE",
"200 536 CURVE",
"214 537 OFFCURVE",
"241 539 OFFCURVE",
"261 539 CURVE SMOOTH",
"371 539 LINE SMOOTH",
"386 539 OFFCURVE",
"399 538 OFFCURVE",
"408 536 CURVE",
"443 452 LINE",
"488 459 LINE",
"468 591 LINE",
"435 588 OFFCURVE",
"404 587 OFFCURVE",
"368 587 CURVE SMOOTH",
"48 587 LINE",
"46 549 LINE",
"107 534 LINE",
"112 527 OFFCURVE",
"114 485 OFFCURVE",
"114 405 CURVE",
"113 194 LINE",
"113 103 OFFCURVE",
"111 60 OFFCURVE",
"106 52 CURVE",
"49 38 LINE",
"51 0 LINE"
);
},
{
closed = 1;
nodes = (
"415 198 LINE",
"415 395 LINE",
"373 395 LINE",
"360 327 LINE",
"352 324 OFFCURVE",
"338 323 OFFCURVE",
"311 323 CURVE SMOOTH",
"228 323 LINE SMOOTH",
"210 323 OFFCURVE",
"192 325 OFFCURVE",
"176 326 CURVE",
"176 272 LINE",
"198 273 OFFCURVE",
"214 274 OFFCURVE",
"228 274 CURVE SMOOTH",
"311 274 LINE SMOOTH",
"340 274 OFFCURVE",
"353 273 OFFCURVE",
"360 270 CURVE",
"373 198 LINE"
);
}
);
width = 506;
},
{
anchors = (
{
name = bottom;
position = "{172, 0}";
},
{
name = top;
position = "{263, 587}";
}
);
background = {
anchors = (
{
name = bottom;
position = "{172, 0}";
},
{
name = top;
position = "{263, 587}";
}
);
paths = (
{
closed = 1;
nodes = (
"326 0 LINE",
"329 52 LINE",
"248 67 LINE",
"245 75 OFFCURVE",
"241 134 OFFCURVE",
"241 170 CURVE",
"240 402 LINE",
"240 499 OFFCURVE",
"240 510 OFFCURVE",
"241 523 CURVE",
"255 526 OFFCURVE",
"279 528 OFFCURVE",
"302 528 CURVE SMOOTH",
"376 528 LINE SMOOTH",
"392 528 OFFCURVE",
"403 527 OFFCURVE",
"421 524 CURVE",
"459 435 LINE",
"518 443 LINE",
"490 592 LINE",
"453 589 OFFCURVE",
"378 587 OFFCURVE",
"336 587 CURVE SMOOTH",
"37 587 LINE",
"34 537 LINE",
"98 520 LINE",
"102 513 OFFCURVE",
"105 448 OFFCURVE",
"105 366 CURVE",
"104 221 LINE",
"104 140 OFFCURVE",
"101 75 OFFCURVE",
"97 67 CURVE",
"37 50 LINE",
"40 0 LINE"
);
},
{
closed = 1;
nodes = (
"441 189 LINE",
"441 396 LINE",
"386 396 LINE",
"375 331 LINE",
"366 331 OFFCURVE",
"345 328 OFFCURVE",
"318 328 CURVE SMOOTH",
"262 328 LINE SMOOTH",
"238 328 OFFCURVE",
"217 331 OFFCURVE",
"203 332 CURVE",
"203 260 LINE",
"217 261 OFFCURVE",
"238 263 OFFCURVE",
"262 263 CURVE SMOOTH",
"318 263 LINE SMOOTH",
"338 263 OFFCURVE",
"359 262 OFFCURVE",
"375 260 CURVE",
"386 189 LINE"
);
}
);
};
layerId = "DEDDD934-E4FE-4A27-B966-8C21F8A9BC34";
paths = (
{
closed = 1;
nodes = (
"326 0 LINE",
"329 52 LINE",
"248 67 LINE",
"245 75 OFFCURVE",
"241 134 OFFCURVE",
"241 170 CURVE",
"240 402 LINE",
"240 499 OFFCURVE",
"240 510 OFFCURVE",
"241 523 CURVE",
"255 526 OFFCURVE",
"279 528 OFFCURVE",
"302 528 CURVE SMOOTH",
"376 528 LINE SMOOTH",
"392 528 OFFCURVE",
"403 527 OFFCURVE",
"421 524 CURVE",
"459 435 LINE",
"518 443 LINE",
"490 592 LINE",
"453 589 OFFCURVE",
"378 587 OFFCURVE",
"336 587 CURVE SMOOTH",
"37 587 LINE",
"34 537 LINE",
"98 520 LINE",
"102 513 OFFCURVE",
"105 448 OFFCURVE",
"105 366 CURVE",
"104 221 LINE",
"104 140 OFFCURVE",
"101 75 OFFCURVE",
"97 67 CURVE",
"37 50 LINE",
"40 0 LINE"
);
},
{
closed = 1;
nodes = (
"441 189 LINE",
"441 396 LINE",
"386 396 LINE",
"375 331 LINE",
"366 331 OFFCURVE",
"345 328 OFFCURVE",
"318 328 CURVE SMOOTH",
"262 328 LINE SMOOTH",
"238 328 OFFCURVE",
"217 331 OFFCURVE",
"203 332 CURVE",
"203 260 LINE",
"217 261 OFFCURVE",
"238 263 OFFCURVE",
"262 263 CURVE SMOOTH",
"318 263 LINE SMOOTH",
"338 263 OFFCURVE",
"359 262 OFFCURVE",
"375 260 CURVE",
"386 189 LINE"
);
}
);
width = 539;
}
);
note = F;
unicode = 0046;
},
{
color = 9;
glyphname = G;
lastChange = "2018-06-05 14:05:21 +0000";
layers = (
{
anchors = (
{
name = bottom;
position = "{352, 0}";
},
{
name = top;
position = "{352, 587}";
}
);
background = {
anchors = (
{
name = bottom;
position = "{352, 0}";
},
{
name = top;
position = "{352, 587}";
}
);
paths = (
{
closed = 1;
nodes = (
"439 -9 OFFCURVE",
"519 12 OFFCURVE",
"571 46 CURVE",
"569 81 OFFCURVE",
"568 109 OFFCURVE",
"568 155 CURVE SMOOTH",
"568 191 OFFCURVE",
"568 218 OFFCURVE",
"569 225 CURVE",
"613 237 LINE",
"611 275 LINE",
"415 275 LINE",
"413 235 LINE",
"481 224 LINE",
"483 207 OFFCURVE",
"485 171 OFFCURVE",
"485 128 CURVE SMOOTH",
"485 23 LINE",
"509 79 LINE",
"473 54 OFFCURVE",
"423 44 OFFCURVE",
"386 44 CURVE SMOOTH",
"255 44 OFFCURVE",
"156 136 OFFCURVE",
"156 307 CURVE SMOOTH",
"156 436 OFFCURVE",
"221 545 OFFCURVE",
"375 545 CURVE SMOOTH",
"412 545 OFFCURVE",
"459 537 OFFCURVE",
"485 519 CURVE",
"514 430 LINE",
"559 434 LINE",
"552 565 LINE",
"506 585 OFFCURVE",
"438 596 OFFCURVE",
"384 596 CURVE SMOOTH",
"173 596 OFFCURVE",
"51 456 OFFCURVE",
"51 288 CURVE SMOOTH",
"51 92 OFFCURVE",
"193 -9 OFFCURVE",
"375 -9 CURVE SMOOTH"
);
}
);
};
layerId = "720C727D-0ED9-429E-914E-55EB9E513E33";
paths = (
{
closed = 1;
nodes = (
"439 -9 OFFCURVE",
"519 12 OFFCURVE",
"571 46 CURVE",
"569 81 OFFCURVE",
"568 109 OFFCURVE",
"568 155 CURVE SMOOTH",
"568 191 OFFCURVE",
"568 218 OFFCURVE",
"569 225 CURVE",
"613 237 LINE",
"611 275 LINE",
"415 275 LINE",
"413 235 LINE",
"481 224 LINE",
"483 207 OFFCURVE",
"485 171 OFFCURVE",
"485 128 CURVE SMOOTH",
"485 23 LINE",
"509 79 LINE",
"473 54 OFFCURVE",
"423 44 OFFCURVE",
"386 44 CURVE SMOOTH",
"255 44 OFFCURVE",
"156 136 OFFCURVE",
"156 307 CURVE SMOOTH",
"156 436 OFFCURVE",
"221 545 OFFCURVE",
"375 545 CURVE SMOOTH",
"412 545 OFFCURVE",
"459 537 OFFCURVE",
"485 519 CURVE",
"514 430 LINE",
"559 434 LINE",
"552 565 LINE",
"506 585 OFFCURVE",
"438 596 OFFCURVE",
"384 596 CURVE SMOOTH",
"173 596 OFFCURVE",
"51 456 OFFCURVE",
"51 288 CURVE SMOOTH",
"51 92 OFFCURVE",
"193 -9 OFFCURVE",
"375 -9 CURVE SMOOTH"
);
}
);
width = 650;
},
{
anchors = (
{
name = bottom;
position = "{350, 0}";
},
{
name = top;
position = "{350, 587}";
}
);
background = {
anchors = (
{
name = bottom;
position = "{350, 0}";
},
{
name = top;
position = "{350, 587}";
}
);
paths = (
{
closed = 1;
nodes = (
"442 -9 OFFCURVE",
"520 9 OFFCURVE",
"578 45 CURVE",
"576 93 OFFCURVE",
"575 119 OFFCURVE",
"575 135 CURVE SMOOTH",
"575 165 OFFCURVE",
"574 201 OFFCURVE",
"577 210 CURVE",
"627 227 LINE",
"624 277 LINE",
"369 277 LINE",
"366 225 LINE",
"437 209 LINE",
"439 191 OFFCURVE",
"442 155 OFFCURVE",
"442 128 CURVE SMOOTH",
"442 22 LINE",
"459 76 LINE",
"438 66 OFFCURVE",
"413 60 OFFCURVE",
"396 60 CURVE SMOOTH",
"289 60 OFFCURVE",
"204 154 OFFCURVE",
"204 308 CURVE SMOOTH",
"204 444 OFFCURVE",
"270 529 OFFCURVE",
"386 529 CURVE SMOOTH",
"409 529 OFFCURVE",
"442 525 OFFCURVE",
"472 510 CURVE",
"504 417 LINE",
"567 420 LINE",
"562 562 LINE",
"522 582 OFFCURVE",
"456 596 OFFCURVE",
"397 596 CURVE SMOOTH",
"191 596 OFFCURVE",
"42 478 OFFCURVE",
"42 280 CURVE SMOOTH",
"42 98 OFFCURVE",
"177 -9 OFFCURVE",
"370 -9 CURVE SMOOTH"
);
}
);
};
layerId = "DEDDD934-E4FE-4A27-B966-8C21F8A9BC34";
paths = (
{
closed = 1;
nodes = (
"442 -9 OFFCURVE",
"520 9 OFFCURVE",
"578 45 CURVE",
"576 93 OFFCURVE",
"575 119 OFFCURVE",
"575 135 CURVE SMOOTH",
"575 165 OFFCURVE",
"574 201 OFFCURVE",
"577 210 CURVE",
"627 227 LINE",
"624 277 LINE",
"369 277 LINE",
"366 225 LINE",
"437 209 LINE",
"439 191 OFFCURVE",
"442 155 OFFCURVE",
"442 128 CURVE SMOOTH",
"442 22 LINE",
"459 76 LINE",
"438 66 OFFCURVE",
"413 60 OFFCURVE",
"396 60 CURVE SMOOTH",
"289 60 OFFCURVE",
"204 154 OFFCURVE",
"204 308 CURVE SMOOTH",
"204 444 OFFCURVE",
"270 529 OFFCURVE",
"386 529 CURVE SMOOTH",
"409 529 OFFCURVE",
"442 525 OFFCURVE",
"472 510 CURVE",
"504 417 LINE",
"567 420 LINE",
"562 562 LINE",
"522 582 OFFCURVE",
"456 596 OFFCURVE",
"397 596 CURVE SMOOTH",
"191 596 OFFCURVE",
"42 478 OFFCURVE",
"42 280 CURVE SMOOTH",
"42 98 OFFCURVE",
"177 -9 OFFCURVE",
"370 -9 CURVE SMOOTH"
);
}
);
width = 660;
}
);
note = G;
unicode = 0047;
},
{
color = 4;
glyphname = H;
lastChange = "2018-06-09 19:41:05 +0000";
layers = (
{
anchors = (
{
name = bottom;
position = "{292, 0}";
},
{
name = center;
position = "{384, 434}";
},
{
name = top;
position = "{416, 587}";
},
{
name = topleft;
position = "{105, 587}";
}
);
background = {
paths = (
{
closed = 1;
nodes = (
"581 0 LINE",
"591 38 LINE",
"533 52 LINE",
"529 60 OFFCURVE",
"537 103 OFFCURVE",
"557 199 CURVE SMOOTH",
"597 387 LINE SMOOTH",
"618 485 OFFCURVE",
"629 528 OFFCURVE",
"635 535 CURVE",
"699 549 LINE",
"705 587 LINE",
"488 587 LINE",
"478 549 LINE",
"536 535 LINE",
"540 528 OFFCURVE",
"533 485 OFFCURVE",
"512 387 CURVE SMOOTH",
"472 199 LINE SMOOTH",
"452 103 OFFCURVE",
"440 60 OFFCURVE",
"434 52 CURVE",
"370 38 LINE",
"364 0 LINE"
);
},
{
closed = 1;
nodes = (
"219 0 LINE",
"229 38 LINE",
"171 52 LINE",
"167 60 OFFCURVE",
"175 103 OFFCURVE",
"195 199 CURVE SMOOTH",
"235 387 LINE SMOOTH",
"256 485 OFFCURVE",
"267 528 OFFCURVE",
"273 535 CURVE",
"337 549 LINE",
"343 587 LINE",
"127 587 LINE",
"117 549 LINE",
"175 535 LINE",
"178 527 OFFCURVE",
"169 477 OFFCURVE",
"150 387 CURVE SMOOTH",
"110 199 LINE SMOOTH",
"91 111 OFFCURVE",
"79 61 OFFCURVE",
"73 52 CURVE",
"9 38 LINE",
"3 0 LINE"
);
},
{
closed = 1;
nodes = (
"230 275 OFFCURVE",
"274 276 OFFCURVE",
"350 276 CURVE SMOOTH",
"426 276 OFFCURVE",
"467 275 OFFCURVE",
"497 272 CURVE",
"510 331 LINE",
"484 329 OFFCURVE",
"434 328 OFFCURVE",
"361 328 CURVE SMOOTH",
"288 328 OFFCURVE",
"239 329 OFFCURVE",
"213 331 CURVE",
"200 272 LINE"
);
}
);
};
layerId = "720C727D-0ED9-429E-914E-55EB9E513E33";
paths = (
{
closed = 1;
nodes = (
"230 275 OFFCURVE",
"274 276 OFFCURVE",
"350 276 CURVE SMOOTH",
"426 276 OFFCURVE",
"467 275 OFFCURVE",
"497 272 CURVE",
"510 331 LINE",
"484 329 OFFCURVE",
"434 328 OFFCURVE",
"361 328 CURVE SMOOTH",
"288 328 OFFCURVE",
"239 329 OFFCURVE",
"213 331 CURVE",
"200 272 LINE"
);
},
{
closed = 1;
nodes = (
"216 0 LINE",
"226 38 LINE",
"168 52 LINE",
"169 70 OFFCURVE",
"173 101 OFFCURVE",
"193 197 CURVE SMOOTH",
"233 385 LINE SMOOTH",
"252 473 OFFCURVE",
"265 518 OFFCURVE",
"270 535 CURVE",
"334 549 LINE",
"340 587 LINE",
"128 587 LINE",
"118 549 LINE",
"176 535 LINE",
"175 517 OFFCURVE",
"168 475 OFFCURVE",
"149 385 CURVE SMOOTH",
"109 197 LINE SMOOTH",
"90 109 OFFCURVE",
"81 71 OFFCURVE",
"75 52 CURVE",
"11 38 LINE",
"5 0 LINE"
);
},
{
closed = 1;
nodes = (
"580 0 LINE",
"590 38 LINE",
"532 52 LINE",
"533 70 OFFCURVE",
"537 101 OFFCURVE",
"557 197 CURVE SMOOTH",
"597 385 LINE SMOOTH",
"616 473 OFFCURVE",
"629 518 OFFCURVE",
"634 535 CURVE",
"698 549 LINE",
"704 587 LINE",
"492 587 LINE",
"482 549 LINE",
"540 535 LINE",
"539 517 OFFCURVE",
"532 475 OFFCURVE",
"513 385 CURVE SMOOTH",
"473 197 LINE SMOOTH",
"454 109 OFFCURVE",
"445 71 OFFCURVE",
"439 52 CURVE",
"375 38 LINE",
"369 0 LINE"
);
}
);
width = 673;
},
{
anchors = (
{
name = bottom;
position = "{305, 0}";
},
{
name = center;
position = "{397, 434}";
},
{
name = top;
position = "{429, 587}";
},
{
name = topleft;
position = "{106, 587}";
}
);
background = {
anchors = (
{
name = bottom;
position = "{305, 0}";
},
{
name = center;
position = "{397, 434}";
},
{
name = top;
position = "{429, 587}";
},
{
name = topleft;
position = "{106, 587}";
}
);
paths = (
{
closed = 1;
nodes = (
"621 0 LINE",
"634 50 LINE",
"574 67 LINE",
"572 77 OFFCURVE",
"584 153 OFFCURVE",
"599 221 CURVE SMOOTH",
"629 366 LINE SMOOTH",
"644 436 OFFCURVE",
"664 512 OFFCURVE",
"670 521 CURVE",
"738 537 LINE",
"745 587 LINE",
"473 587 LINE",
"460 537 LINE",
"518 521 LINE",
"520 512 OFFCURVE",
"509 445 OFFCURVE",
"492 366 CURVE SMOOTH",
"462 221 LINE SMOOTH",
"445 144 OFFCURVE",
"428 77 OFFCURVE",
"422 67 CURVE",
"356 50 LINE",
"349 0 LINE"
);
},
{
closed = 1;
nodes = (
"261 0 LINE",
"274 50 LINE",
"216 67 LINE",
"214 77 OFFCURVE",
"225 144 OFFCURVE",
"242 221 CURVE SMOOTH",
"272 366 LINE SMOOTH",
"289 445 OFFCURVE",
"306 512 OFFCURVE",
"312 521 CURVE",
"378 537 LINE",
"385 587 LINE",
"114 587 LINE",
"101 537 LINE",
"161 521 LINE",
"164 514 OFFCURVE",
"153 448 OFFCURVE",
"135 366 CURVE SMOOTH",
"105 221 LINE SMOOTH",
"88 141 OFFCURVE",
"71 75 OFFCURVE",
"65 67 CURVE",
"-3 50 LINE",
"-10 0 LINE"
);
},
{
closed = 1;
nodes = (
"255 262 OFFCURVE",
"295 265 OFFCURVE",
"361 265 CURVE SMOOTH",
"427 265 OFFCURVE",
"465 262 OFFCURVE",
"493 261 CURVE",
"509 338 LINE",
"476 335 OFFCURVE",
"438 334 OFFCURVE",
"376 334 CURVE SMOOTH",
"314 334 OFFCURVE",
"276 335 OFFCURVE",
"243 338 CURVE",
"227 261 LINE"
);
}
);
};
layerId = "DEDDD934-E4FE-4A27-B966-8C21F8A9BC34";
paths = (
{
closed = 1;
nodes = (
"255 262 OFFCURVE",
"295 265 OFFCURVE",
"361 265 CURVE SMOOTH",
"427 265 OFFCURVE",
"465 262 OFFCURVE",
"493 261 CURVE",
"509 338 LINE",
"476 335 OFFCURVE",
"438 334 OFFCURVE",
"376 334 CURVE SMOOTH",
"314 334 OFFCURVE",
"276 335 OFFCURVE",
"243 338 CURVE",
"227 261 LINE"
);
},
{
closed = 1;
nodes = (
"259 0 LINE",
"273 50 LINE",
"213 67 LINE",
"216 90 OFFCURVE",
"225 144 OFFCURVE",
"241 221 CURVE SMOOTH",
"272 368 LINE SMOOTH",
"289 447 OFFCURVE",
"304 502 OFFCURVE",
"310 521 CURVE",
"377 537 LINE",
"385 587 LINE",
"116 587 LINE",
"102 537 LINE",
"163 521 LINE",
"161 500 OFFCURVE",
"152 450 OFFCURVE",
"135 368 CURVE SMOOTH",
"104 221 LINE SMOOTH",
"87 141 OFFCURVE",
"72 85 OFFCURVE",
"66 67 CURVE",
"-2 50 LINE",
"-10 0 LINE"
);
},
{
closed = 1;
nodes = (
"617 0 LINE",
"631 50 LINE",
"571 67 LINE",
"574 90 OFFCURVE",
"583 144 OFFCURVE",
"599 221 CURVE SMOOTH",
"630 368 LINE SMOOTH",
"647 447 OFFCURVE",
"662 502 OFFCURVE",
"668 521 CURVE",
"735 537 LINE",
"743 587 LINE",
"474 587 LINE",
"460 537 LINE",
"521 521 LINE",
"519 500 OFFCURVE",
"510 450 OFFCURVE",
"493 368 CURVE SMOOTH",
"462 221 LINE SMOOTH",
"445 141 OFFCURVE",
"430 85 OFFCURVE",
"424 67 CURVE",
"356 50 LINE",
"348 0 LINE"
);
}
);
width = 702;
}
);
note = H;
unicode = 0048;
},
{
color = 4;
glyphname = I;
lastChange = "2018-06-08 21:27:42 +0000";
layers = (
{
anchors = (
{
name = bottom;
position = "{109, 0}";
},
{
name = ogonek;
position = "{167, 0}";
},
{
name = top;
position = "{234, 587}";
},
{
name = topleft;
position = "{105, 587}";
}
);
background = {
anchors = (
{
name = bottom;
position = "{657, 0}";
},
{
name = ogonek;
position = "{714, 0}";
},
{
name = top;
position = "{657, 587}";
},
{
name = topleft;
position = "{527, 587}";
}
);
paths = (
{
closed = 1;
nodes = (
"765 0 LINE",
"767 38 LINE",
"706 52 LINE",
"701 60 OFFCURVE",
"699 103 OFFCURVE",
"699 199 CURVE SMOOTH",
"699 387 LINE SMOOTH",
"699 485 OFFCURVE",
"701 528 OFFCURVE",
"706 535 CURVE",
"767 549 LINE",
"765 587 LINE",
"549 587 LINE",
"547 549 LINE",
"608 535 LINE",
"612 527 OFFCURVE",
"614 477 OFFCURVE",
"614 387 CURVE SMOOTH",
"614 199 LINE SMOOTH",
"614 111 OFFCURVE",
"612 61 OFFCURVE",
"608 52 CURVE",
"547 38 LINE",
"549 0 LINE"
);
},
{
closed = 1;
nodes = (
"623 0 LINE",
"632 38 LINE",
"574 52 LINE",
"571 60 OFFCURVE",
"578 103 OFFCURVE",
"596 199 CURVE SMOOTH",
"632 387 LINE SMOOTH",
"651 485 OFFCURVE",
"662 528 OFFCURVE",
"668 535 CURVE",
"732 549 LINE",
"737 587 LINE",
"521 587 LINE",
"512 549 LINE",
"570 535 LINE",
"572 527 OFFCURVE",
"564 477 OFFCURVE",
"547 387 CURVE SMOOTH",
"511 199 LINE SMOOTH",
"494 111 OFFCURVE",
"482 61 OFFCURVE",
"476 52 CURVE",
"412 38 LINE",
"407 0 LINE"
);
},
{
closed = 1;
nodes = (
"216 0 LINE",
"226 38 LINE",
"168 52 LINE",
"169 70 OFFCURVE",
"173 101 OFFCURVE",
"193 197 CURVE SMOOTH",
"234 387 LINE SMOOTH",
"252 475 OFFCURVE",
"265 518 OFFCURVE",
"270 535 CURVE",
"334 549 LINE",
"340 587 LINE",
"127 587 LINE",
"117 549 LINE",
"175 535 LINE",
"174 517 OFFCURVE",
"168 477 OFFCURVE",
"149 387 CURVE SMOOTH",
"108 197 LINE SMOOTH",
"90 109 OFFCURVE",
"80 71 OFFCURVE",
"74 52 CURVE",
"10 38 LINE",
"4 0 LINE"
);
}
);
};
layerId = "720C727D-0ED9-429E-914E-55EB9E513E33";
paths = (
{
closed = 1;
nodes = (
"216 0 LINE",
"226 38 LINE",
"168 52 LINE",
"169 70 OFFCURVE",
"173 101 OFFCURVE",
"193 197 CURVE SMOOTH",
"233 385 LINE SMOOTH",
"252 473 OFFCURVE",
"265 518 OFFCURVE",
"270 535 CURVE",
"334 549 LINE",
"340 587 LINE",
"128 587 LINE",
"118 549 LINE",
"176 535 LINE",
"175 517 OFFCURVE",
"168 475 OFFCURVE",
"149 385 CURVE SMOOTH",
"109 197 LINE SMOOTH",
"90 109 OFFCURVE",
"81 71 OFFCURVE",
"75 52 CURVE",
"11 38 LINE",
"5 0 LINE"
);
}
);
width = 310;
},
{
anchors = (
{
name = bottom;
position = "{126, 0}";
},
{
name = ogonek;
position = "{261, 0}";
},
{
name = top;
position = "{249, 587}";
},
{
name = topleft;
position = "{108, 587}";
}
);
background = {
anchors = (
{
name = bottom;
position = "{188, 0}";
},
{
name = ogonek;
position = "{262, 0}";
},
{
name = top;
position = "{188, 587}";
},
{
name = topleft;
position = "{43, 587}";
}
);
paths = (
{
closed = 1;
nodes = (
"324 0 LINE",
"327 50 LINE",
"263 67 LINE",
"259 77 OFFCURVE",
"256 144 OFFCURVE",
"256 221 CURVE SMOOTH",
"256 366 LINE SMOOTH",
"256 445 OFFCURVE",
"259 512 OFFCURVE",
"263 521 CURVE",
"327 537 LINE",
"324 587 LINE",
"51 587 LINE",
"48 537 LINE",
"112 521 LINE",
"116 514 OFFCURVE",
"119 448 OFFCURVE",
"119 366 CURVE SMOOTH",
"119 221 LINE SMOOTH",
"119 141 OFFCURVE",
"116 75 OFFCURVE",
"112 67 CURVE",
"48 50 LINE",
"51 0 LINE"
);
}
);
};
layerId = "DEDDD934-E4FE-4A27-B966-8C21F8A9BC34";
paths = (
{
closed = 1;
nodes = (
"259 0 LINE",
"273 50 LINE",
"213 67 LINE",
"216 90 OFFCURVE",
"225 144 OFFCURVE",
"241 221 CURVE SMOOTH",
"272 368 LINE SMOOTH",
"289 447 OFFCURVE",
"304 502 OFFCURVE",
"310 521 CURVE",
"377 537 LINE",
"385 587 LINE",
"116 587 LINE",
"102 537 LINE",
"163 521 LINE",
"161 500 OFFCURVE",
"152 450 OFFCURVE",
"135 368 CURVE SMOOTH",
"104 221 LINE SMOOTH",
"87 141 OFFCURVE",
"72 85 OFFCURVE",
"66 67 CURVE",
"-2 50 LINE",
"-10 0 LINE"
);
}
);
width = 345;
}
);
note = I;
unicode = 0049;
},
{
color = 9;
glyphname = Iogonek;
lastChange = "2018-06-05 14:05:21 +0000";
layers = (
{
anchors = (
{
name = top;
position = "{156, 587}";
},
{
name = topleft;
position = "{26, 587}";
}
);
background = {
anchors = (
{
name = top;
position = "{156, 587}";
},
{
name = topleft;
position = "{26, 587}";
}
);
paths = (
{
closed = 1;
nodes = (
"198 387 LINE SMOOTH",
"198 483 OFFCURVE",
"200 527 OFFCURVE",
"205 534 CURVE",
"266 549 LINE",
"264 587 LINE",
"48 587 LINE",
"46 549 LINE",
"107 534 LINE",
"111 526 OFFCURVE",
"113 476 OFFCURVE",
"113 387 CURVE SMOOTH",
"113 199 LINE SMOOTH",
"113 111 OFFCURVE",
"111 61 OFFCURVE",
"107 52 CURVE",
"46 38 LINE",
"48 0 LINE",
"194 0 LINE",
"190 11 LINE",
"101 -6 OFFCURVE",
"44 -59 OFFCURVE",
"44 -125 CURVE SMOOTH",
"44 -181 OFFCURVE",
"93 -223 OFFCURVE",
"159 -223 CURVE SMOOTH",
"197 -223 OFFCURVE",
"233 -205 OFFCURVE",
"259 -173 CURVE",
"235 -147 LINE",
"213 -170 OFFCURVE",
"193 -181 OFFCURVE",
"171 -181 CURVE SMOOTH",
"134 -181 OFFCURVE",
"114 -157 OFFCURVE",
"114 -115 CURVE SMOOTH",
"114 -51 OFFCURVE",
"181 0 OFFCURVE",
"264 0 CURVE",
"266 38 LINE",
"205 52 LINE",
"200 60 OFFCURVE",
"198 105 OFFCURVE",
"198 199 CURVE SMOOTH"
);
}
);
};
layerId = "720C727D-0ED9-429E-914E-55EB9E513E33";
paths = (
{
closed = 1;
nodes = (
"198 387 LINE SMOOTH",
"198 483 OFFCURVE",
"200 527 OFFCURVE",
"205 534 CURVE",
"266 549 LINE",
"264 587 LINE",
"48 587 LINE",
"46 549 LINE",
"107 534 LINE",
"111 526 OFFCURVE",
"113 476 OFFCURVE",
"113 387 CURVE SMOOTH",
"113 199 LINE SMOOTH",
"113 111 OFFCURVE",
"111 61 OFFCURVE",
"107 52 CURVE",
"46 38 LINE",
"48 0 LINE",
"194 0 LINE",
"190 11 LINE",
"101 -6 OFFCURVE",
"44 -59 OFFCURVE",
"44 -125 CURVE SMOOTH",
"44 -181 OFFCURVE",
"93 -223 OFFCURVE",
"159 -223 CURVE SMOOTH",
"197 -223 OFFCURVE",
"233 -205 OFFCURVE",
"259 -173 CURVE",
"235 -147 LINE",
"213 -170 OFFCURVE",
"193 -181 OFFCURVE",
"171 -181 CURVE SMOOTH",
"134 -181 OFFCURVE",
"114 -157 OFFCURVE",
"114 -115 CURVE SMOOTH",
"114 -51 OFFCURVE",
"181 0 OFFCURVE",
"264 0 CURVE",
"266 38 LINE",
"205 52 LINE",
"200 60 OFFCURVE",
"198 105 OFFCURVE",
"198 199 CURVE SMOOTH"
);
}
);
width = 311;
},
{
anchors = (
{
name = top;
position = "{173, 587}";
},
{
name = topleft;
position = "{28, 587}";
}
);
background = {
anchors = (
{
name = top;
position = "{173, 587}";
},
{
name = topleft;
position = "{28, 587}";
}
);
paths = (
{
closed = 1;
nodes = (
"241 366 LINE SMOOTH",
"241 442 OFFCURVE",
"244 511 OFFCURVE",
"248 520 CURVE",
"312 537 LINE",
"309 587 LINE",
"36 587 LINE",
"33 537 LINE",
"97 520 LINE",
"101 513 OFFCURVE",
"104 448 OFFCURVE",
"104 366 CURVE SMOOTH",
"104 221 LINE SMOOTH",
"104 140 OFFCURVE",
"101 75 OFFCURVE",
"97 67 CURVE",
"33 50 LINE",
"36 0 LINE",
"211 0 LINE",
"217 14 LINE",
"108 -9 OFFCURVE",
"45 -59 OFFCURVE",
"45 -122 CURVE SMOOTH",
"45 -181 OFFCURVE",
"100 -223 OFFCURVE",
"175 -223 CURVE SMOOTH",
"221 -223 OFFCURVE",
"260 -206 OFFCURVE",
"290 -173 CURVE",
"262 -134 LINE",
"241 -156 OFFCURVE",
"218 -168 OFFCURVE",
"196 -168 CURVE SMOOTH",
"163 -168 OFFCURVE",
"142 -145 OFFCURVE",
"142 -109 CURVE SMOOTH",
"142 -51 OFFCURVE",
"220 0 OFFCURVE",
"309 0 CURVE",
"312 50 LINE",
"248 67 LINE",
"244 77 OFFCURVE",
"241 147 OFFCURVE",
"241 221 CURVE SMOOTH"
);
}
);
};
layerId = "DEDDD934-E4FE-4A27-B966-8C21F8A9BC34";
paths = (
{
closed = 1;
nodes = (
"241 366 LINE SMOOTH",
"241 442 OFFCURVE",
"244 511 OFFCURVE",
"248 520 CURVE",
"312 537 LINE",
"309 587 LINE",
"36 587 LINE",
"33 537 LINE",
"97 520 LINE",
"101 513 OFFCURVE",
"104 448 OFFCURVE",
"104 366 CURVE SMOOTH",
"104 221 LINE SMOOTH",
"104 140 OFFCURVE",
"101 75 OFFCURVE",
"97 67 CURVE",
"33 50 LINE",
"36 0 LINE",
"211 0 LINE",
"217 14 LINE",
"108 -9 OFFCURVE",
"45 -59 OFFCURVE",
"45 -122 CURVE SMOOTH",
"45 -181 OFFCURVE",
"100 -223 OFFCURVE",
"175 -223 CURVE SMOOTH",
"221 -223 OFFCURVE",
"260 -206 OFFCURVE",
"290 -173 CURVE",
"262 -134 LINE",
"241 -156 OFFCURVE",
"218 -168 OFFCURVE",
"196 -168 CURVE SMOOTH",
"163 -168 OFFCURVE",
"142 -145 OFFCURVE",
"142 -109 CURVE SMOOTH",
"142 -51 OFFCURVE",
"220 0 OFFCURVE",
"309 0 CURVE",
"312 50 LINE",
"248 67 LINE",
"244 77 OFFCURVE",
"241 147 OFFCURVE",
"241 221 CURVE SMOOTH"
);
}
);
width = 345;
}
);
note = Iogonek;
unicode = 012E;
},
{
color = 9;
glyphname = J;
lastChange = "2018-06-05 14:05:21 +0000";
layers = (
{
anchors = (
{
name = top;
position = "{159, 587}";
}
);
background = {
anchors = (
{
name = top;
position = "{159, 587}";
}
);
paths = (
{
closed = 1;
nodes = (
"269 549 LINE",
"267 587 LINE",
"44 587 LINE",
"42 549 LINE",
"110 534 LINE",
"114 523 OFFCURVE",
"116 474 OFFCURVE",
"116 387 CURVE",
"115 -27 LINE",
"115 -131 OFFCURVE",
"91 -171 OFFCURVE",
"35 -161 CURVE",
"70 -173 LINE",
"18 -121 LINE SMOOTH",
"0 -103 OFFCURVE",
"-16 -95 OFFCURVE",
"-34 -95 CURVE SMOOTH",
"-58 -95 OFFCURVE",
"-73 -110 OFFCURVE",
"-73 -132 CURVE SMOOTH",
"-73 -170 OFFCURVE",
"-21 -203 OFFCURVE",
"40 -203 CURVE SMOOTH",
"140 -203 OFFCURVE",
"202 -119 OFFCURVE",
"202 16 CURVE",
"201 387 LINE",
"201 483 OFFCURVE",
"203 527 OFFCURVE",
"208 534 CURVE"
);
}
);
};
layerId = "720C727D-0ED9-429E-914E-55EB9E513E33";
paths = (
{
closed = 1;
nodes = (
"269 549 LINE",
"267 587 LINE",
"44 587 LINE",
"42 549 LINE",
"110 534 LINE",
"114 523 OFFCURVE",
"116 474 OFFCURVE",
"116 387 CURVE",
"115 -27 LINE",
"115 -131 OFFCURVE",
"91 -171 OFFCURVE",
"35 -161 CURVE",
"70 -173 LINE",
"18 -121 LINE SMOOTH",
"0 -103 OFFCURVE",
"-16 -95 OFFCURVE",
"-34 -95 CURVE SMOOTH",
"-58 -95 OFFCURVE",
"-73 -110 OFFCURVE",
"-73 -132 CURVE SMOOTH",
"-73 -170 OFFCURVE",
"-21 -203 OFFCURVE",
"40 -203 CURVE SMOOTH",
"140 -203 OFFCURVE",
"202 -119 OFFCURVE",
"202 16 CURVE",
"201 387 LINE",
"201 483 OFFCURVE",
"203 527 OFFCURVE",
"208 534 CURVE"
);
}
);
width = 311;
},
{
anchors = (
{
name = top;
position = "{173, 587}";
}
);
background = {
anchors = (
{
name = top;
position = "{173, 587}";
}
);
paths = (
{
closed = 1;
nodes = (
"312 537 LINE",
"309 587 LINE",
"29 587 LINE",
"26 537 LINE",
"97 522 LINE",
"101 511 OFFCURVE",
"104 443 OFFCURVE",
"104 370 CURVE",
"105 -21 LINE",
"105 -133 OFFCURVE",
"95 -155 OFFCURVE",
"47 -147 CURVE",
"104 -167 LINE",
"32 -100 LINE SMOOTH",
"7 -76 OFFCURVE",
"-13 -66 OFFCURVE",
"-38 -66 CURVE SMOOTH",
"-68 -66 OFFCURVE",
"-88 -87 OFFCURVE",
"-88 -119 CURVE SMOOTH",
"-88 -168 OFFCURVE",
"-29 -203 OFFCURVE",
"54 -203 CURVE SMOOTH",
"168 -203 OFFCURVE",
"243 -122 OFFCURVE",
"243 3 CURVE",
"241 368 LINE",
"241 449 OFFCURVE",
"244 513 OFFCURVE",
"248 521 CURVE"
);
}
);
};
layerId = "DEDDD934-E4FE-4A27-B966-8C21F8A9BC34";
paths = (
{
closed = 1;
nodes = (
"312 537 LINE",
"309 587 LINE",
"29 587 LINE",
"26 537 LINE",
"97 522 LINE",
"101 511 OFFCURVE",
"104 443 OFFCURVE",
"104 370 CURVE",
"105 -21 LINE",
"105 -133 OFFCURVE",
"95 -155 OFFCURVE",
"47 -147 CURVE",
"104 -167 LINE",
"32 -100 LINE SMOOTH",
"7 -76 OFFCURVE",
"-13 -66 OFFCURVE",
"-38 -66 CURVE SMOOTH",
"-68 -66 OFFCURVE",
"-88 -87 OFFCURVE",
"-88 -119 CURVE SMOOTH",
"-88 -168 OFFCURVE",
"-29 -203 OFFCURVE",
"54 -203 CURVE SMOOTH",
"168 -203 OFFCURVE",
"243 -122 OFFCURVE",
"243 3 CURVE",
"241 368 LINE",
"241 449 OFFCURVE",
"244 513 OFFCURVE",
"248 521 CURVE"
);
}
);
width = 345;
}
);
note = J;
unicode = 004A;
},
{
color = 9;
glyphname = K;
lastChange = "2018-06-05 14:05:21 +0000";
layers = (
{
anchors = (
{
name = bottom;
position = "{316, 0}";
},
{
name = top;
position = "{316, 587}";
}
);
background = {
anchors = (
{
name = bottom;
position = "{316, 0}";
},
{
name = top;
position = "{316, 587}";
}
);
paths = (
{
closed = 1;
nodes = (
"597 0 LINE",
"597 39 LINE",
"547 51 LINE",
"532 64 OFFCURVE",
"511 89 OFFCURVE",
"478 126 CURVE SMOOTH",
"287 339 LINE",
"284 309 LINE",
"525 537 LINE",
"583 547 LINE",
"581 587 LINE",
"388 587 LINE",
"386 549 LINE",
"447 536 LINE",
"241 323 LINE",
"188 309 LINE",
"188 272 LINE",
"229 272 LINE",
"382 98 LINE SMOOTH",
"399 79 OFFCURVE",
"412 62 OFFCURVE",
"422 48 CURVE",
"361 38 LINE",
"363 0 LINE"
);
},
{
closed = 1;
nodes = (
"264 0 LINE",
"266 38 LINE",
"205 52 LINE",
"202 61 OFFCURVE",
"200 111 OFFCURVE",
"200 199 CURVE SMOOTH",
"200 387 LINE SMOOTH",
"200 483 OFFCURVE",
"202 528 OFFCURVE",
"207 535 CURVE",
"268 549 LINE",
"266 587 LINE",
"49 587 LINE",
"47 549 LINE",
"108 535 LINE",
"112 527 OFFCURVE",
"114 477 OFFCURVE",
"114 387 CURVE SMOOTH",
"114 199 LINE SMOOTH",
"114 111 OFFCURVE",
"112 61 OFFCURVE",
"108 52 CURVE",
"47 38 LINE",
"49 0 LINE"
);
}
);
};
layerId = "720C727D-0ED9-429E-914E-55EB9E513E33";
paths = (
{
closed = 1;
nodes = (
"597 0 LINE",
"597 39 LINE",
"547 51 LINE",
"532 64 OFFCURVE",
"511 89 OFFCURVE",
"478 126 CURVE SMOOTH",
"287 339 LINE",
"284 309 LINE",
"525 537 LINE",
"583 547 LINE",
"581 587 LINE",
"388 587 LINE",
"386 549 LINE",
"447 536 LINE",
"241 323 LINE",
"188 309 LINE",
"188 272 LINE",
"229 272 LINE",
"382 98 LINE SMOOTH",
"399 79 OFFCURVE",
"412 62 OFFCURVE",
"422 48 CURVE",
"361 38 LINE",
"363 0 LINE"
);
},
{
closed = 1;
nodes = (
"264 0 LINE",
"266 38 LINE",
"205 52 LINE",
"202 61 OFFCURVE",
"200 111 OFFCURVE",
"200 199 CURVE SMOOTH",
"200 387 LINE SMOOTH",
"200 483 OFFCURVE",
"202 528 OFFCURVE",
"207 535 CURVE",
"268 549 LINE",
"266 587 LINE",
"49 587 LINE",
"47 549 LINE",
"108 535 LINE",
"112 527 OFFCURVE",
"114 477 OFFCURVE",
"114 387 CURVE SMOOTH",
"114 199 LINE SMOOTH",
"114 111 OFFCURVE",
"112 61 OFFCURVE",
"108 52 CURVE",
"47 38 LINE",
"49 0 LINE"
);
}
);
width = 591;
},
{
anchors = (
{
name = bottom;
position = "{332, 0}";
},
{
name = top;
position = "{332, 587}";
}
);
background = {
anchors = (
{
name = bottom;
position = "{332, 0}";
},
{
name = top;
position = "{332, 587}";
}
);
paths = (
{
closed = 1;
nodes = (
"671 0 LINE",
"671 51 LINE",
"619 59 LINE",
"609 69 OFFCURVE",
"593 85 OFFCURVE",
"546 142 CURVE SMOOTH",
"353 373 LINE",
"357 329 LINE",
"575 524 LINE",
"643 535 LINE",
"640 587 LINE",
"411 587 LINE",
"408 537 LINE",
"472 525 LINE",
"266 314 LINE",
"225 305 LINE",
"225 258 LINE",
"263 258 LINE",
"385 109 LINE SMOOTH",
"404 85 OFFCURVE",
"411 75 OFFCURVE",
"419 60 CURVE",
"367 50 LINE",
"370 0 LINE"
);
},
{
closed = 1;
nodes = (
"296 0 LINE",
"299 50 LINE",
"247 67 LINE",
"244 75 OFFCURVE",
"242 137 OFFCURVE",
"242 221 CURVE SMOOTH",
"242 366 LINE SMOOTH",
"242 445 OFFCURVE",
"245 511 OFFCURVE",
"249 520 CURVE",
"313 537 LINE",
"310 587 LINE",
"37 587 LINE",
"34 537 LINE",
"98 520 LINE",
"102 513 OFFCURVE",
"105 448 OFFCURVE",
"105 366 CURVE SMOOTH",
"105 221 LINE SMOOTH",
"105 137 OFFCURVE",
"103 75 OFFCURVE",
"100 67 CURVE",
"36 50 LINE",
"39 0 LINE"
);
}
);
};
layerId = "DEDDD934-E4FE-4A27-B966-8C21F8A9BC34";
paths = (
{
closed = 1;
nodes = (
"671 0 LINE",
"671 51 LINE",
"619 59 LINE",
"609 69 OFFCURVE",
"593 85 OFFCURVE",
"546 142 CURVE SMOOTH",
"353 373 LINE",
"357 329 LINE",
"575 524 LINE",
"643 535 LINE",
"640 587 LINE",
"411 587 LINE",
"408 537 LINE",
"472 525 LINE",
"266 314 LINE",
"225 305 LINE",
"225 258 LINE",
"263 258 LINE",
"385 109 LINE SMOOTH",
"404 85 OFFCURVE",
"411 75 OFFCURVE",
"419 60 CURVE",
"367 50 LINE",
"370 0 LINE"
);
},
{
closed = 1;
nodes = (
"296 0 LINE",
"299 50 LINE",
"247 67 LINE",
"244 75 OFFCURVE",
"242 137 OFFCURVE",
"242 221 CURVE SMOOTH",
"242 366 LINE SMOOTH",
"242 445 OFFCURVE",
"245 511 OFFCURVE",
"249 520 CURVE",
"313 537 LINE",
"310 587 LINE",
"37 587 LINE",
"34 537 LINE",
"98 520 LINE",
"102 513 OFFCURVE",
"105 448 OFFCURVE",
"105 366 CURVE SMOOTH",
"105 221 LINE SMOOTH",
"105 137 OFFCURVE",
"103 75 OFFCURVE",
"100 67 CURVE",
"36 50 LINE",
"39 0 LINE"
);
}
);
width = 657;
}
);
note = K;
unicode = 004B;
},
{
color = 9;
glyphname = L;
lastChange = "2018-06-05 14:05:21 +0000";
layers = (
{
anchors = (
{
name = bottom;
position = "{281, 0}";
},
{
name = center;
position = "{194, 303}";
},
{
name = dotacc;
position = "{348, 320}";
},
{
name = top;
position = "{158, 587}";
},
{
name = topright;
position = "{367, 587}";
}
);
background = {
anchors = (
{
name = bottom;
position = "{281, 0}";
},
{
name = center;
position = "{194, 303}";
},
{
name = dotacc;
position = "{348, 320}";
},
{
name = top;
position = "{158, 587}";
},
{
name = topright;
position = "{367, 587}";
}
);
paths = (
{
closed = 1;
nodes = (
"510 148 LINE",
"465 158 LINE",
"446 116 OFFCURVE",
"430 88 OFFCURVE",
"413 60 CURVE",
"392 57 OFFCURVE",
"377 56 OFFCURVE",
"341 56 CURVE SMOOTH",
"267 56 LINE SMOOTH",
"241 56 OFFCURVE",
"222 57 OFFCURVE",
"204 59 CURVE",
"202 73 OFFCURVE",
"201 130 OFFCURVE",
"201 199 CURVE SMOOTH",
"201 387 LINE SMOOTH",
"201 483 OFFCURVE",
"203 527 OFFCURVE",
"208 534 CURVE",
"291 547 LINE",
"289 587 LINE",
"50 587 LINE",
"48 549 LINE",
"109 534 LINE",
"113 526 OFFCURVE",
"115 476 OFFCURVE",
"115 387 CURVE SMOOTH",
"115 199 LINE SMOOTH",
"115 111 OFFCURVE",
"113 61 OFFCURVE",
"109 52 CURVE",
"48 38 LINE",
"50 0 LINE",
"372 0 LINE",
"399 0 OFFCURVE",
"431 -2 OFFCURVE",
"469 -5 CURVE"
);
}
);
};
layerId = "720C727D-0ED9-429E-914E-55EB9E513E33";
paths = (
{
closed = 1;
nodes = (
"510 148 LINE",
"465 158 LINE",
"446 116 OFFCURVE",
"430 88 OFFCURVE",
"413 60 CURVE",
"392 57 OFFCURVE",
"377 56 OFFCURVE",
"341 56 CURVE SMOOTH",
"267 56 LINE SMOOTH",
"241 56 OFFCURVE",
"222 57 OFFCURVE",
"204 59 CURVE",
"202 73 OFFCURVE",
"201 130 OFFCURVE",
"201 199 CURVE SMOOTH",
"201 387 LINE SMOOTH",
"201 483 OFFCURVE",
"203 527 OFFCURVE",
"208 534 CURVE",
"291 547 LINE",
"289 587 LINE",
"50 587 LINE",
"48 549 LINE",
"109 534 LINE",
"113 526 OFFCURVE",
"115 476 OFFCURVE",
"115 387 CURVE SMOOTH",
"115 199 LINE SMOOTH",
"115 111 OFFCURVE",
"113 61 OFFCURVE",
"109 52 CURVE",
"48 38 LINE",
"50 0 LINE",
"372 0 LINE",
"399 0 OFFCURVE",
"431 -2 OFFCURVE",
"469 -5 CURVE"
);
}
);
width = 513;
},
{
anchors = (
{
name = bottom;
position = "{298, 0}";
},
{
name = center;
position = "{202, 303}";
},
{
name = dotacc;
position = "{388, 320}";
},
{
name = top;
position = "{173, 587}";
},
{
name = topright;
position = "{382, 587}";
}
);
background = {
anchors = (
{
name = bottom;
position = "{298, 0}";
},
{
name = center;
position = "{202, 303}";
},
{
name = dotacc;
position = "{388, 320}";
},
{
name = top;
position = "{173, 587}";
},
{
name = topright;
position = "{382, 587}";
}
);
paths = (
{
closed = 1;
nodes = (
"548 174 LINE",
"486 189 LINE",
"465 148 OFFCURVE",
"449 110 OFFCURVE",
"430 80 CURVE",
"416 77 OFFCURVE",
"409 74 OFFCURVE",
"359 74 CURVE SMOOTH",
"332 74 LINE SMOOTH",
"292 74 OFFCURVE",
"270 75 OFFCURVE",
"247 78 CURVE",
"244 96 OFFCURVE",
"243 142 OFFCURVE",
"243 221 CURVE SMOOTH",
"243 366 LINE SMOOTH",
"243 448 OFFCURVE",
"246 512 OFFCURVE",
"250 519 CURVE",
"338 535 LINE",
"335 587 LINE",
"37 587 LINE",
"34 537 LINE",
"98 520 LINE",
"102 511 OFFCURVE",
"105 442 OFFCURVE",
"105 366 CURVE SMOOTH",
"105 221 LINE SMOOTH",
"105 147 OFFCURVE",
"102 77 OFFCURVE",
"98 67 CURVE",
"34 50 LINE",
"37 0 LINE",
"340 0 LINE",
"373 0 OFFCURVE",
"452 -3 OFFCURVE",
"499 -7 CURVE"
);
}
);
};
layerId = "DEDDD934-E4FE-4A27-B966-8C21F8A9BC34";
paths = (
{
closed = 1;
nodes = (
"548 174 LINE",
"486 189 LINE",
"465 148 OFFCURVE",
"449 110 OFFCURVE",
"430 80 CURVE",
"416 77 OFFCURVE",
"409 74 OFFCURVE",
"359 74 CURVE SMOOTH",
"332 74 LINE SMOOTH",
"292 74 OFFCURVE",
"270 75 OFFCURVE",
"247 78 CURVE",
"244 96 OFFCURVE",
"243 142 OFFCURVE",
"243 221 CURVE SMOOTH",
"243 366 LINE SMOOTH",
"243 448 OFFCURVE",
"246 512 OFFCURVE",
"250 519 CURVE",
"338 535 LINE",
"335 587 LINE",
"37 587 LINE",
"34 537 LINE",
"98 520 LINE",
"102 511 OFFCURVE",
"105 442 OFFCURVE",
"105 366 CURVE SMOOTH",
"105 221 LINE SMOOTH",
"105 147 OFFCURVE",
"102 77 OFFCURVE",
"98 67 CURVE",
"34 50 LINE",
"37 0 LINE",
"340 0 LINE",
"373 0 OFFCURVE",
"452 -3 OFFCURVE",
"499 -7 CURVE"
);
}
);
width = 551;
}
);
note = L;
unicode = 004C;
},
{
color = 9;
glyphname = M;
lastChange = "2018-06-05 14:05:21 +0000";
layers = (
{
anchors = (
{
name = bottom;
position = "{413, 0}";
},
{
name = top;
position = "{413, 587}";
}
);
background = {
anchors = (
{
name = bottom;
position = "{413, 0}";
},
{
name = top;
position = "{413, 587}";
}
);
paths = (
{
closed = 1;
nodes = (
"54 549 LINE",
"115 535 LINE",
"116 507 OFFCURVE",
"117 456 OFFCURVE",
"116 401 CURVE SMOOTH",
"113 203 LINE SMOOTH",
"112 116 OFFCURVE",
"110 66 OFFCURVE",
"108 52 CURVE",
"40 38 LINE",
"42 0 LINE",
"241 0 LINE",
"243 38 LINE",
"175 52 LINE",
"173 64 OFFCURVE",
"172 108 OFFCURVE",
"172 219 CURVE SMOOTH",
"171 558 LINE",
"147 558 LINE",
"393 -3 LINE",
"428 -3 LINE",
"670 558 LINE",
"644 558 LINE",
"647 203 LINE SMOOTH",
"648 91 OFFCURVE",
"648 63 OFFCURVE",
"646 51 CURVE",
"585 38 LINE",
"587 0 LINE",
"801 0 LINE",
"803 38 LINE",
"742 51 LINE",
"739 71 OFFCURVE",
"740 118 OFFCURVE",
"737 218 CURVE SMOOTH",
"731 401 LINE SMOOTH",
"729 462 OFFCURVE",
"729 522 OFFCURVE",
"731 536 CURVE",
"792 549 LINE",
"790 587 LINE",
"628 587 LINE",
"421 109 LINE",
"439 109 LINE",
"230 587 LINE",
"56 587 LINE"
);
}
);
};
layerId = "720C727D-0ED9-429E-914E-55EB9E513E33";
paths = (
{
closed = 1;
nodes = (
"54 549 LINE",
"115 535 LINE",
"116 507 OFFCURVE",
"117 456 OFFCURVE",
"116 401 CURVE SMOOTH",
"113 203 LINE SMOOTH",
"112 116 OFFCURVE",
"110 66 OFFCURVE",
"108 52 CURVE",
"40 38 LINE",
"42 0 LINE",
"241 0 LINE",
"243 38 LINE",
"175 52 LINE",
"173 64 OFFCURVE",
"172 108 OFFCURVE",
"172 219 CURVE SMOOTH",
"171 558 LINE",
"147 558 LINE",
"393 -3 LINE",
"428 -3 LINE",
"670 558 LINE",
"644 558 LINE",
"647 203 LINE SMOOTH",
"648 91 OFFCURVE",
"648 63 OFFCURVE",
"646 51 CURVE",
"585 38 LINE",
"587 0 LINE",
"801 0 LINE",
"803 38 LINE",
"742 51 LINE",
"739 71 OFFCURVE",
"740 118 OFFCURVE",
"737 218 CURVE SMOOTH",
"731 401 LINE SMOOTH",
"729 462 OFFCURVE",
"729 522 OFFCURVE",
"731 536 CURVE",
"792 549 LINE",
"790 587 LINE",
"628 587 LINE",
"421 109 LINE",
"439 109 LINE",
"230 587 LINE",
"56 587 LINE"
);
}
);
width = 851;
},
{
anchors = (
{
name = bottom;
position = "{416, 0}";
},
{
name = top;
position = "{416, 587}";
}
);
background = {
anchors = (
{
name = bottom;
position = "{416, 0}";
},
{
name = top;
position = "{416, 587}";
}
);
paths = (
{
closed = 1;
nodes = (
"42 537 LINE",
"106 520 LINE",
"106 513 OFFCURVE",
"107 486 OFFCURVE",
"106 394 CURVE SMOOTH",
"104 203 LINE SMOOTH",
"103 144 OFFCURVE",
"100 78 OFFCURVE",
"98 67 CURVE",
"28 50 LINE",
"31 0 LINE",
"252 0 LINE",
"255 50 LINE",
"185 67 LINE",
"183 74 OFFCURVE",
"182 112 OFFCURVE",
"182 213 CURVE SMOOTH",
"181 558 LINE",
"117 558 LINE",
"385 -3 LINE",
"449 -3 LINE",
"687 558 LINE",
"640 558 LINE",
"644 221 LINE SMOOTH",
"645 132 OFFCURVE",
"644 75 OFFCURVE",
"641 67 CURVE",
"577 50 LINE",
"580 0 LINE",
"856 0 LINE",
"859 50 LINE",
"795 67 LINE",
"793 75 OFFCURVE",
"789 138 OFFCURVE",
"785 221 CURVE SMOOTH",
"778 396 LINE SMOOTH",
"775 479 OFFCURVE",
"775 511 OFFCURVE",
"777 521 CURVE",
"841 537 LINE",
"839 587 LINE",
"625 587 LINE",
"436 145 LINE",
"466 145 LINE",
"257 587 LINE",
"45 587 LINE"
);
}
);
};
layerId = "DEDDD934-E4FE-4A27-B966-8C21F8A9BC34";
paths = (
{
closed = 1;
nodes = (
"42 537 LINE",
"106 520 LINE",
"106 513 OFFCURVE",
"107 486 OFFCURVE",
"106 394 CURVE SMOOTH",
"104 203 LINE SMOOTH",
"103 144 OFFCURVE",
"100 78 OFFCURVE",
"98 67 CURVE",
"28 50 LINE",
"31 0 LINE",
"252 0 LINE",
"255 50 LINE",
"185 67 LINE",
"183 74 OFFCURVE",
"182 112 OFFCURVE",
"182 213 CURVE SMOOTH",
"181 558 LINE",
"117 558 LINE",
"385 -3 LINE",
"449 -3 LINE",
"687 558 LINE",
"640 558 LINE",
"644 221 LINE SMOOTH",
"645 132 OFFCURVE",
"644 75 OFFCURVE",
"641 67 CURVE",
"577 50 LINE",
"580 0 LINE",
"856 0 LINE",
"859 50 LINE",
"795 67 LINE",
"793 75 OFFCURVE",
"789 138 OFFCURVE",
"785 221 CURVE SMOOTH",
"778 396 LINE SMOOTH",
"775 479 OFFCURVE",
"775 511 OFFCURVE",
"777 521 CURVE",
"841 537 LINE",
"839 587 LINE",
"625 587 LINE",
"436 145 LINE",
"466 145 LINE",
"257 587 LINE",
"45 587 LINE"
);
}
);
width = 890;
}
);
note = M;
unicode = 004D;
},
{
color = 9;
glyphname = N;
lastChange = "2018-06-05 14:05:21 +0000";
layers = (
{
anchors = (
{
name = bottom;
position = "{338, 0}";
},
{
name = top;
position = "{338, 587}";
}
);
background = {
anchors = (
{
name = bottom;
position = "{338, 0}";
},
{
name = top;
position = "{338, 587}";
}
);
paths = (
{
closed = 1;
nodes = (
"524 146 LINE",
"187 587 LINE",
"48 587 LINE",
"46 549 LINE",
"107 535 LINE",
"111 523 OFFCURVE",
"114 496 OFFCURVE",
"114 394 CURVE SMOOTH",
"114 223 LINE SMOOTH",
"114 103 OFFCURVE",
"110 59 OFFCURVE",
"107 52 CURVE",
"46 38 LINE",
"48 0 LINE",
"245 0 LINE",
"247 38 LINE",
"179 52 LINE",
"175 59 OFFCURVE",
"171 103 OFFCURVE",
"171 223 CURVE SMOOTH",
"171 488 LINE",
"149 488 LINE",
"518 -4 LINE",
"562 -4 LINE",
"562 43 OFFCURVE",
"561 87 OFFCURVE",
"561 129 CURVE SMOOTH",
"561 367 LINE SMOOTH",
"561 484 OFFCURVE",
"565 529 OFFCURVE",
"568 535 CURVE",
"629 549 LINE",
"627 587 LINE",
"433 587 LINE",
"431 549 LINE",
"499 535 LINE",
"502 529 OFFCURVE",
"506 484 OFFCURVE",
"506 367 CURVE SMOOTH",
"506 146 LINE"
);
}
);
};
layerId = "720C727D-0ED9-429E-914E-55EB9E513E33";
paths = (
{
closed = 1;
nodes = (
"524 146 LINE",
"187 587 LINE",
"48 587 LINE",
"46 549 LINE",
"107 535 LINE",
"111 523 OFFCURVE",
"114 496 OFFCURVE",
"114 394 CURVE SMOOTH",
"114 223 LINE SMOOTH",
"114 103 OFFCURVE",
"110 59 OFFCURVE",
"107 52 CURVE",
"46 38 LINE",
"48 0 LINE",
"245 0 LINE",
"247 38 LINE",
"179 52 LINE",
"175 59 OFFCURVE",
"171 103 OFFCURVE",
"171 223 CURVE SMOOTH",
"171 488 LINE",
"149 488 LINE",
"518 -4 LINE",
"562 -4 LINE",
"562 43 OFFCURVE",
"561 87 OFFCURVE",
"561 129 CURVE SMOOTH",
"561 367 LINE SMOOTH",
"561 484 OFFCURVE",
"565 529 OFFCURVE",
"568 535 CURVE",
"629 549 LINE",
"627 587 LINE",
"433 587 LINE",
"431 549 LINE",
"499 535 LINE",
"502 529 OFFCURVE",
"506 484 OFFCURVE",
"506 367 CURVE SMOOTH",
"506 146 LINE"
);
}
);
width = 675;
},
{
anchors = (
{
name = bottom;
position = "{348, 0}";
},
{
name = top;
position = "{348, 587}";
}
);
background = {
anchors = (
{
name = bottom;
position = "{348, 0}";
},
{
name = top;
position = "{348, 587}";
}
);
paths = (
{
closed = 1;
nodes = (
"560 187 LINE",
"197 587 LINE",
"37 587 LINE",
"34 537 LINE",
"98 520 LINE",
"101 517 OFFCURVE",
"105 446 OFFCURVE",
"105 394 CURVE SMOOTH",
"105 263 LINE SMOOTH",
"105 162 OFFCURVE",
"102 78 OFFCURVE",
"98 67 CURVE",
"34 50 LINE",
"37 0 LINE",
"257 0 LINE",
"260 50 LINE",
"190 67 LINE",
"184 79 OFFCURVE",
"181 155 OFFCURVE",
"182 263 CURVE SMOOTH",
"183 459 LINE",
"127 459 LINE",
"531 -5 LINE",
"592 -5 LINE",
"592 42 OFFCURVE",
"592 86 OFFCURVE",
"592 148 CURVE SMOOTH",
"592 337 LINE SMOOTH",
"592 434 OFFCURVE",
"595 511 OFFCURVE",
"599 520 CURVE",
"663 537 LINE",
"660 587 LINE",
"445 587 LINE",
"442 537 LINE",
"512 520 LINE",
"516 511 OFFCURVE",
"519 433 OFFCURVE",
"519 337 CURVE SMOOTH",
"519 187 LINE"
);
}
);
};
layerId = "DEDDD934-E4FE-4A27-B966-8C21F8A9BC34";
paths = (
{
closed = 1;
nodes = (
"560 187 LINE",
"197 587 LINE",
"37 587 LINE",
"34 537 LINE",
"98 520 LINE",
"101 517 OFFCURVE",
"105 446 OFFCURVE",
"105 394 CURVE SMOOTH",
"105 263 LINE SMOOTH",
"105 162 OFFCURVE",
"102 78 OFFCURVE",
"98 67 CURVE",
"34 50 LINE",
"37 0 LINE",
"257 0 LINE",
"260 50 LINE",
"190 67 LINE",
"184 79 OFFCURVE",
"181 155 OFFCURVE",
"182 263 CURVE SMOOTH",
"183 459 LINE",
"127 459 LINE",
"531 -5 LINE",
"592 -5 LINE",
"592 42 OFFCURVE",
"592 86 OFFCURVE",
"592 148 CURVE SMOOTH",
"592 337 LINE SMOOTH",
"592 434 OFFCURVE",
"595 511 OFFCURVE",
"599 520 CURVE",
"663 537 LINE",
"660 587 LINE",
"445 587 LINE",
"442 537 LINE",
"512 520 LINE",
"516 511 OFFCURVE",
"519 433 OFFCURVE",
"519 337 CURVE SMOOTH",
"519 187 LINE"
);
}
);
width = 697;
}
);
note = N;
unicode = 004E;
},
{
color = 9;
glyphname = Eng;
lastChange = "2018-06-05 14:05:21 +0000";
layers = (
{
background = {
paths = (
{
closed = 1;
nodes = (
"505 -228 OFFCURVE",
"561 -141 OFFCURVE",
"561 16 CURVE SMOOTH",
"561 367 LINE SMOOTH",
"561 456 OFFCURVE",
"564 527 OFFCURVE",
"568 535 CURVE",
"629 549 LINE",
"627 587 LINE",
"433 587 LINE",
"431 549 LINE",
"499 535 LINE",
"503 527 OFFCURVE",
"506 456 OFFCURVE",
"506 367 CURVE SMOOTH",
"506 146 LINE",
"524 146 LINE",
"187 587 LINE",
"48 587 LINE",
"46 549 LINE",
"107 535 LINE",
"111 521 OFFCURVE",
"114 466 OFFCURVE",
"114 394 CURVE SMOOTH",
"114 223 LINE SMOOTH",
"114 135 OFFCURVE",
"111 62 OFFCURVE",
"107 52 CURVE",
"46 38 LINE",
"48 0 LINE",
"245 0 LINE",
"247 38 LINE",
"179 52 LINE",
"174 61 OFFCURVE",
"171 125 OFFCURVE",
"171 223 CURVE SMOOTH",
"171 488 LINE",
"149 488 LINE",
"518 -4 LINE",
"504 55 LINE",
"504 -22 LINE SMOOTH",
"504 -127 OFFCURVE",
"458 -194 OFFCURVE",
"394 -183 CURVE",
"438 -196 LINE",
"383 -143 LINE SMOOTH",
"363 -124 OFFCURVE",
"346 -116 OFFCURVE",
"328 -116 CURVE SMOOTH",
"303 -116 OFFCURVE",
"287 -130 OFFCURVE",
"287 -153 CURVE SMOOTH",
"287 -192 OFFCURVE",
"344 -228 OFFCURVE",
"404 -228 CURVE SMOOTH"
);
}
);
};
layerId = "720C727D-0ED9-429E-914E-55EB9E513E33";
paths = (
{
closed = 1;
nodes = (
"505 -228 OFFCURVE",
"561 -141 OFFCURVE",
"561 16 CURVE SMOOTH",
"561 367 LINE SMOOTH",
"561 456 OFFCURVE",
"564 527 OFFCURVE",
"568 535 CURVE",
"629 549 LINE",
"627 587 LINE",
"433 587 LINE",
"431 549 LINE",
"499 535 LINE",
"503 527 OFFCURVE",
"506 456 OFFCURVE",
"506 367 CURVE SMOOTH",
"506 146 LINE",
"524 146 LINE",
"187 587 LINE",
"48 587 LINE",
"46 549 LINE",
"107 535 LINE",
"111 521 OFFCURVE",
"114 466 OFFCURVE",
"114 394 CURVE SMOOTH",
"114 223 LINE SMOOTH",
"114 135 OFFCURVE",
"111 62 OFFCURVE",
"107 52 CURVE",
"46 38 LINE",
"48 0 LINE",
"245 0 LINE",
"247 38 LINE",
"179 52 LINE",
"174 61 OFFCURVE",
"171 125 OFFCURVE",
"171 223 CURVE SMOOTH",
"171 488 LINE",
"149 488 LINE",
"518 -4 LINE",
"504 55 LINE",
"504 -22 LINE SMOOTH",
"504 -127 OFFCURVE",
"458 -194 OFFCURVE",
"394 -183 CURVE",
"438 -196 LINE",
"383 -143 LINE SMOOTH",
"363 -124 OFFCURVE",
"346 -116 OFFCURVE",
"328 -116 CURVE SMOOTH",
"303 -116 OFFCURVE",
"287 -130 OFFCURVE",
"287 -153 CURVE SMOOTH",
"287 -192 OFFCURVE",
"344 -228 OFFCURVE",
"404 -228 CURVE SMOOTH"
);
}
);
width = 675;
},
{
background = {
paths = (
{
closed = 1;
nodes = (
"534 -228 OFFCURVE",
"592 -144 OFFCURVE",
"592 22 CURVE SMOOTH",
"592 337 LINE SMOOTH",
"592 440 OFFCURVE",
"595 511 OFFCURVE",
"599 520 CURVE",
"663 537 LINE",
"660 587 LINE",
"445 587 LINE",
"442 537 LINE",
"512 520 LINE",
"516 511 OFFCURVE",
"519 433 OFFCURVE",
"519 337 CURVE SMOOTH",
"519 187 LINE",
"560 187 LINE",
"197 587 LINE",
"37 587 LINE",
"34 537 LINE",
"98 520 LINE",
"101 517 OFFCURVE",
"105 447 OFFCURVE",
"105 394 CURVE SMOOTH",
"105 263 LINE SMOOTH",
"105 160 OFFCURVE",
"102 78 OFFCURVE",
"98 67 CURVE",
"34 50 LINE",
"37 0 LINE",
"257 0 LINE",
"260 50 LINE",
"190 67 LINE",
"184 79 OFFCURVE",
"181 159 OFFCURVE",
"182 263 CURVE SMOOTH",
"183 459 LINE",
"127 459 LINE",
"531 -5 LINE",
"518 61 LINE",
"518 -30 LINE SMOOTH",
"518 -123 OFFCURVE",
"477 -178 OFFCURVE",
"415 -168 CURVE",
"472 -190 LINE",
"397 -122 LINE SMOOTH",
"369 -97 OFFCURVE",
"349 -87 OFFCURVE",
"324 -87 CURVE SMOOTH",
"293 -87 OFFCURVE",
"272 -107 OFFCURVE",
"272 -138 CURVE SMOOTH",
"272 -189 OFFCURVE",
"336 -228 OFFCURVE",
"418 -228 CURVE SMOOTH"
);
}
);
};
layerId = "DEDDD934-E4FE-4A27-B966-8C21F8A9BC34";
paths = (
{
closed = 1;
nodes = (
"534 -228 OFFCURVE",
"592 -144 OFFCURVE",
"592 22 CURVE SMOOTH",
"592 337 LINE SMOOTH",
"592 440 OFFCURVE",
"595 511 OFFCURVE",
"599 520 CURVE",
"663 537 LINE",
"660 587 LINE",
"445 587 LINE",
"442 537 LINE",
"512 520 LINE",
"516 511 OFFCURVE",
"519 433 OFFCURVE",
"519 337 CURVE SMOOTH",
"519 187 LINE",
"560 187 LINE",
"197 587 LINE",
"37 587 LINE",
"34 537 LINE",
"98 520 LINE",
"101 517 OFFCURVE",
"105 447 OFFCURVE",
"105 394 CURVE SMOOTH",
"105 263 LINE SMOOTH",
"105 160 OFFCURVE",
"102 78 OFFCURVE",
"98 67 CURVE",
"34 50 LINE",
"37 0 LINE",
"257 0 LINE",
"260 50 LINE",
"190 67 LINE",
"184 79 OFFCURVE",
"181 159 OFFCURVE",
"182 263 CURVE SMOOTH",
"183 459 LINE",
"127 459 LINE",
"531 -5 LINE",
"518 61 LINE",
"518 -30 LINE SMOOTH",
"518 -123 OFFCURVE",
"477 -178 OFFCURVE",
"415 -168 CURVE",
"472 -190 LINE",
"397 -122 LINE SMOOTH",
"369 -97 OFFCURVE",
"349 -87 OFFCURVE",
"324 -87 CURVE SMOOTH",
"293 -87 OFFCURVE",
"272 -107 OFFCURVE",
"272 -138 CURVE SMOOTH",
"272 -189 OFFCURVE",
"336 -228 OFFCURVE",
"418 -228 CURVE SMOOTH"
);
}
);
width = 697;
}
);
note = Eng;
unicode = 014A;
},
{
color = 9;
glyphname = O;
lastChange = "2018-06-05 14:05:21 +0000";
layers = (
{
anchors = (
{
name = bottom;
position = "{343, 0}";
},
{
name = center;
position = "{343, 294}";
},
{
name = ogonek;
position = "{417, 0}";
},
{
name = top;
position = "{343, 587}";
},
{
name = topleft;
position = "{18, 587}";
},
{
name = topright;
position = "{669, 587}";
}
);
background = {
anchors = (
{
name = bottom;
position = "{343, 0}";
},
{
name = center;
position = "{343, 294}";
},
{
name = ogonek;
position = "{417, 0}";
},
{
name = top;
position = "{343, 587}";
},
{
name = topleft;
position = "{18, 587}";
},
{
name = topright;
position = "{669, 587}";
}
);
paths = (
{
closed = 1;
nodes = (
"503 -9 OFFCURVE",
"636 119 OFFCURVE",
"636 298 CURVE SMOOTH",
"636 474 OFFCURVE",
"519 596 OFFCURVE",
"352 596 CURVE SMOOTH",
"179 596 OFFCURVE",
"51 466 OFFCURVE",
"51 291 CURVE SMOOTH",
"51 114 OFFCURVE",
"174 -9 OFFCURVE",
"349 -9 CURVE SMOOTH"
);
},
{
closed = 1;
nodes = (
"240 45 OFFCURVE",
"155 155 OFFCURVE",
"155 310 CURVE SMOOTH",
"155 456 OFFCURVE",
"225 546 OFFCURVE",
"340 546 CURVE SMOOTH",
"456 546 OFFCURVE",
"535 435 OFFCURVE",
"535 274 CURVE SMOOTH",
"535 134 OFFCURVE",
"466 45 OFFCURVE",
"359 45 CURVE SMOOTH"
);
}
);
};
layerId = "720C727D-0ED9-429E-914E-55EB9E513E33";
paths = (
{
closed = 1;
nodes = (
"503 -9 OFFCURVE",
"636 119 OFFCURVE",
"636 298 CURVE SMOOTH",
"636 474 OFFCURVE",
"519 596 OFFCURVE",
"352 596 CURVE SMOOTH",
"179 596 OFFCURVE",
"51 466 OFFCURVE",
"51 291 CURVE SMOOTH",
"51 114 OFFCURVE",
"174 -9 OFFCURVE",
"349 -9 CURVE SMOOTH"
);
},
{
closed = 1;
nodes = (
"240 45 OFFCURVE",
"155 155 OFFCURVE",
"155 310 CURVE SMOOTH",
"155 456 OFFCURVE",
"225 546 OFFCURVE",
"340 546 CURVE SMOOTH",
"456 546 OFFCURVE",
"535 435 OFFCURVE",
"535 274 CURVE SMOOTH",
"535 134 OFFCURVE",
"466 45 OFFCURVE",
"359 45 CURVE SMOOTH"
);
}
);
width = 687;
},
{
anchors = (
{
name = bottom;
position = "{353, 0}";
},
{
name = center;
position = "{353, 294}";
},
{
name = ogonek;
position = "{428, 0}";
},
{
name = top;
position = "{353, 587}";
},
{
name = topleft;
position = "{15, 587}";
},
{
name = topright;
position = "{691, 587}";
}
);
background = {
anchors = (
{
name = bottom;
position = "{353, 0}";
},
{
name = center;
position = "{353, 294}";
},
{
name = ogonek;
position = "{428, 0}";
},
{
name = top;
position = "{353, 587}";
},
{
name = topleft;
position = "{15, 587}";
},
{
name = topright;
position = "{691, 587}";
}
);
paths = (
{
closed = 1;
nodes = (
"492 -9 OFFCURVE",
"664 94 OFFCURVE",
"664 302 CURVE SMOOTH",
"664 475 OFFCURVE",
"539 596 OFFCURVE",
"360 596 CURVE SMOOTH",
"176 596 OFFCURVE",
"42 465 OFFCURVE",
"42 286 CURVE SMOOTH",
"42 114 OFFCURVE",
"175 -9 OFFCURVE",
"360 -9 CURVE SMOOTH"
);
},
{
closed = 1;
nodes = (
"270 66 OFFCURVE",
"203 169 OFFCURVE",
"203 316 CURVE SMOOTH",
"203 449 OFFCURVE",
"258 529 OFFCURVE",
"348 529 CURVE SMOOTH",
"443 529 OFFCURVE",
"505 429 OFFCURVE",
"505 276 CURVE SMOOTH",
"505 142 OFFCURVE",
"458 66 OFFCURVE",
"367 66 CURVE SMOOTH"
);
}
);
};
layerId = "DEDDD934-E4FE-4A27-B966-8C21F8A9BC34";
paths = (
{
closed = 1;
nodes = (
"492 -9 OFFCURVE",
"664 94 OFFCURVE",
"664 302 CURVE SMOOTH",
"664 475 OFFCURVE",
"539 596 OFFCURVE",
"360 596 CURVE SMOOTH",
"176 596 OFFCURVE",
"42 465 OFFCURVE",
"42 286 CURVE SMOOTH",
"42 114 OFFCURVE",
"175 -9 OFFCURVE",
"360 -9 CURVE SMOOTH"
);
},
{
closed = 1;
nodes = (
"270 66 OFFCURVE",
"203 169 OFFCURVE",
"203 316 CURVE SMOOTH",
"203 449 OFFCURVE",
"258 529 OFFCURVE",
"348 529 CURVE SMOOTH",
"443 529 OFFCURVE",
"505 429 OFFCURVE",
"505 276 CURVE SMOOTH",
"505 142 OFFCURVE",
"458 66 OFFCURVE",
"367 66 CURVE SMOOTH"
);
}
);
width = 706;
}
);
note = O;
unicode = 004F;
},
{
color = 9;
glyphname = Ohorn;
lastChange = "2018-06-05 14:05:21 +0000";
layers = (
{
anchors = (
{
name = bottom;
position = "{343, 0}";
},
{
name = center;
position = "{343, 294}";
},
{
name = top;
position = "{343, 587}";
},
{
name = topleft;
position = "{18, 587}";
}
);
background = {
anchors = (
{
name = bottom;
position = "{343, 0}";
},
{
name = center;
position = "{343, 294}";
},
{
name = top;
position = "{343, 587}";
},
{
name = topleft;
position = "{18, 587}";
}
);
paths = (
{
closed = 1;
nodes = (
"666 703 OFFCURVE",
"626 719 OFFCURVE",
"576 710 CURVE",
"574 659 LINE SMOOTH",
"572 600 OFFCURVE",
"545 579 OFFCURVE",
"501 579 CURVE SMOOTH",
"463 579 OFFCURVE",
"416 596 OFFCURVE",
"355 596 CURVE SMOOTH",
"179 596 OFFCURVE",
"51 466 OFFCURVE",
"51 291 CURVE SMOOTH",
"51 114 OFFCURVE",
"174 -9 OFFCURVE",
"349 -9 CURVE SMOOTH",
"503 -9 OFFCURVE",
"636 119 OFFCURVE",
"636 298 CURVE SMOOTH",
"636 412 OFFCURVE",
"586 504 OFFCURVE",
"505 555 CURVE",
"474 534 LINE",
"601 513 OFFCURVE",
"666 593 OFFCURVE",
"666 651 CURVE SMOOTH"
);
},
{
closed = 1;
nodes = (
"240 45 OFFCURVE",
"155 155 OFFCURVE",
"155 310 CURVE SMOOTH",
"155 456 OFFCURVE",
"225 546 OFFCURVE",
"340 546 CURVE SMOOTH",
"456 546 OFFCURVE",
"535 435 OFFCURVE",
"535 274 CURVE SMOOTH",
"535 134 OFFCURVE",
"466 45 OFFCURVE",
"359 45 CURVE SMOOTH"
);
}
);
};
layerId = "720C727D-0ED9-429E-914E-55EB9E513E33";
paths = (
{
closed = 1;
nodes = (
"666 703 OFFCURVE",
"626 719 OFFCURVE",
"576 710 CURVE",
"574 659 LINE SMOOTH",
"572 600 OFFCURVE",
"545 579 OFFCURVE",
"501 579 CURVE SMOOTH",
"463 579 OFFCURVE",
"416 596 OFFCURVE",
"355 596 CURVE SMOOTH",
"179 596 OFFCURVE",
"51 466 OFFCURVE",
"51 291 CURVE SMOOTH",
"51 114 OFFCURVE",
"174 -9 OFFCURVE",
"349 -9 CURVE SMOOTH",
"503 -9 OFFCURVE",
"636 119 OFFCURVE",
"636 298 CURVE SMOOTH",
"636 412 OFFCURVE",
"586 504 OFFCURVE",
"505 555 CURVE",
"474 534 LINE",
"601 513 OFFCURVE",
"666 593 OFFCURVE",
"666 651 CURVE SMOOTH"
);
},
{
closed = 1;
nodes = (
"240 45 OFFCURVE",
"155 155 OFFCURVE",
"155 310 CURVE SMOOTH",
"155 456 OFFCURVE",
"225 546 OFFCURVE",
"340 546 CURVE SMOOTH",
"456 546 OFFCURVE",
"535 435 OFFCURVE",
"535 274 CURVE SMOOTH",
"535 134 OFFCURVE",
"466 45 OFFCURVE",
"359 45 CURVE SMOOTH"
);
}
);
width = 687;
},
{
anchors = (
{
name = bottom;
position = "{353, 0}";
},
{
name = center;
position = "{353, 294}";
},
{
name = top;
position = "{353, 587}";
},
{
name = topleft;
position = "{15, 587}";
}
);
background = {
anchors = (
{
name = bottom;
position = "{353, 0}";
},
{
name = center;
position = "{353, 294}";
},
{
name = top;
position = "{353, 587}";
},
{
name = topleft;
position = "{15, 587}";
}
);
paths = (
{
closed = 1;
nodes = (
"699 717 OFFCURVE",
"646 726 OFFCURVE",
"584 718 CURVE",
"582 658 LINE SMOOTH",
"580 612 OFFCURVE",
"552 580 OFFCURVE",
"507 580 CURVE SMOOTH",
"475 580 OFFCURVE",
"427 596 OFFCURVE",
"368 596 CURVE SMOOTH",
"176 596 OFFCURVE",
"42 465 OFFCURVE",
"42 286 CURVE SMOOTH",
"42 114 OFFCURVE",
"175 -9 OFFCURVE",
"360 -9 CURVE SMOOTH",
"492 -9 OFFCURVE",
"664 94 OFFCURVE",
"664 302 CURVE SMOOTH",
"664 410 OFFCURVE",
"614 497 OFFCURVE",
"536 547 CURVE",
"468 531 LINE",
"606 498 OFFCURVE",
"699 576 OFFCURVE",
"699 654 CURVE SMOOTH"
);
},
{
closed = 1;
nodes = (
"270 66 OFFCURVE",
"203 169 OFFCURVE",
"203 316 CURVE SMOOTH",
"203 449 OFFCURVE",
"258 529 OFFCURVE",
"348 529 CURVE SMOOTH",
"443 529 OFFCURVE",
"505 429 OFFCURVE",
"505 276 CURVE SMOOTH",
"505 140 OFFCURVE",
"457 66 OFFCURVE",
"367 66 CURVE SMOOTH"
);
}
);
};
layerId = "DEDDD934-E4FE-4A27-B966-8C21F8A9BC34";
paths = (
{
closed = 1;
nodes = (
"699 717 OFFCURVE",
"646 726 OFFCURVE",
"584 718 CURVE",
"582 658 LINE SMOOTH",
"580 612 OFFCURVE",
"552 580 OFFCURVE",
"507 580 CURVE SMOOTH",
"475 580 OFFCURVE",
"427 596 OFFCURVE",
"368 596 CURVE SMOOTH",
"176 596 OFFCURVE",
"42 465 OFFCURVE",
"42 286 CURVE SMOOTH",
"42 114 OFFCURVE",
"175 -9 OFFCURVE",
"360 -9 CURVE SMOOTH",
"492 -9 OFFCURVE",
"664 94 OFFCURVE",
"664 302 CURVE SMOOTH",
"664 410 OFFCURVE",
"614 497 OFFCURVE",
"536 547 CURVE",
"468 531 LINE",
"606 498 OFFCURVE",
"699 576 OFFCURVE",
"699 654 CURVE SMOOTH"
);
},
{
closed = 1;
nodes = (
"270 66 OFFCURVE",
"203 169 OFFCURVE",
"203 316 CURVE SMOOTH",
"203 449 OFFCURVE",
"258 529 OFFCURVE",
"348 529 CURVE SMOOTH",
"443 529 OFFCURVE",
"505 429 OFFCURVE",
"505 276 CURVE SMOOTH",
"505 140 OFFCURVE",
"457 66 OFFCURVE",
"367 66 CURVE SMOOTH"
);
}
);
width = 706;
}
);
note = Ohorn;
unicode = 01A0;
},
{
color = 9;
glyphname = Oogonek;
lastChange = "2018-06-05 14:05:21 +0000";
layers = (
{
anchors = (
{
name = center;
position = "{343, 294}";
},
{
name = top;
position = "{343, 587}";
},
{
name = topleft;
position = "{18, 587}";
},
{
name = topright;
position = "{669, 587}";
}
);
background = {
anchors = (
{
name = center;
position = "{343, 294}";
},
{
name = top;
position = "{343, 587}";
},
{
name = topleft;
position = "{18, 587}";
},
{
name = topright;
position = "{669, 587}";
}
);
paths = (
{
closed = 1;
nodes = (
"419 -223 OFFCURVE",
"455 -203 OFFCURVE",
"481 -173 CURVE",
"459 -146 LINE",
"438 -167 OFFCURVE",
"416 -181 OFFCURVE",
"390 -181 CURVE SMOOTH",
"355 -181 OFFCURVE",
"332 -158 OFFCURVE",
"332 -122 CURVE SMOOTH",
"332 -74 OFFCURVE",
"371 -21 OFFCURVE",
"452 11 CURVE SMOOTH",
"555 52 OFFCURVE",
"636 158 OFFCURVE",
"636 298 CURVE SMOOTH",
"636 474 OFFCURVE",
"519 596 OFFCURVE",
"352 596 CURVE SMOOTH",
"179 596 OFFCURVE",
"51 466 OFFCURVE",
"51 291 CURVE SMOOTH",
"51 114 OFFCURVE",
"174 -9 OFFCURVE",
"349 -9 CURVE SMOOTH",
"378 -9 LINE",
"412 19 LINE",
"318 -17 OFFCURVE",
"262 -71 OFFCURVE",
"262 -132 CURVE SMOOTH",
"262 -183 OFFCURVE",
"306 -223 OFFCURVE",
"376 -223 CURVE SMOOTH"
);
},
{
closed = 1;
nodes = (
"240 45 OFFCURVE",
"155 155 OFFCURVE",
"155 310 CURVE SMOOTH",
"155 456 OFFCURVE",
"225 546 OFFCURVE",
"340 546 CURVE SMOOTH",
"456 546 OFFCURVE",
"535 435 OFFCURVE",
"535 274 CURVE SMOOTH",
"535 134 OFFCURVE",
"466 45 OFFCURVE",
"359 45 CURVE SMOOTH"
);
}
);
};
layerId = "720C727D-0ED9-429E-914E-55EB9E513E33";
paths = (
{
closed = 1;
nodes = (
"419 -223 OFFCURVE",
"455 -203 OFFCURVE",
"481 -173 CURVE",
"459 -146 LINE",
"438 -167 OFFCURVE",
"416 -181 OFFCURVE",
"390 -181 CURVE SMOOTH",
"355 -181 OFFCURVE",
"332 -158 OFFCURVE",
"332 -122 CURVE SMOOTH",
"332 -74 OFFCURVE",
"371 -21 OFFCURVE",
"452 11 CURVE SMOOTH",
"555 52 OFFCURVE",
"636 158 OFFCURVE",
"636 298 CURVE SMOOTH",
"636 474 OFFCURVE",
"519 596 OFFCURVE",
"352 596 CURVE SMOOTH",
"179 596 OFFCURVE",
"51 466 OFFCURVE",
"51 291 CURVE SMOOTH",
"51 114 OFFCURVE",
"174 -9 OFFCURVE",
"349 -9 CURVE SMOOTH",
"378 -9 LINE",
"412 19 LINE",
"318 -17 OFFCURVE",
"262 -71 OFFCURVE",
"262 -132 CURVE SMOOTH",
"262 -183 OFFCURVE",
"306 -223 OFFCURVE",
"376 -223 CURVE SMOOTH"
);
},
{
closed = 1;
nodes = (
"240 45 OFFCURVE",
"155 155 OFFCURVE",
"155 310 CURVE SMOOTH",
"155 456 OFFCURVE",
"225 546 OFFCURVE",
"340 546 CURVE SMOOTH",
"456 546 OFFCURVE",
"535 435 OFFCURVE",
"535 274 CURVE SMOOTH",
"535 134 OFFCURVE",
"466 45 OFFCURVE",
"359 45 CURVE SMOOTH"
);
}
);
width = 687;
},
{
anchors = (
{
name = center;
position = "{353, 294}";
},
{
name = top;
position = "{353, 587}";
},
{
name = topleft;
position = "{15, 587}";
},
{
name = topright;
position = "{691, 587}";
}
);
background = {
anchors = (
{
name = center;
position = "{353, 294}";
},
{
name = top;
position = "{353, 587}";
},
{
name = topleft;
position = "{15, 587}";
},
{
name = topright;
position = "{691, 587}";
}
);
paths = (
{
closed = 1;
nodes = (
"429 -223 OFFCURVE",
"470 -207 OFFCURVE",
"499 -173 CURVE",
"471 -134 LINE",
"447 -157 OFFCURVE",
"425 -168 OFFCURVE",
"403 -168 CURVE SMOOTH",
"373 -168 OFFCURVE",
"351 -148 OFFCURVE",
"351 -113 CURVE SMOOTH",
"351 -71 OFFCURVE",
"382 -21 OFFCURVE",
"471 14 CURVE SMOOTH",
"570 53 OFFCURVE",
"664 147 OFFCURVE",
"664 302 CURVE SMOOTH",
"664 475 OFFCURVE",
"539 596 OFFCURVE",
"360 596 CURVE SMOOTH",
"176 596 OFFCURVE",
"42 465 OFFCURVE",
"42 286 CURVE SMOOTH",
"42 114 OFFCURVE",
"175 -9 OFFCURVE",
"360 -9 CURVE SMOOTH",
"382 -9 LINE",
"414 24 LINE",
"312 -12 OFFCURVE",
"254 -65 OFFCURVE",
"254 -122 CURVE SMOOTH",
"254 -181 OFFCURVE",
"312 -223 OFFCURVE",
"384 -223 CURVE SMOOTH"
);
},
{
closed = 1;
nodes = (
"270 66 OFFCURVE",
"203 169 OFFCURVE",
"203 316 CURVE SMOOTH",
"203 449 OFFCURVE",
"258 529 OFFCURVE",
"348 529 CURVE SMOOTH",
"443 529 OFFCURVE",
"505 429 OFFCURVE",
"505 276 CURVE SMOOTH",
"505 140 OFFCURVE",
"457 66 OFFCURVE",
"367 66 CURVE SMOOTH"
);
}
);
};
layerId = "DEDDD934-E4FE-4A27-B966-8C21F8A9BC34";
paths = (
{
closed = 1;
nodes = (
"429 -223 OFFCURVE",
"470 -207 OFFCURVE",
"499 -173 CURVE",
"471 -134 LINE",
"447 -157 OFFCURVE",
"425 -168 OFFCURVE",
"403 -168 CURVE SMOOTH",
"373 -168 OFFCURVE",
"351 -148 OFFCURVE",
"351 -113 CURVE SMOOTH",
"351 -71 OFFCURVE",
"382 -21 OFFCURVE",
"471 14 CURVE SMOOTH",
"570 53 OFFCURVE",
"664 147 OFFCURVE",
"664 302 CURVE SMOOTH",
"664 475 OFFCURVE",
"539 596 OFFCURVE",
"360 596 CURVE SMOOTH",
"176 596 OFFCURVE",
"42 465 OFFCURVE",
"42 286 CURVE SMOOTH",
"42 114 OFFCURVE",
"175 -9 OFFCURVE",
"360 -9 CURVE SMOOTH",
"382 -9 LINE",
"414 24 LINE",
"312 -12 OFFCURVE",
"254 -65 OFFCURVE",
"254 -122 CURVE SMOOTH",
"254 -181 OFFCURVE",
"312 -223 OFFCURVE",
"384 -223 CURVE SMOOTH"
);
},
{
closed = 1;
nodes = (
"270 66 OFFCURVE",
"203 169 OFFCURVE",
"203 316 CURVE SMOOTH",
"203 449 OFFCURVE",
"258 529 OFFCURVE",
"348 529 CURVE SMOOTH",
"443 529 OFFCURVE",
"505 429 OFFCURVE",
"505 276 CURVE SMOOTH",
"505 140 OFFCURVE",
"457 66 OFFCURVE",
"367 66 CURVE SMOOTH"
);
}
);
width = 706;
}
);
unicode = 01EA;
},
{
color = 9;
glyphname = OE;
lastChange = "2018-06-05 14:05:21 +0000";
layers = (
{
anchors = (
{
name = bottom;
position = "{523, 0}";
},
{
name = top;
position = "{523, 587}";
}
);
background = {
anchors = (
{
name = bottom;
position = "{523, 0}";
},
{
name = top;
position = "{523, 587}";
}
);
paths = (
{
closed = 1;
nodes = (
"440 -9 OFFCURVE",
"489 0 OFFCURVE",
"527 0 CURVE SMOOTH",
"761 0 LINE SMOOTH",
"787 0 OFFCURVE",
"815 -1 OFFCURVE",
"855 -5 CURVE",
"895 141 LINE",
"850 150 LINE",
"798 55 LINE",
"787 52 OFFCURVE",
"770 51 OFFCURVE",
"727 51 CURVE SMOOTH",
"631 51 LINE SMOOTH",
"609 51 OFFCURVE",
"591 52 OFFCURVE",
"567 55 CURVE",
"566 67 OFFCURVE",
"565 113 OFFCURVE",
"565 153 CURVE SMOOTH",
"565 423 LINE SMOOTH",
"565 470 OFFCURVE",
"566 526 OFFCURVE",
"567 535 CURVE",
"589 538 OFFCURVE",
"606 539 OFFCURVE",
"628 539 CURVE SMOOTH",
"742 539 LINE SMOOTH",
"757 539 OFFCURVE",
"770 538 OFFCURVE",
"780 536 CURVE",
"814 452 LINE",
"859 459 LINE",
"839 591 LINE",
"799 588 OFFCURVE",
"767 587 OFFCURVE",
"739 587 CURVE SMOOTH",
"514 587 LINE SMOOTH",
"470 587 OFFCURVE",
"431 594 OFFCURVE",
"384 594 CURVE SMOOTH",
"180 594 OFFCURVE",
"52 464 OFFCURVE",
"52 288 CURVE SMOOTH",
"52 102 OFFCURVE",
"178 -9 OFFCURVE",
"389 -9 CURVE SMOOTH"
);
},
{
closed = 1;
nodes = (
"248 45 OFFCURVE",
"157 141 OFFCURVE",
"157 301 CURVE SMOOTH",
"157 447 OFFCURVE",
"239 542 OFFCURVE",
"379 542 CURVE SMOOTH",
"415 542 OFFCURVE",
"445 538 OFFCURVE",
"476 529 CURVE",
"479 504 OFFCURVE",
"481 452 OFFCURVE",
"481 391 CURVE SMOOTH",
"481 203 LINE SMOOTH",
"481 121 OFFCURVE",
"480 78 OFFCURVE",
"478 57 CURVE",
"455 50 OFFCURVE",
"424 45 OFFCURVE",
"398 45 CURVE SMOOTH"
);
},
{
closed = 1;
nodes = (
"786 205 LINE",
"786 399 LINE",
"744 399 LINE",
"732 330 LINE",
"724 328 OFFCURVE",
"708 327 OFFCURVE",
"686 327 CURVE SMOOTH",
"610 327 LINE SMOOTH",
"592 327 OFFCURVE",
"572 328 OFFCURVE",
"550 329 CURVE",
"550 275 LINE",
"572 276 OFFCURVE",
"592 277 OFFCURVE",
"610 277 CURVE SMOOTH",
"686 277 LINE SMOOTH",
"708 277 OFFCURVE",
"724 276 OFFCURVE",
"732 274 CURVE",
"744 205 LINE"
);
}
);
};
layerId = "720C727D-0ED9-429E-914E-55EB9E513E33";
paths = (
{
closed = 1;
nodes = (
"440 -9 OFFCURVE",
"489 0 OFFCURVE",
"527 0 CURVE SMOOTH",
"761 0 LINE SMOOTH",
"787 0 OFFCURVE",
"815 -1 OFFCURVE",
"855 -5 CURVE",
"895 141 LINE",
"850 150 LINE",
"798 55 LINE",
"787 52 OFFCURVE",
"770 51 OFFCURVE",
"727 51 CURVE SMOOTH",
"631 51 LINE SMOOTH",
"609 51 OFFCURVE",
"591 52 OFFCURVE",
"567 55 CURVE",
"566 67 OFFCURVE",
"565 113 OFFCURVE",
"565 153 CURVE SMOOTH",
"565 423 LINE SMOOTH",
"565 470 OFFCURVE",
"566 526 OFFCURVE",
"567 535 CURVE",
"589 538 OFFCURVE",
"606 539 OFFCURVE",
"628 539 CURVE SMOOTH",
"742 539 LINE SMOOTH",
"757 539 OFFCURVE",
"770 538 OFFCURVE",
"780 536 CURVE",
"814 452 LINE",
"859 459 LINE",
"839 591 LINE",
"799 588 OFFCURVE",
"767 587 OFFCURVE",
"739 587 CURVE SMOOTH",
"514 587 LINE SMOOTH",
"470 587 OFFCURVE",
"431 594 OFFCURVE",
"384 594 CURVE SMOOTH",
"180 594 OFFCURVE",
"52 464 OFFCURVE",
"52 288 CURVE SMOOTH",
"52 102 OFFCURVE",
"178 -9 OFFCURVE",
"389 -9 CURVE SMOOTH"
);
},
{
closed = 1;
nodes = (
"248 45 OFFCURVE",
"157 141 OFFCURVE",
"157 301 CURVE SMOOTH",
"157 447 OFFCURVE",
"239 542 OFFCURVE",
"379 542 CURVE SMOOTH",
"415 542 OFFCURVE",
"445 538 OFFCURVE",
"476 529 CURVE",
"479 504 OFFCURVE",
"481 452 OFFCURVE",
"481 391 CURVE SMOOTH",
"481 203 LINE SMOOTH",
"481 121 OFFCURVE",
"480 78 OFFCURVE",
"478 57 CURVE",
"455 50 OFFCURVE",
"424 45 OFFCURVE",
"398 45 CURVE SMOOTH"
);
},
{
closed = 1;
nodes = (
"786 205 LINE",
"786 399 LINE",
"744 399 LINE",
"732 330 LINE",
"724 328 OFFCURVE",
"708 327 OFFCURVE",
"686 327 CURVE SMOOTH",
"610 327 LINE SMOOTH",
"592 327 OFFCURVE",
"572 328 OFFCURVE",
"550 329 CURVE",
"550 275 LINE",
"572 276 OFFCURVE",
"592 277 OFFCURVE",
"610 277 CURVE SMOOTH",
"686 277 LINE SMOOTH",
"708 277 OFFCURVE",
"724 276 OFFCURVE",
"732 274 CURVE",
"744 205 LINE"
);
}
);
width = 927;
},
{
anchors = (
{
name = bottom;
position = "{527, 0}";
},
{
name = top;
position = "{527, 587}";
}
);
background = {
anchors = (
{
name = bottom;
position = "{527, 0}";
},
{
name = top;
position = "{527, 587}";
}
);
paths = (
{
closed = 1;
nodes = (
"424 -9 OFFCURVE",
"465 0 OFFCURVE",
"519 0 CURVE SMOOTH",
"722 0 LINE SMOOTH",
"764 0 OFFCURVE",
"828 -4 OFFCURVE",
"863 -6 CURVE",
"908 157 LINE",
"851 168 LINE",
"796 68 LINE",
"779 64 OFFCURVE",
"775 64 OFFCURVE",
"725 64 CURVE SMOOTH",
"686 64 LINE SMOOTH",
"648 64 OFFCURVE",
"625 65 OFFCURVE",
"598 69 CURVE",
"596 86 OFFCURVE",
"595 127 OFFCURVE",
"595 194 CURVE SMOOTH",
"595 402 LINE SMOOTH",
"595 469 OFFCURVE",
"596 509 OFFCURVE",
"598 524 CURVE",
"611 527 OFFCURVE",
"633 528 OFFCURVE",
"663 528 CURVE SMOOTH",
"724 528 LINE SMOOTH",
"740 528 OFFCURVE",
"752 527 OFFCURVE",
"770 524 CURVE",
"808 435 LINE",
"866 443 LINE",
"839 592 LINE",
"804 591 OFFCURVE",
"727 587 OFFCURVE",
"685 587 CURVE SMOOTH",
"521 587 LINE SMOOTH",
"472 587 OFFCURVE",
"431 593 OFFCURVE",
"395 593 CURVE SMOOTH",
"148 593 OFFCURVE",
"43 443 OFFCURVE",
"43 287 CURVE SMOOTH",
"43 108 OFFCURVE",
"175 -9 OFFCURVE",
"377 -9 CURVE SMOOTH"
);
},
{
closed = 1;
nodes = (
"276 65 OFFCURVE",
"205 157 OFFCURVE",
"205 306 CURVE SMOOTH",
"205 440 OFFCURVE",
"276 526 OFFCURVE",
"388 526 CURVE SMOOTH",
"412 526 OFFCURVE",
"437 522 OFFCURVE",
"453 516 CURVE",
"456 499 OFFCURVE",
"459 430 OFFCURVE",
"459 373 CURVE SMOOTH",
"459 225 LINE SMOOTH",
"459 171 OFFCURVE",
"457 98 OFFCURVE",
"455 74 CURVE",
"433 69 OFFCURVE",
"407 65 OFFCURVE",
"392 65 CURVE SMOOTH"
);
},
{
closed = 1;
nodes = (
"791 199 LINE",
"791 402 LINE",
"735 402 LINE",
"725 336 LINE",
"716 336 OFFCURVE",
"694 334 OFFCURVE",
"668 334 CURVE SMOOTH",
"629 334 LINE SMOOTH",
"605 334 OFFCURVE",
"584 336 OFFCURVE",
"573 337 CURVE",
"573 266 LINE",
"584 267 OFFCURVE",
"605 269 OFFCURVE",
"629 269 CURVE SMOOTH",
"668 269 LINE SMOOTH",
"694 269 OFFCURVE",
"716 267 OFFCURVE",
"725 267 CURVE",
"735 199 LINE"
);
}
);
};
layerId = "DEDDD934-E4FE-4A27-B966-8C21F8A9BC34";
paths = (
{
closed = 1;
nodes = (
"424 -9 OFFCURVE",
"465 0 OFFCURVE",
"519 0 CURVE SMOOTH",
"722 0 LINE SMOOTH",
"764 0 OFFCURVE",
"828 -4 OFFCURVE",
"863 -6 CURVE",
"908 157 LINE",
"851 168 LINE",
"796 68 LINE",
"779 64 OFFCURVE",
"775 64 OFFCURVE",
"725 64 CURVE SMOOTH",
"686 64 LINE SMOOTH",
"648 64 OFFCURVE",
"625 65 OFFCURVE",
"598 69 CURVE",
"596 86 OFFCURVE",
"595 127 OFFCURVE",
"595 194 CURVE SMOOTH",
"595 402 LINE SMOOTH",
"595 469 OFFCURVE",
"596 509 OFFCURVE",
"598 524 CURVE",
"611 527 OFFCURVE",
"633 528 OFFCURVE",
"663 528 CURVE SMOOTH",
"724 528 LINE SMOOTH",
"740 528 OFFCURVE",
"752 527 OFFCURVE",
"770 524 CURVE",
"808 435 LINE",
"866 443 LINE",
"839 592 LINE",
"804 591 OFFCURVE",
"727 587 OFFCURVE",
"685 587 CURVE SMOOTH",
"521 587 LINE SMOOTH",
"472 587 OFFCURVE",
"431 593 OFFCURVE",
"395 593 CURVE SMOOTH",
"148 593 OFFCURVE",
"43 443 OFFCURVE",
"43 287 CURVE SMOOTH",
"43 108 OFFCURVE",
"175 -9 OFFCURVE",
"377 -9 CURVE SMOOTH"
);
},
{
closed = 1;
nodes = (
"276 65 OFFCURVE",
"205 157 OFFCURVE",
"205 306 CURVE SMOOTH",
"205 440 OFFCURVE",
"276 526 OFFCURVE",
"388 526 CURVE SMOOTH",
"412 526 OFFCURVE",
"437 522 OFFCURVE",
"453 516 CURVE",
"456 499 OFFCURVE",
"459 430 OFFCURVE",
"459 373 CURVE SMOOTH",
"459 225 LINE SMOOTH",
"459 171 OFFCURVE",
"457 98 OFFCURVE",
"455 74 CURVE",
"433 69 OFFCURVE",
"407 65 OFFCURVE",
"392 65 CURVE SMOOTH"
);
},
{
closed = 1;
nodes = (
"791 199 LINE",
"791 402 LINE",
"735 402 LINE",
"725 336 LINE",
"716 336 OFFCURVE",
"694 334 OFFCURVE",
"668 334 CURVE SMOOTH",
"629 334 LINE SMOOTH",
"605 334 OFFCURVE",
"584 336 OFFCURVE",
"573 337 CURVE",
"573 266 LINE",
"584 267 OFFCURVE",
"605 269 OFFCURVE",
"629 269 CURVE SMOOTH",
"668 269 LINE SMOOTH",
"694 269 OFFCURVE",
"716 267 OFFCURVE",
"725 267 CURVE",
"735 199 LINE"
);
}
);
width = 924;
}
);
note = OE;
unicode = 0152;
},
{
color = 9;
glyphname = P;
lastChange = "2018-06-05 14:05:21 +0000";
layers = (
{
anchors = (
{
name = bottom;
position = "{157, 0}";
},
{
name = top;
position = "{255, 587}";
}
);
background = {
anchors = (
{
name = bottom;
position = "{157, 0}";
},
{
name = top;
position = "{255, 587}";
}
);
paths = (
{
closed = 1;
nodes = (
"286 0 LINE",
"288 40 LINE",
"207 53 LINE",
"203 59 OFFCURVE",
"200 91 OFFCURVE",
"200 194 CURVE",
"199 397 LINE",
"199 466 OFFCURVE",
"200 530 OFFCURVE",
"201 543 CURVE",
"252 543 LINE SMOOTH",
"326 543 OFFCURVE",
"383 500 OFFCURVE",
"383 405 CURVE SMOOTH",
"383 323 OFFCURVE",
"336 284 OFFCURVE",
"258 284 CURVE SMOOTH",
"234 284 OFFCURVE",
"212 289 OFFCURVE",
"183 297 CURVE",
"183 243 LINE",
"205 239 OFFCURVE",
"230 235 OFFCURVE",
"260 235 CURVE SMOOTH",
"378 235 OFFCURVE",
"473 306 OFFCURVE",
"473 418 CURVE SMOOTH",
"473 527 OFFCURVE",
"395 587 OFFCURVE",
"263 587 CURVE SMOOTH",
"49 587 LINE",
"47 549 LINE",
"108 534 LINE",
"111 528 OFFCURVE",
"114 496 OFFCURVE",
"114 397 CURVE",
"113 194 LINE",
"113 91 OFFCURVE",
"110 59 OFFCURVE",
"107 52 CURVE",
"50 38 LINE",
"52 0 LINE"
);
}
);
};
layerId = "720C727D-0ED9-429E-914E-55EB9E513E33";
paths = (
{
closed = 1;
nodes = (
"286 0 LINE",
"288 40 LINE",
"207 53 LINE",
"203 59 OFFCURVE",
"200 91 OFFCURVE",
"200 194 CURVE",
"199 397 LINE",
"199 466 OFFCURVE",
"200 530 OFFCURVE",
"201 543 CURVE",
"252 543 LINE SMOOTH",
"326 543 OFFCURVE",
"383 500 OFFCURVE",
"383 405 CURVE SMOOTH",
"383 323 OFFCURVE",
"336 284 OFFCURVE",
"258 284 CURVE SMOOTH",
"234 284 OFFCURVE",
"212 289 OFFCURVE",
"183 297 CURVE",
"183 243 LINE",
"205 239 OFFCURVE",
"230 235 OFFCURVE",
"260 235 CURVE SMOOTH",
"378 235 OFFCURVE",
"473 306 OFFCURVE",
"473 418 CURVE SMOOTH",
"473 527 OFFCURVE",
"395 587 OFFCURVE",
"263 587 CURVE SMOOTH",
"49 587 LINE",
"47 549 LINE",
"108 534 LINE",
"111 528 OFFCURVE",
"114 496 OFFCURVE",
"114 397 CURVE",
"113 194 LINE",
"113 91 OFFCURVE",
"110 59 OFFCURVE",
"107 52 CURVE",
"50 38 LINE",
"52 0 LINE"
);
}
);
width = 516;
},
{
anchors = (
{
name = bottom;
position = "{174, 0}";
},
{
name = top;
position = "{289, 587}";
}
);
background = {
anchors = (
{
name = bottom;
position = "{174, 0}";
},
{
name = top;
position = "{289, 587}";
}
);
paths = (
{
closed = 1;
nodes = (
"328 0 LINE",
"331 52 LINE",
"250 67 LINE",
"247 75 OFFCURVE",
"243 137 OFFCURVE",
"243 216 CURVE",
"242 375 LINE",
"242 467 OFFCURVE",
"242 515 OFFCURVE",
"243 531 CURVE",
"270 531 LINE SMOOTH",
"347 531 OFFCURVE",
"393 491 OFFCURVE",
"393 401 CURVE SMOOTH",
"393 326 OFFCURVE",
"357 285 OFFCURVE",
"294 285 CURVE SMOOTH",
"265 285 OFFCURVE",
"243 291 OFFCURVE",
"228 299 CURVE",
"228 227 LINE",
"248 223 OFFCURVE",
"272 220 OFFCURVE",
"294 220 CURVE SMOOTH",
"449 220 OFFCURVE",
"539 304 OFFCURVE",
"539 415 CURVE SMOOTH",
"539 526 OFFCURVE",
"458 587 OFFCURVE",
"293 587 CURVE SMOOTH",
"37 587 LINE",
"34 537 LINE",
"98 523 LINE",
"102 516 OFFCURVE",
"105 451 OFFCURVE",
"105 375 CURVE",
"104 216 LINE",
"104 137 OFFCURVE",
"101 75 OFFCURVE",
"97 67 CURVE",
"37 50 LINE",
"40 0 LINE"
);
}
);
};
layerId = "DEDDD934-E4FE-4A27-B966-8C21F8A9BC34";
paths = (
{
closed = 1;
nodes = (
"328 0 LINE",
"331 52 LINE",
"250 67 LINE",
"247 75 OFFCURVE",
"243 137 OFFCURVE",
"243 216 CURVE",
"242 375 LINE",
"242 467 OFFCURVE",
"242 515 OFFCURVE",
"243 531 CURVE",
"270 531 LINE SMOOTH",
"347 531 OFFCURVE",
"393 491 OFFCURVE",
"393 401 CURVE SMOOTH",
"393 326 OFFCURVE",
"357 285 OFFCURVE",
"294 285 CURVE SMOOTH",
"265 285 OFFCURVE",
"243 291 OFFCURVE",
"228 299 CURVE",
"228 227 LINE",
"248 223 OFFCURVE",
"272 220 OFFCURVE",
"294 220 CURVE SMOOTH",
"449 220 OFFCURVE",
"539 304 OFFCURVE",
"539 415 CURVE SMOOTH",
"539 526 OFFCURVE",
"458 587 OFFCURVE",
"293 587 CURVE SMOOTH",
"37 587 LINE",
"34 537 LINE",
"98 523 LINE",
"102 516 OFFCURVE",
"105 451 OFFCURVE",
"105 375 CURVE",
"104 216 LINE",
"104 137 OFFCURVE",
"101 75 OFFCURVE",
"97 67 CURVE",
"37 50 LINE",
"40 0 LINE"
);
}
);
width = 572;
}
);
note = P;
unicode = 0050;
},
{
color = 9;
glyphname = Thorn;
lastChange = "2018-06-05 14:05:21 +0000";
layers = (
{
background = {
paths = (
{
closed = 1;
nodes = (
"281 0 LINE",
"283 40 LINE",
"202 52 LINE",
"200 62 OFFCURVE",
"198 89 OFFCURVE",
"198 117 CURVE SMOOTH",
"198 437 LINE",
"251 437 LINE SMOOTH",
"325 437 OFFCURVE",
"382 394 OFFCURVE",
"382 299 CURVE SMOOTH",
"382 217 OFFCURVE",
"335 175 OFFCURVE",
"257 175 CURVE SMOOTH",
"233 175 OFFCURVE",
"211 180 OFFCURVE",
"182 188 CURVE",
"182 137 LINE",
"204 133 OFFCURVE",
"229 129 OFFCURVE",
"259 129 CURVE SMOOTH",
"377 129 OFFCURVE",
"472 200 OFFCURVE",
"472 312 CURVE SMOOTH",
"472 421 OFFCURVE",
"394 481 OFFCURVE",
"262 481 CURVE SMOOTH",
"182 481 LINE",
"199 451 LINE",
"199 492 LINE SMOOTH",
"199 513 OFFCURVE",
"200 527 OFFCURVE",
"201 534 CURVE",
"262 549 LINE",
"260 587 LINE",
"48 587 LINE",
"46 549 LINE",
"107 534 LINE",
"111 526 OFFCURVE",
"113 476 OFFCURVE",
"113 387 CURVE SMOOTH",
"113 199 LINE SMOOTH",
"113 111 OFFCURVE",
"111 61 OFFCURVE",
"109 52 CURVE",
"52 38 LINE",
"54 0 LINE"
);
}
);
};
layerId = "720C727D-0ED9-429E-914E-55EB9E513E33";
paths = (
{
closed = 1;
nodes = (
"281 0 LINE",
"283 40 LINE",
"202 52 LINE",
"200 62 OFFCURVE",
"198 89 OFFCURVE",
"198 117 CURVE SMOOTH",
"198 437 LINE",
"251 437 LINE SMOOTH",
"325 437 OFFCURVE",
"382 394 OFFCURVE",
"382 299 CURVE SMOOTH",
"382 217 OFFCURVE",
"335 175 OFFCURVE",
"257 175 CURVE SMOOTH",
"233 175 OFFCURVE",
"211 180 OFFCURVE",
"182 188 CURVE",
"182 137 LINE",
"204 133 OFFCURVE",
"229 129 OFFCURVE",
"259 129 CURVE SMOOTH",
"377 129 OFFCURVE",
"472 200 OFFCURVE",
"472 312 CURVE SMOOTH",
"472 421 OFFCURVE",
"394 481 OFFCURVE",
"262 481 CURVE SMOOTH",
"182 481 LINE",
"199 451 LINE",
"199 492 LINE SMOOTH",
"199 513 OFFCURVE",
"200 527 OFFCURVE",
"201 534 CURVE",
"262 549 LINE",
"260 587 LINE",
"48 587 LINE",
"46 549 LINE",
"107 534 LINE",
"111 526 OFFCURVE",
"113 476 OFFCURVE",
"113 387 CURVE SMOOTH",
"113 199 LINE SMOOTH",
"113 111 OFFCURVE",
"111 61 OFFCURVE",
"109 52 CURVE",
"52 38 LINE",
"54 0 LINE"
);
}
);
width = 515;
},
{
background = {
paths = (
{
closed = 1;
nodes = (
"321 0 LINE",
"324 52 LINE",
"243 67 LINE",
"243 75 OFFCURVE",
"241 99 OFFCURVE",
"241 130 CURVE SMOOTH",
"241 434 LINE",
"269 434 LINE SMOOTH",
"346 434 OFFCURVE",
"392 394 OFFCURVE",
"392 304 CURVE SMOOTH",
"392 229 OFFCURVE",
"356 185 OFFCURVE",
"293 185 CURVE SMOOTH",
"264 185 OFFCURVE",
"242 191 OFFCURVE",
"227 199 CURVE",
"227 131 LINE",
"247 127 OFFCURVE",
"271 124 OFFCURVE",
"293 124 CURVE SMOOTH",
"448 124 OFFCURVE",
"538 207 OFFCURVE",
"538 318 CURVE SMOOTH",
"538 429 OFFCURVE",
"457 490 OFFCURVE",
"292 490 CURVE SMOOTH",
"207 490 LINE",
"241 454 LINE",
"241 484 LINE SMOOTH",
"241 499 OFFCURVE",
"242 514 OFFCURVE",
"243 520 CURVE",
"307 537 LINE",
"304 587 LINE",
"36 587 LINE",
"33 537 LINE",
"97 520 LINE",
"101 513 OFFCURVE",
"104 451 OFFCURVE",
"104 366 CURVE SMOOTH",
"104 221 LINE SMOOTH",
"104 137 OFFCURVE",
"101 75 OFFCURVE",
"97 67 CURVE",
"37 50 LINE",
"40 0 LINE"
);
}
);
};
layerId = "DEDDD934-E4FE-4A27-B966-8C21F8A9BC34";
paths = (
{
closed = 1;
nodes = (
"321 0 LINE",
"324 52 LINE",
"243 67 LINE",
"243 75 OFFCURVE",
"241 99 OFFCURVE",
"241 130 CURVE SMOOTH",
"241 434 LINE",
"269 434 LINE SMOOTH",
"346 434 OFFCURVE",
"392 394 OFFCURVE",
"392 304 CURVE SMOOTH",
"392 229 OFFCURVE",
"356 185 OFFCURVE",
"293 185 CURVE SMOOTH",
"264 185 OFFCURVE",
"242 191 OFFCURVE",
"227 199 CURVE",
"227 131 LINE",
"247 127 OFFCURVE",
"271 124 OFFCURVE",
"293 124 CURVE SMOOTH",
"448 124 OFFCURVE",
"538 207 OFFCURVE",
"538 318 CURVE SMOOTH",
"538 429 OFFCURVE",
"457 490 OFFCURVE",
"292 490 CURVE SMOOTH",
"207 490 LINE",
"241 454 LINE",
"241 484 LINE SMOOTH",
"241 499 OFFCURVE",
"242 514 OFFCURVE",
"243 520 CURVE",
"307 537 LINE",
"304 587 LINE",
"36 587 LINE",
"33 537 LINE",
"97 520 LINE",
"101 513 OFFCURVE",
"104 451 OFFCURVE",
"104 366 CURVE SMOOTH",
"104 221 LINE SMOOTH",
"104 137 OFFCURVE",
"101 75 OFFCURVE",
"97 67 CURVE",
"37 50 LINE",
"40 0 LINE"
);
}
);
width = 571;
}
);
note = Thorn;
unicode = 00DE;
},
{
color = 9;
glyphname = Q;
lastChange = "2018-06-05 14:05:21 +0000";
layers = (
{
anchors = (
{
name = bottom;
position = "{343, 0}";
},
{
name = top;
position = "{343, 587}";
}
);
background = {
anchors = (
{
name = bottom;
position = "{343, 0}";
},
{
name = top;
position = "{343, 587}";
}
);
paths = (
{
closed = 1;
nodes = (
"359 -6 LINE",
"506 -6 OFFCURVE",
"636 119 OFFCURVE",
"636 298 CURVE SMOOTH",
"636 474 OFFCURVE",
"519 596 OFFCURVE",
"352 596 CURVE SMOOTH",
"179 596 OFFCURVE",
"51 466 OFFCURVE",
"51 291 CURVE SMOOTH",
"51 114 OFFCURVE",
"174 -8 OFFCURVE",
"349 -8 CURVE"
);
},
{
closed = 1;
nodes = (
"648 -135 OFFCURVE",
"694 -123 OFFCURVE",
"728 -103 CURVE",
"719 -63 LINE",
"698 -69 OFFCURVE",
"677 -72 OFFCURVE",
"657 -72 CURVE SMOOTH",
"615 -72 OFFCURVE",
"577 -61 OFFCURVE",
"528 -33 CURVE SMOOTH",
"489 -11 OFFCURVE",
"455 2 OFFCURVE",
"409 7 CURVE",
"275 7 LINE",
"319 -5 OFFCURVE",
"389 -58 OFFCURVE",
"433 -83 CURVE SMOOTH",
"503 -123 OFFCURVE",
"545 -135 OFFCURVE",
"600 -135 CURVE SMOOTH"
);
},
{
closed = 1;
nodes = (
"240 45 OFFCURVE",
"155 155 OFFCURVE",
"155 310 CURVE SMOOTH",
"155 456 OFFCURVE",
"225 546 OFFCURVE",
"340 546 CURVE SMOOTH",
"456 546 OFFCURVE",
"535 435 OFFCURVE",
"535 274 CURVE SMOOTH",
"535 134 OFFCURVE",
"466 45 OFFCURVE",
"359 45 CURVE SMOOTH"
);
}
);
};
layerId = "720C727D-0ED9-429E-914E-55EB9E513E33";
paths = (
{
closed = 1;
nodes = (
"359 -6 LINE",
"506 -6 OFFCURVE",
"636 119 OFFCURVE",
"636 298 CURVE SMOOTH",
"636 474 OFFCURVE",
"519 596 OFFCURVE",
"352 596 CURVE SMOOTH",
"179 596 OFFCURVE",
"51 466 OFFCURVE",
"51 291 CURVE SMOOTH",
"51 114 OFFCURVE",
"174 -8 OFFCURVE",
"349 -8 CURVE"
);
},
{
closed = 1;
nodes = (
"648 -135 OFFCURVE",
"694 -123 OFFCURVE",
"728 -103 CURVE",
"719 -63 LINE",
"698 -69 OFFCURVE",
"677 -72 OFFCURVE",
"657 -72 CURVE SMOOTH",
"615 -72 OFFCURVE",
"577 -61 OFFCURVE",
"528 -33 CURVE SMOOTH",
"489 -11 OFFCURVE",
"455 2 OFFCURVE",
"409 7 CURVE",
"275 7 LINE",
"319 -5 OFFCURVE",
"389 -58 OFFCURVE",
"433 -83 CURVE SMOOTH",
"503 -123 OFFCURVE",
"545 -135 OFFCURVE",
"600 -135 CURVE SMOOTH"
);
},
{
closed = 1;
nodes = (
"240 45 OFFCURVE",
"155 155 OFFCURVE",
"155 310 CURVE SMOOTH",
"155 456 OFFCURVE",
"225 546 OFFCURVE",
"340 546 CURVE SMOOTH",
"456 546 OFFCURVE",
"535 435 OFFCURVE",
"535 274 CURVE SMOOTH",
"535 134 OFFCURVE",
"466 45 OFFCURVE",
"359 45 CURVE SMOOTH"
);
}
);
width = 687;
},
{
anchors = (
{
name = bottom;
position = "{353, 0}";
},
{
name = top;
position = "{353, 587}";
}
);
background = {
anchors = (
{
name = bottom;
position = "{353, 0}";
},
{
name = top;
position = "{353, 587}";
}
);
paths = (
{
closed = 1;
nodes = (
"373 -4 LINE",
"498 -4 OFFCURVE",
"664 95 OFFCURVE",
"664 302 CURVE SMOOTH",
"664 475 OFFCURVE",
"539 596 OFFCURVE",
"360 596 CURVE SMOOTH",
"176 596 OFFCURVE",
"42 465 OFFCURVE",
"42 286 CURVE SMOOTH",
"42 114 OFFCURVE",
"175 -7 OFFCURVE",
"360 -7 CURVE"
);
},
{
closed = 1;
nodes = (
"667 -148 OFFCURVE",
"718 -131 OFFCURVE",
"753 -108 CURVE",
"739 -54 LINE",
"714 -61 OFFCURVE",
"691 -63 OFFCURVE",
"674 -63 CURVE SMOOTH",
"634 -63 OFFCURVE",
"609 -54 OFFCURVE",
"559 -23 CURVE SMOOTH",
"521 1 OFFCURVE",
"474 12 OFFCURVE",
"425 14 CURVE",
"255 14 LINE",
"298 -4 OFFCURVE",
"325 -23 OFFCURVE",
"376 -66 CURVE SMOOTH",
"430 -111 OFFCURVE",
"497 -148 OFFCURVE",
"609 -148 CURVE SMOOTH"
);
},
{
closed = 1;
nodes = (
"270 66 OFFCURVE",
"203 169 OFFCURVE",
"203 316 CURVE SMOOTH",
"203 449 OFFCURVE",
"258 529 OFFCURVE",
"348 529 CURVE SMOOTH",
"443 529 OFFCURVE",
"505 429 OFFCURVE",
"505 276 CURVE SMOOTH",
"505 140 OFFCURVE",
"457 66 OFFCURVE",
"367 66 CURVE SMOOTH"
);
}
);
};
layerId = "DEDDD934-E4FE-4A27-B966-8C21F8A9BC34";
paths = (
{
closed = 1;
nodes = (
"373 -4 LINE",
"498 -4 OFFCURVE",
"664 95 OFFCURVE",
"664 302 CURVE SMOOTH",
"664 475 OFFCURVE",
"539 596 OFFCURVE",
"360 596 CURVE SMOOTH",
"176 596 OFFCURVE",
"42 465 OFFCURVE",
"42 286 CURVE SMOOTH",
"42 114 OFFCURVE",
"175 -7 OFFCURVE",
"360 -7 CURVE"
);
},
{
closed = 1;
nodes = (
"667 -148 OFFCURVE",
"718 -131 OFFCURVE",
"753 -108 CURVE",
"739 -54 LINE",
"714 -61 OFFCURVE",
"691 -63 OFFCURVE",
"674 -63 CURVE SMOOTH",
"634 -63 OFFCURVE",
"609 -54 OFFCURVE",
"559 -23 CURVE SMOOTH",
"521 1 OFFCURVE",
"474 12 OFFCURVE",
"425 14 CURVE",
"255 14 LINE",
"298 -4 OFFCURVE",
"325 -23 OFFCURVE",
"376 -66 CURVE SMOOTH",
"430 -111 OFFCURVE",
"497 -148 OFFCURVE",
"609 -148 CURVE SMOOTH"
);
},
{
closed = 1;
nodes = (
"270 66 OFFCURVE",
"203 169 OFFCURVE",
"203 316 CURVE SMOOTH",
"203 449 OFFCURVE",
"258 529 OFFCURVE",
"348 529 CURVE SMOOTH",
"443 529 OFFCURVE",
"505 429 OFFCURVE",
"505 276 CURVE SMOOTH",
"505 140 OFFCURVE",
"457 66 OFFCURVE",
"367 66 CURVE SMOOTH"
);
}
);
width = 706;
}
);
note = Q;
unicode = 0051;
},
{
color = 9;
glyphname = R;
lastChange = "2018-06-05 14:05:21 +0000";
layers = (
{
anchors = (
{
name = bottom;
position = "{312, 0}";
},
{
name = top;
position = "{269, 587}";
}
);
background = {
anchors = (
{
name = bottom;
position = "{312, 0}";
},
{
name = top;
position = "{269, 587}";
}
);
paths = (
{
closed = 1;
nodes = (
"263 0 LINE",
"265 38 LINE",
"204 53 LINE",
"200 62 OFFCURVE",
"198 111 OFFCURVE",
"198 199 CURVE SMOOTH",
"198 402 LINE SMOOTH",
"198 523 OFFCURVE",
"198 536 OFFCURVE",
"200 543 CURVE",
"258 543 LINE SMOOTH",
"333 543 OFFCURVE",
"373 506 OFFCURVE",
"373 435 CURVE SMOOTH",
"373 362 OFFCURVE",
"325 318 OFFCURVE",
"243 318 CURVE SMOOTH",
"186 318 LINE",
"186 273 LINE",
"249 273 LINE SMOOTH",
"374 273 OFFCURVE",
"463 344 OFFCURVE",
"463 444 CURVE SMOOTH",
"463 538 OFFCURVE",
"397 587 OFFCURVE",
"269 587 CURVE SMOOTH",
"49 587 LINE",
"47 549 LINE",
"108 537 LINE",
"112 529 OFFCURVE",
"114 478 OFFCURVE",
"114 387 CURVE SMOOTH",
"114 199 LINE SMOOTH",
"114 136 OFFCURVE",
"112 71 OFFCURVE",
"110 53 CURVE",
"49 38 LINE",
"51 0 LINE"
);
},
{
closed = 1;
nodes = (
"541 -10 OFFCURVE",
"557 -9 OFFCURVE",
"570 -6 CURVE",
"571 30 LINE",
"520 39 OFFCURVE",
"489 65 OFFCURVE",
"429 148 CURVE SMOOTH",
"321 307 LINE",
"246 290 LINE",
"314 166 LINE SMOOTH",
"387 33 OFFCURVE",
"438 -10 OFFCURVE",
"527 -10 CURVE SMOOTH"
);
}
);
};
layerId = "720C727D-0ED9-429E-914E-55EB9E513E33";
paths = (
{
closed = 1;
nodes = (
"263 0 LINE",
"265 38 LINE",
"204 53 LINE",
"200 62 OFFCURVE",
"198 111 OFFCURVE",
"198 199 CURVE SMOOTH",
"198 402 LINE SMOOTH",
"198 523 OFFCURVE",
"198 536 OFFCURVE",
"200 543 CURVE",
"258 543 LINE SMOOTH",
"333 543 OFFCURVE",
"373 506 OFFCURVE",
"373 435 CURVE SMOOTH",
"373 362 OFFCURVE",
"325 318 OFFCURVE",
"243 318 CURVE SMOOTH",
"186 318 LINE",
"186 273 LINE",
"249 273 LINE SMOOTH",
"374 273 OFFCURVE",
"463 344 OFFCURVE",
"463 444 CURVE SMOOTH",
"463 538 OFFCURVE",
"397 587 OFFCURVE",
"269 587 CURVE SMOOTH",
"49 587 LINE",
"47 549 LINE",
"108 537 LINE",
"112 529 OFFCURVE",
"114 478 OFFCURVE",
"114 387 CURVE SMOOTH",
"114 199 LINE SMOOTH",
"114 136 OFFCURVE",
"112 71 OFFCURVE",
"110 53 CURVE",
"49 38 LINE",
"51 0 LINE"
);
},
{
closed = 1;
nodes = (
"541 -10 OFFCURVE",
"557 -9 OFFCURVE",
"570 -6 CURVE",
"571 30 LINE",
"520 39 OFFCURVE",
"489 65 OFFCURVE",
"429 148 CURVE SMOOTH",
"321 307 LINE",
"246 290 LINE",
"314 166 LINE SMOOTH",
"387 33 OFFCURVE",
"438 -10 OFFCURVE",
"527 -10 CURVE SMOOTH"
);
}
);
width = 569;
},
{
anchors = (
{
name = bottom;
position = "{336, 0}";
},
{
name = top;
position = "{303, 587}";
}
);
background = {
anchors = (
{
name = bottom;
position = "{336, 0}";
},
{
name = top;
position = "{303, 587}";
}
);
paths = (
{
closed = 1;
nodes = (
"298 0 LINE",
"301 50 LINE",
"245 67 LINE",
"243 93 OFFCURVE",
"241 168 OFFCURVE",
"241 221 CURVE SMOOTH",
"241 373 LINE SMOOTH",
"241 449 OFFCURVE",
"242 522 OFFCURVE",
"243 531 CURVE",
"281 531 LINE SMOOTH",
"345 531 OFFCURVE",
"380 497 OFFCURVE",
"380 435 CURVE SMOOTH",
"380 368 OFFCURVE",
"336 323 OFFCURVE",
"270 323 CURVE SMOOTH",
"233 323 LINE",
"233 265 LINE",
"290 265 LINE SMOOTH",
"426 265 OFFCURVE",
"524 336 OFFCURVE",
"524 435 CURVE SMOOTH",
"524 539 OFFCURVE",
"452 587 OFFCURVE",
"297 587 CURVE SMOOTH",
"37 587 LINE",
"34 537 LINE",
"98 520 LINE",
"102 513 OFFCURVE",
"105 448 OFFCURVE",
"105 366 CURVE SMOOTH",
"105 221 LINE SMOOTH",
"105 169 OFFCURVE",
"103 83 OFFCURVE",
"102 67 CURVE",
"38 50 LINE",
"41 0 LINE"
);
},
{
closed = 1;
nodes = (
"586 -12 OFFCURVE",
"607 -10 OFFCURVE",
"629 -6 CURVE",
"630 41 LINE",
"580 54 OFFCURVE",
"541 84 OFFCURVE",
"500 141 CURVE SMOOTH",
"381 307 LINE",
"269 281 LINE",
"325 158 LINE SMOOTH",
"379 40 OFFCURVE",
"452 -12 OFFCURVE",
"565 -12 CURVE SMOOTH"
);
}
);
};
layerId = "DEDDD934-E4FE-4A27-B966-8C21F8A9BC34";
paths = (
{
closed = 1;
nodes = (
"298 0 LINE",
"301 50 LINE",
"245 67 LINE",
"243 93 OFFCURVE",
"241 168 OFFCURVE",
"241 221 CURVE SMOOTH",
"241 373 LINE SMOOTH",
"241 449 OFFCURVE",
"242 522 OFFCURVE",
"243 531 CURVE",
"281 531 LINE SMOOTH",
"345 531 OFFCURVE",
"380 497 OFFCURVE",
"380 435 CURVE SMOOTH",
"380 368 OFFCURVE",
"336 323 OFFCURVE",
"270 323 CURVE SMOOTH",
"233 323 LINE",
"233 265 LINE",
"290 265 LINE SMOOTH",
"426 265 OFFCURVE",
"524 336 OFFCURVE",
"524 435 CURVE SMOOTH",
"524 539 OFFCURVE",
"452 587 OFFCURVE",
"297 587 CURVE SMOOTH",
"37 587 LINE",
"34 537 LINE",
"98 520 LINE",
"102 513 OFFCURVE",
"105 448 OFFCURVE",
"105 366 CURVE SMOOTH",
"105 221 LINE SMOOTH",
"105 169 OFFCURVE",
"103 83 OFFCURVE",
"102 67 CURVE",
"38 50 LINE",
"41 0 LINE"
);
},
{
closed = 1;
nodes = (
"586 -12 OFFCURVE",
"607 -10 OFFCURVE",
"629 -6 CURVE",
"630 41 LINE",
"580 54 OFFCURVE",
"541 84 OFFCURVE",
"500 141 CURVE SMOOTH",
"381 307 LINE",
"269 281 LINE",
"325 158 LINE SMOOTH",
"379 40 OFFCURVE",
"452 -12 OFFCURVE",
"565 -12 CURVE SMOOTH"
);
}
);
width = 618;
}
);
note = R;
unicode = 0052;
},
{
color = 9;
glyphname = S;
lastChange = "2018-06-05 14:05:21 +0000";
layers = (
{
anchors = (
{
name = bottom;
position = "{244, 0}";
},
{
name = top;
position = "{244, 587}";
}
);
background = {
anchors = (
{
name = bottom;
position = "{244, 0}";
},
{
name = top;
position = "{244, 587}";
}
);
paths = (
{
closed = 1;
nodes = (
"352 -9 OFFCURVE",
"442 61 OFFCURVE",
"442 157 CURVE SMOOTH",
"442 338 OFFCURVE",
"148 314 OFFCURVE",
"148 459 CURVE SMOOTH",
"148 513 OFFCURVE",
"192 549 OFFCURVE",
"259 549 CURVE SMOOTH",
"293 549 OFFCURVE",
"319 543 OFFCURVE",
"341 529 CURVE",
"369 445 LINE",
"412 449 LINE",
"404 574 LINE",
"370 589 OFFCURVE",
"322 597 OFFCURVE",
"269 597 CURVE SMOOTH",
"145 597 OFFCURVE",
"57 530 OFFCURVE",
"57 433 CURVE SMOOTH",
"57 243 OFFCURVE",
"350 272 OFFCURVE",
"350 130 CURVE SMOOTH",
"350 75 OFFCURVE",
"306 41 OFFCURVE",
"241 41 CURVE SMOOTH",
"198 41 OFFCURVE",
"158 53 OFFCURVE",
"126 74 CURVE",
"98 165 LINE",
"55 159 LINE",
"60 30 LINE",
"99 7 OFFCURVE",
"168 -9 OFFCURVE",
"227 -9 CURVE SMOOTH"
);
}
);
};
layerId = "720C727D-0ED9-429E-914E-55EB9E513E33";
paths = (
{
closed = 1;
nodes = (
"352 -9 OFFCURVE",
"442 61 OFFCURVE",
"442 157 CURVE SMOOTH",
"442 338 OFFCURVE",
"148 314 OFFCURVE",
"148 459 CURVE SMOOTH",
"148 513 OFFCURVE",
"192 549 OFFCURVE",
"259 549 CURVE SMOOTH",
"293 549 OFFCURVE",
"319 543 OFFCURVE",
"341 529 CURVE",
"369 445 LINE",
"412 449 LINE",
"404 574 LINE",
"370 589 OFFCURVE",
"322 597 OFFCURVE",
"269 597 CURVE SMOOTH",
"145 597 OFFCURVE",
"57 530 OFFCURVE",
"57 433 CURVE SMOOTH",
"57 243 OFFCURVE",
"350 272 OFFCURVE",
"350 130 CURVE SMOOTH",
"350 75 OFFCURVE",
"306 41 OFFCURVE",
"241 41 CURVE SMOOTH",
"198 41 OFFCURVE",
"158 53 OFFCURVE",
"126 74 CURVE",
"98 165 LINE",
"55 159 LINE",
"60 30 LINE",
"99 7 OFFCURVE",
"168 -9 OFFCURVE",
"227 -9 CURVE SMOOTH"
);
}
);
width = 481;
},
{
anchors = (
{
name = bottom;
position = "{263, 0}";
},
{
name = top;
position = "{263, 587}";
}
);
background = {
anchors = (
{
name = bottom;
position = "{263, 0}";
},
{
name = top;
position = "{263, 587}";
}
);
paths = (
{
closed = 1;
nodes = (
"386 -9 OFFCURVE",
"487 66 OFFCURVE",
"487 170 CURVE SMOOTH",
"487 361 OFFCURVE",
"195 325 OFFCURVE",
"195 457 CURVE SMOOTH",
"195 506 OFFCURVE",
"236 534 OFFCURVE",
"288 534 CURVE SMOOTH",
"311 534 OFFCURVE",
"334 531 OFFCURVE",
"359 519 CURVE",
"391 418 LINE",
"455 424 LINE",
"443 571 LINE",
"406 587 OFFCURVE",
"344 598 OFFCURVE",
"298 598 CURVE SMOOTH",
"150 598 OFFCURVE",
"51 525 OFFCURVE",
"51 417 CURVE SMOOTH",
"51 214 OFFCURVE",
"340 263 OFFCURVE",
"340 125 CURVE SMOOTH",
"340 83 OFFCURVE",
"307 57 OFFCURVE",
"248 57 CURVE SMOOTH",
"219 57 OFFCURVE",
"178 65 OFFCURVE",
"149 84 CURVE",
"115 190 LINE",
"50 184 LINE",
"54 36 LINE",
"103 8 OFFCURVE",
"178 -9 OFFCURVE",
"235 -9 CURVE SMOOTH"
);
}
);
};
layerId = "DEDDD934-E4FE-4A27-B966-8C21F8A9BC34";
paths = (
{
closed = 1;
nodes = (
"386 -9 OFFCURVE",
"487 66 OFFCURVE",
"487 170 CURVE SMOOTH",
"487 361 OFFCURVE",
"195 325 OFFCURVE",
"195 457 CURVE SMOOTH",
"195 506 OFFCURVE",
"236 534 OFFCURVE",
"288 534 CURVE SMOOTH",
"311 534 OFFCURVE",
"334 531 OFFCURVE",
"359 519 CURVE",
"391 418 LINE",
"455 424 LINE",
"443 571 LINE",
"406 587 OFFCURVE",
"344 598 OFFCURVE",
"298 598 CURVE SMOOTH",
"150 598 OFFCURVE",
"51 525 OFFCURVE",
"51 417 CURVE SMOOTH",
"51 214 OFFCURVE",
"340 263 OFFCURVE",
"340 125 CURVE SMOOTH",
"340 83 OFFCURVE",
"307 57 OFFCURVE",
"248 57 CURVE SMOOTH",
"219 57 OFFCURVE",
"178 65 OFFCURVE",
"149 84 CURVE",
"115 190 LINE",
"50 184 LINE",
"54 36 LINE",
"103 8 OFFCURVE",
"178 -9 OFFCURVE",
"235 -9 CURVE SMOOTH"
);
}
);
width = 514;
}
);
note = S;
unicode = 0053;
},
{
color = 9;
glyphname = Germandbls;
lastChange = "2018-06-05 14:05:21 +0000";
layers = (
{
background = {
paths = (
{
closed = 1;
nodes = (
"258 0 LINE",
"260 38 LINE",
"199 52 LINE",
"194 60 OFFCURVE",
"192 105 OFFCURVE",
"192 199 CURVE",
"191 378 LINE",
"191 487 OFFCURVE",
"244 549 OFFCURVE",
"335 549 CURVE SMOOTH",
"396 549 OFFCURVE",
"441 520 OFFCURVE",
"459 468 CURVE",
"520 468 LINE",
"488 553 OFFCURVE",
"423 597 OFFCURVE",
"334 597 CURVE SMOOTH",
"193 597 OFFCURVE",
"106 505 OFFCURVE",
"106 350 CURVE",
"107 199 LINE",
"107 121 OFFCURVE",
"104 63 OFFCURVE",
"100 52 CURVE",
"39 38 LINE",
"41 0 LINE"
);
},
{
closed = 1;
nodes = (
"579 -9 OFFCURVE",
"655 47 OFFCURVE",
"655 134 CURVE SMOOTH",
"655 293 OFFCURVE",
"403 266 OFFCURVE",
"403 375 CURVE SMOOTH",
"403 416 OFFCURVE",
"438 446 OFFCURVE",
"501 446 CURVE SMOOTH",
"524 446 OFFCURVE",
"543 444 OFFCURVE",
"561 437 CURVE",
"584 362 LINE",
"626 365 LINE",
"619 474 LINE",
"590 484 OFFCURVE",
"543 491 OFFCURVE",
"503 491 CURVE SMOOTH",
"388 491 OFFCURVE",
"317 429 OFFCURVE",
"317 350 CURVE SMOOTH",
"317 188 OFFCURVE",
"568 223 OFFCURVE",
"568 109 CURVE SMOOTH",
"568 66 OFFCURVE",
"533 39 OFFCURVE",
"478 39 CURVE SMOOTH",
"445 39 OFFCURVE",
"409 49 OFFCURVE",
"380 68 CURVE",
"359 156 LINE",
"314 150 LINE",
"316 26 LINE",
"353 6 OFFCURVE",
"413 -9 OFFCURVE",
"469 -9 CURVE SMOOTH"
);
}
);
};
layerId = "720C727D-0ED9-429E-914E-55EB9E513E33";
paths = (
{
closed = 1;
nodes = (
"258 0 LINE",
"260 38 LINE",
"199 52 LINE",
"194 60 OFFCURVE",
"192 105 OFFCURVE",
"192 199 CURVE",
"191 378 LINE",
"191 487 OFFCURVE",
"244 549 OFFCURVE",
"335 549 CURVE SMOOTH",
"396 549 OFFCURVE",
"441 520 OFFCURVE",
"459 468 CURVE",
"520 468 LINE",
"488 553 OFFCURVE",
"423 597 OFFCURVE",
"334 597 CURVE SMOOTH",
"193 597 OFFCURVE",
"106 505 OFFCURVE",
"106 350 CURVE",
"107 199 LINE",
"107 121 OFFCURVE",
"104 63 OFFCURVE",
"100 52 CURVE",
"39 38 LINE",
"41 0 LINE"
);
},
{
closed = 1;
nodes = (
"579 -9 OFFCURVE",
"655 47 OFFCURVE",
"655 134 CURVE SMOOTH",
"655 293 OFFCURVE",
"403 266 OFFCURVE",
"403 375 CURVE SMOOTH",
"403 416 OFFCURVE",
"438 446 OFFCURVE",
"501 446 CURVE SMOOTH",
"524 446 OFFCURVE",
"543 444 OFFCURVE",
"561 437 CURVE",
"584 362 LINE",
"626 365 LINE",
"619 474 LINE",
"590 484 OFFCURVE",
"543 491 OFFCURVE",
"503 491 CURVE SMOOTH",
"388 491 OFFCURVE",
"317 429 OFFCURVE",
"317 350 CURVE SMOOTH",
"317 188 OFFCURVE",
"568 223 OFFCURVE",
"568 109 CURVE SMOOTH",
"568 66 OFFCURVE",
"533 39 OFFCURVE",
"478 39 CURVE SMOOTH",
"445 39 OFFCURVE",
"409 49 OFFCURVE",
"380 68 CURVE",
"359 156 LINE",
"314 150 LINE",
"316 26 LINE",
"353 6 OFFCURVE",
"413 -9 OFFCURVE",
"469 -9 CURVE SMOOTH"
);
}
);
width = 696;
},
{
background = {
paths = (
{
closed = 1;
nodes = (
"298 0 LINE",
"301 50 LINE",
"240 67 LINE",
"236 75 OFFCURVE",
"233 133 OFFCURVE",
"232 221 CURVE",
"230 365 LINE",
"229 473 OFFCURVE",
"279 533 OFFCURVE",
"369 533 CURVE SMOOTH",
"425 533 OFFCURVE",
"466 510 OFFCURVE",
"486 466 CURVE",
"571 466 LINE",
"536 551 OFFCURVE",
"462 598 OFFCURVE",
"361 598 CURVE SMOOTH",
"197 598 OFFCURVE",
"94 495 OFFCURVE",
"94 332 CURVE",
"95 221 LINE",
"95 140 OFFCURVE",
"92 75 OFFCURVE",
"88 67 CURVE",
"24 50 LINE",
"27 0 LINE"
);
},
{
closed = 1;
nodes = (
"609 -9 OFFCURVE",
"703 55 OFFCURVE",
"703 145 CURVE SMOOTH",
"703 308 OFFCURVE",
"460 286 OFFCURVE",
"460 376 CURVE SMOOTH",
"460 416 OFFCURVE",
"495 435 OFFCURVE",
"538 435 CURVE SMOOTH",
"551 435 OFFCURVE",
"567 434 OFFCURVE",
"580 430 CURVE",
"609 340 LINE",
"670 345 LINE",
"660 475 LINE",
"628 487 OFFCURVE",
"567 495 OFFCURVE",
"533 495 CURVE SMOOTH",
"422 495 OFFCURVE",
"331 425 OFFCURVE",
"331 335 CURVE SMOOTH",
"331 166 OFFCURVE",
"572 211 OFFCURVE",
"572 104 CURVE SMOOTH",
"572 67 OFFCURVE",
"534 53 OFFCURVE",
"492 53 CURVE SMOOTH",
"471 53 OFFCURVE",
"445 57 OFFCURVE",
"422 72 CURVE",
"394 158 LINE",
"331 152 LINE",
"334 23 LINE",
"375 2 OFFCURVE",
"443 -9 OFFCURVE",
"489 -9 CURVE SMOOTH"
);
}
);
};
layerId = "DEDDD934-E4FE-4A27-B966-8C21F8A9BC34";
paths = (
{
closed = 1;
nodes = (
"298 0 LINE",
"301 50 LINE",
"240 67 LINE",
"236 75 OFFCURVE",
"233 133 OFFCURVE",
"232 221 CURVE",
"230 365 LINE",
"229 473 OFFCURVE",
"279 533 OFFCURVE",
"369 533 CURVE SMOOTH",
"425 533 OFFCURVE",
"466 510 OFFCURVE",
"486 466 CURVE",
"571 466 LINE",
"536 551 OFFCURVE",
"462 598 OFFCURVE",
"361 598 CURVE SMOOTH",
"197 598 OFFCURVE",
"94 495 OFFCURVE",
"94 332 CURVE",
"95 221 LINE",
"95 140 OFFCURVE",
"92 75 OFFCURVE",
"88 67 CURVE",
"24 50 LINE",
"27 0 LINE"
);
},
{
closed = 1;
nodes = (
"609 -9 OFFCURVE",
"703 55 OFFCURVE",
"703 145 CURVE SMOOTH",
"703 308 OFFCURVE",
"460 286 OFFCURVE",
"460 376 CURVE SMOOTH",
"460 416 OFFCURVE",
"495 435 OFFCURVE",
"538 435 CURVE SMOOTH",
"551 435 OFFCURVE",
"567 434 OFFCURVE",
"580 430 CURVE",
"609 340 LINE",
"670 345 LINE",
"660 475 LINE",
"628 487 OFFCURVE",
"567 495 OFFCURVE",
"533 495 CURVE SMOOTH",
"422 495 OFFCURVE",
"331 425 OFFCURVE",
"331 335 CURVE SMOOTH",
"331 166 OFFCURVE",
"572 211 OFFCURVE",
"572 104 CURVE SMOOTH",
"572 67 OFFCURVE",
"534 53 OFFCURVE",
"492 53 CURVE SMOOTH",
"471 53 OFFCURVE",
"445 57 OFFCURVE",
"422 72 CURVE",
"394 158 LINE",
"331 152 LINE",
"334 23 LINE",
"375 2 OFFCURVE",
"443 -9 OFFCURVE",
"489 -9 CURVE SMOOTH"
);
}
);
width = 732;
}
);
unicode = 1E9E;
},
{
color = 9;
glyphname = Schwa;
lastChange = "2018-06-05 14:05:21 +0000";
layers = (
{
anchors = (
{
name = bottom;
position = "{326, 0}";
},
{
name = top;
position = "{326, 587}";
}
);
background = {
anchors = (
{
name = bottom;
position = "{326, 0}";
},
{
name = top;
position = "{326, 587}";
}
);
paths = (
{
closed = 1;
nodes = (
"205 596 OFFCURVE",
"106 538 OFFCURVE",
"58 444 CURVE",
"91 418 LINE",
"137 472 OFFCURVE",
"202 504 OFFCURVE",
"278 504 CURVE SMOOTH",
"412 504 OFFCURVE",
"497 413 OFFCURVE",
"497 267 CURVE SMOOTH",
"497 246 LINE SMOOTH",
"497 121 OFFCURVE",
"434 44 OFFCURVE",
"332 44 CURVE SMOOTH",
"228 44 OFFCURVE",
"166 110 OFFCURVE",
"166 212 CURVE SMOOTH",
"166 244 LINE",
"147 227 LINE",
"530 227 LINE",
"530 283 LINE",
"54 283 LINE",
"54 258 LINE SMOOTH",
"54 95 OFFCURVE",
"158 -8 OFFCURVE",
"324 -9 CURVE SMOOTH",
"483 -9 OFFCURVE",
"598 122 OFFCURVE",
"598 306 CURVE SMOOTH",
"598 477 OFFCURVE",
"482 596 OFFCURVE",
"315 596 CURVE SMOOTH"
);
}
);
};
layerId = "720C727D-0ED9-429E-914E-55EB9E513E33";
paths = (
{
closed = 1;
nodes = (
"205 596 OFFCURVE",
"106 538 OFFCURVE",
"58 444 CURVE",
"91 418 LINE",
"137 472 OFFCURVE",
"202 504 OFFCURVE",
"278 504 CURVE SMOOTH",
"412 504 OFFCURVE",
"497 413 OFFCURVE",
"497 267 CURVE SMOOTH",
"497 246 LINE SMOOTH",
"497 121 OFFCURVE",
"434 44 OFFCURVE",
"332 44 CURVE SMOOTH",
"228 44 OFFCURVE",
"166 110 OFFCURVE",
"166 212 CURVE SMOOTH",
"166 244 LINE",
"147 227 LINE",
"530 227 LINE",
"530 283 LINE",
"54 283 LINE",
"54 258 LINE SMOOTH",
"54 95 OFFCURVE",
"158 -8 OFFCURVE",
"324 -9 CURVE SMOOTH",
"483 -9 OFFCURVE",
"598 122 OFFCURVE",
"598 306 CURVE SMOOTH",
"598 477 OFFCURVE",
"482 596 OFFCURVE",
"315 596 CURVE SMOOTH"
);
}
);
width = 649;
},
{
anchors = (
{
name = bottom;
position = "{330, 0}";
},
{
name = top;
position = "{330, 587}";
}
);
background = {
anchors = (
{
name = bottom;
position = "{330, 0}";
},
{
name = top;
position = "{330, 587}";
}
);
paths = (
{
closed = 1;
nodes = (
"198 596 OFFCURVE",
"95 532 OFFCURVE",
"47 427 CURVE",
"78 397 LINE",
"127 448 OFFCURVE",
"188 476 OFFCURVE",
"267 476 CURVE SMOOTH",
"385 476 OFFCURVE",
"458 397 OFFCURVE",
"458 275 CURVE SMOOTH",
"458 241 LINE SMOOTH",
"458 129 OFFCURVE",
"416 64 OFFCURVE",
"335 64 CURVE SMOOTH",
"260 64 OFFCURVE",
"208 120 OFFCURVE",
"208 207 CURVE SMOOTH",
"208 251 LINE",
"187 216 LINE",
"539 216 LINE",
"539 286 LINE",
"43 286 LINE",
"43 251 LINE SMOOTH",
"43 93 OFFCURVE",
"160 -9 OFFCURVE",
"335 -9 CURVE SMOOTH",
"492 -8 OFFCURVE",
"616 131 OFFCURVE",
"616 302 CURVE SMOOTH",
"616 470 OFFCURVE",
"489 596 OFFCURVE",
"319 596 CURVE SMOOTH"
);
}
);
};
layerId = "DEDDD934-E4FE-4A27-B966-8C21F8A9BC34";
paths = (
{
closed = 1;
nodes = (
"198 596 OFFCURVE",
"95 532 OFFCURVE",
"47 427 CURVE",
"78 397 LINE",
"127 448 OFFCURVE",
"188 476 OFFCURVE",
"267 476 CURVE SMOOTH",
"385 476 OFFCURVE",
"458 397 OFFCURVE",
"458 275 CURVE SMOOTH",
"458 241 LINE SMOOTH",
"458 129 OFFCURVE",
"416 64 OFFCURVE",
"335 64 CURVE SMOOTH",
"260 64 OFFCURVE",
"208 120 OFFCURVE",
"208 207 CURVE SMOOTH",
"208 251 LINE",
"187 216 LINE",
"539 216 LINE",
"539 286 LINE",
"43 286 LINE",
"43 251 LINE SMOOTH",
"43 93 OFFCURVE",
"160 -9 OFFCURVE",
"335 -9 CURVE SMOOTH",
"492 -8 OFFCURVE",
"616 131 OFFCURVE",
"616 302 CURVE SMOOTH",
"616 470 OFFCURVE",
"489 596 OFFCURVE",
"319 596 CURVE SMOOTH"
);
}
);
width = 658;
}
);
unicode = 018F;
},
{
color = 9;
glyphname = T;
lastChange = "2018-06-05 14:05:21 +0000";
layers = (
{
anchors = (
{
name = bottom;
position = "{280, 0}";
},
{
name = stroke;
position = "{279, 303}";
},
{
name = top;
position = "{279, 587}";
}
);
background = {
anchors = (
{
name = bottom;
position = "{280, 0}";
},
{
name = stroke;
position = "{279, 303}";
},
{
name = top;
position = "{279, 587}";
}
);
paths = (
{
closed = 1;
nodes = (
"486 589 OFFCURVE",
"452 587 OFFCURVE",
"421 587 CURVE SMOOTH",
"135 587 LINE SMOOTH",
"104 587 OFFCURVE",
"70 589 OFFCURVE",
"38 591 CURVE",
"17 429 LINE",
"61 423 LINE",
"103 537 LINE",
"114 539 OFFCURVE",
"127 540 OFFCURVE",
"139 540 CURVE SMOOTH",
"177 540 LINE SMOOTH",
"191 540 OFFCURVE",
"217 540 OFFCURVE",
"234 538 CURVE",
"235 523 OFFCURVE",
"236 430 OFFCURVE",
"236 358 CURVE SMOOTH",
"236 223 LINE SMOOTH",
"236 138 OFFCURVE",
"234 71 OFFCURVE",
"233 52 CURVE",
"149 40 LINE",
"151 0 LINE",
"407 0 LINE",
"409 40 LINE",
"325 52 LINE",
"324 71 OFFCURVE",
"322 138 OFFCURVE",
"322 223 CURVE SMOOTH",
"322 358 LINE SMOOTH",
"322 430 OFFCURVE",
"323 523 OFFCURVE",
"324 538 CURVE",
"341 540 OFFCURVE",
"368 540 OFFCURVE",
"381 540 CURVE SMOOTH",
"417 540 LINE SMOOTH",
"429 540 OFFCURVE",
"443 539 OFFCURVE",
"454 537 CURVE",
"496 424 LINE",
"540 429 LINE",
"518 591 LINE"
);
}
);
};
layerId = "720C727D-0ED9-429E-914E-55EB9E513E33";
paths = (
{
closed = 1;
nodes = (
"486 589 OFFCURVE",
"452 587 OFFCURVE",
"421 587 CURVE SMOOTH",
"135 587 LINE SMOOTH",
"104 587 OFFCURVE",
"70 589 OFFCURVE",
"38 591 CURVE",
"17 429 LINE",
"61 423 LINE",
"103 537 LINE",
"114 539 OFFCURVE",
"127 540 OFFCURVE",
"139 540 CURVE SMOOTH",
"177 540 LINE SMOOTH",
"191 540 OFFCURVE",
"217 540 OFFCURVE",
"234 538 CURVE",
"235 523 OFFCURVE",
"236 430 OFFCURVE",
"236 358 CURVE SMOOTH",
"236 223 LINE SMOOTH",
"236 138 OFFCURVE",
"234 71 OFFCURVE",
"233 52 CURVE",
"149 40 LINE",
"151 0 LINE",
"407 0 LINE",
"409 40 LINE",
"325 52 LINE",
"324 71 OFFCURVE",
"322 138 OFFCURVE",
"322 223 CURVE SMOOTH",
"322 358 LINE SMOOTH",
"322 430 OFFCURVE",
"323 523 OFFCURVE",
"324 538 CURVE",
"341 540 OFFCURVE",
"368 540 OFFCURVE",
"381 540 CURVE SMOOTH",
"417 540 LINE SMOOTH",
"429 540 OFFCURVE",
"443 539 OFFCURVE",
"454 537 CURVE",
"496 424 LINE",
"540 429 LINE",
"518 591 LINE"
);
}
);
width = 558;
},
{
anchors = (
{
name = bottom;
position = "{307, 0}";
},
{
name = stroke;
position = "{307, 303}";
},
{
name = top;
position = "{307, 587}";
}
);
background = {
anchors = (
{
name = bottom;
position = "{307, 0}";
},
{
name = stroke;
position = "{307, 303}";
},
{
name = top;
position = "{307, 587}";
}
);
paths = (
{
closed = 1;
nodes = (
"546 591 OFFCURVE",
"468 587 OFFCURVE",
"432 587 CURVE SMOOTH",
"179 587 LINE SMOOTH",
"142 587 OFFCURVE",
"65 591 OFFCURVE",
"36 592 CURVE",
"16 413 LINE",
"78 407 LINE",
"116 525 LINE",
"134 527 OFFCURVE",
"146 528 OFFCURVE",
"164 528 CURVE SMOOTH",
"198 528 LINE SMOOTH",
"210 528 OFFCURVE",
"227 527 OFFCURVE",
"235 526 CURVE",
"236 513 OFFCURVE",
"238 415 OFFCURVE",
"238 327 CURVE SMOOTH",
"238 235 LINE SMOOTH",
"238 161 OFFCURVE",
"236 97 OFFCURVE",
"234 67 CURVE",
"147 52 LINE",
"150 0 LINE",
"464 0 LINE",
"467 52 LINE",
"380 67 LINE",
"378 97 OFFCURVE",
"376 161 OFFCURVE",
"376 235 CURVE SMOOTH",
"376 327 LINE SMOOTH",
"376 415 OFFCURVE",
"378 513 OFFCURVE",
"379 526 CURVE",
"387 527 OFFCURVE",
"404 528 OFFCURVE",
"416 528 CURVE SMOOTH",
"449 528 LINE SMOOTH",
"467 528 OFFCURVE",
"477 527 OFFCURVE",
"495 525 CURVE",
"535 409 LINE",
"597 414 LINE",
"574 592 LINE"
);
}
);
};
layerId = "DEDDD934-E4FE-4A27-B966-8C21F8A9BC34";
paths = (
{
closed = 1;
nodes = (
"546 591 OFFCURVE",
"468 587 OFFCURVE",
"432 587 CURVE SMOOTH",
"179 587 LINE SMOOTH",
"142 587 OFFCURVE",
"65 591 OFFCURVE",
"36 592 CURVE",
"16 413 LINE",
"78 407 LINE",
"116 525 LINE",
"134 527 OFFCURVE",
"146 528 OFFCURVE",
"164 528 CURVE SMOOTH",
"198 528 LINE SMOOTH",
"210 528 OFFCURVE",
"227 527 OFFCURVE",
"235 526 CURVE",
"236 513 OFFCURVE",
"238 415 OFFCURVE",
"238 327 CURVE SMOOTH",
"238 235 LINE SMOOTH",
"238 161 OFFCURVE",
"236 97 OFFCURVE",
"234 67 CURVE",
"147 52 LINE",
"150 0 LINE",
"464 0 LINE",
"467 52 LINE",
"380 67 LINE",
"378 97 OFFCURVE",
"376 161 OFFCURVE",
"376 235 CURVE SMOOTH",
"376 327 LINE SMOOTH",
"376 415 OFFCURVE",
"378 513 OFFCURVE",
"379 526 CURVE",
"387 527 OFFCURVE",
"404 528 OFFCURVE",
"416 528 CURVE SMOOTH",
"449 528 LINE SMOOTH",
"467 528 OFFCURVE",
"477 527 OFFCURVE",
"495 525 CURVE",
"535 409 LINE",
"597 414 LINE",
"574 592 LINE"
);
}
);
width = 614;
}
);
note = T;
unicode = 0054;
},
{
color = 9;
glyphname = U;
lastChange = "2018-06-05 14:05:21 +0000";
layers = (
{
anchors = (
{
name = bottom;
position = "{347, 0}";
},
{
name = ogonek;
position = "{412, 0}";
},
{
name = top;
position = "{348, 587}";
},
{
name = topright;
position = "{642, 587}";
}
);
background = {
anchors = (
{
name = bottom;
position = "{347, 0}";
},
{
name = ogonek;
position = "{412, 0}";
},
{
name = top;
position = "{348, 587}";
},
{
name = topright;
position = "{642, 587}";
}
);
paths = (
{
closed = 1;
nodes = (
"43 549 LINE",
"104 534 LINE",
"107 528 OFFCURVE",
"110 496 OFFCURVE",
"110 387 CURVE SMOOTH",
"110 221 LINE SMOOTH",
"110 75 OFFCURVE",
"197 -9 OFFCURVE",
"342 -9 CURVE SMOOTH",
"465 -9 OFFCURVE",
"557 67 OFFCURVE",
"557 235 CURVE SMOOTH",
"557 369 LINE SMOOTH",
"557 490 OFFCURVE",
"560 528 OFFCURVE",
"562 534 CURVE",
"623 549 LINE",
"621 587 LINE",
"422 587 LINE",
"420 549 LINE",
"490 534 LINE",
"493 528 OFFCURVE",
"497 490 OFFCURVE",
"497 369 CURVE SMOOTH",
"497 240 LINE SMOOTH",
"497 108 OFFCURVE",
"439 57 OFFCURVE",
"352 57 CURVE SMOOTH",
"260 57 OFFCURVE",
"198 107 OFFCURVE",
"197 233 CURVE",
"197 387 LINE",
"196 496 OFFCURVE",
"199 525 OFFCURVE",
"202 534 CURVE",
"263 549 LINE",
"261 587 LINE",
"45 587 LINE"
);
}
);
};
layerId = "720C727D-0ED9-429E-914E-55EB9E513E33";
paths = (
{
closed = 1;
nodes = (
"43 549 LINE",
"104 534 LINE",
"107 528 OFFCURVE",
"110 496 OFFCURVE",
"110 387 CURVE SMOOTH",
"110 221 LINE SMOOTH",
"110 75 OFFCURVE",
"197 -9 OFFCURVE",
"342 -9 CURVE SMOOTH",
"465 -9 OFFCURVE",
"557 67 OFFCURVE",
"557 235 CURVE SMOOTH",
"557 369 LINE SMOOTH",
"557 490 OFFCURVE",
"560 528 OFFCURVE",
"562 534 CURVE",
"623 549 LINE",
"621 587 LINE",
"422 587 LINE",
"420 549 LINE",
"490 534 LINE",
"493 528 OFFCURVE",
"497 490 OFFCURVE",
"497 369 CURVE SMOOTH",
"497 240 LINE SMOOTH",
"497 108 OFFCURVE",
"439 57 OFFCURVE",
"352 57 CURVE SMOOTH",
"260 57 OFFCURVE",
"198 107 OFFCURVE",
"197 233 CURVE",
"197 387 LINE",
"196 496 OFFCURVE",
"199 525 OFFCURVE",
"202 534 CURVE",
"263 549 LINE",
"261 587 LINE",
"45 587 LINE"
);
}
);
width = 666;
},
{
anchors = (
{
name = bottom;
position = "{380, 0}";
},
{
name = ogonek;
position = "{436, 0}";
},
{
name = top;
position = "{380, 587}";
},
{
name = topright;
position = "{670, 587}";
}
);
background = {
anchors = (
{
name = bottom;
position = "{380, 0}";
},
{
name = ogonek;
position = "{436, 0}";
},
{
name = top;
position = "{380, 587}";
},
{
name = topright;
position = "{670, 587}";
}
);
paths = (
{
closed = 1;
nodes = (
"31 537 LINE",
"95 520 LINE",
"99 513 OFFCURVE",
"102 448 OFFCURVE",
"102 366 CURVE SMOOTH",
"102 247 LINE SMOOTH",
"102 83 OFFCURVE",
"196 -9 OFFCURVE",
"363 -9 CURVE SMOOTH",
"511 -9 OFFCURVE",
"602 89 OFFCURVE",
"602 248 CURVE SMOOTH",
"602 348 LINE SMOOTH",
"602 436 OFFCURVE",
"605 514 OFFCURVE",
"609 520 CURVE",
"673 537 LINE",
"670 587 LINE",
"445 587 LINE",
"442 537 LINE",
"512 520 LINE",
"516 514 OFFCURVE",
"519 436 OFFCURVE",
"519 348 CURVE SMOOTH",
"519 265 LINE SMOOTH",
"519 145 OFFCURVE",
"474 86 OFFCURVE",
"382 86 CURVE SMOOTH",
"288 86 OFFCURVE",
"240 147 OFFCURVE",
"240 264 CURVE",
"240 366 LINE",
"240 444 OFFCURVE",
"243 498 OFFCURVE",
"246 520 CURVE",
"310 537 LINE",
"307 587 LINE",
"34 587 LINE"
);
}
);
};
layerId = "DEDDD934-E4FE-4A27-B966-8C21F8A9BC34";
paths = (
{
closed = 1;
nodes = (
"31 537 LINE",
"95 520 LINE",
"99 513 OFFCURVE",
"102 448 OFFCURVE",
"102 366 CURVE SMOOTH",
"102 247 LINE SMOOTH",
"102 83 OFFCURVE",
"196 -9 OFFCURVE",
"363 -9 CURVE SMOOTH",
"511 -9 OFFCURVE",
"602 89 OFFCURVE",
"602 248 CURVE SMOOTH",
"602 348 LINE SMOOTH",
"602 436 OFFCURVE",
"605 514 OFFCURVE",
"609 520 CURVE",
"673 537 LINE",
"670 587 LINE",
"445 587 LINE",
"442 537 LINE",
"512 520 LINE",
"516 514 OFFCURVE",
"519 436 OFFCURVE",
"519 348 CURVE SMOOTH",
"519 265 LINE SMOOTH",
"519 145 OFFCURVE",
"474 86 OFFCURVE",
"382 86 CURVE SMOOTH",
"288 86 OFFCURVE",
"240 147 OFFCURVE",
"240 264 CURVE",
"240 366 LINE",
"240 444 OFFCURVE",
"243 498 OFFCURVE",
"246 520 CURVE",
"310 537 LINE",
"307 587 LINE",
"34 587 LINE"
);
}
);
width = 703;
}
);
note = U;
unicode = 0055;
},
{
color = 9;
glyphname = Uogonek;
lastChange = "2018-06-05 14:05:21 +0000";
layers = (
{
anchors = (
{
name = top;
position = "{348, 587}";
},
{
name = topright;
position = "{621, 587}";
}
);
background = {
anchors = (
{
name = top;
position = "{348, 587}";
},
{
name = topright;
position = "{621, 587}";
}
);
paths = (
{
closed = 1;
nodes = (
"422 587 LINE",
"420 549 LINE",
"490 534 LINE",
"494 525 OFFCURVE",
"497 458 OFFCURVE",
"497 369 CURVE SMOOTH",
"497 240 LINE SMOOTH",
"497 119 OFFCURVE",
"448 57 OFFCURVE",
"352 57 CURVE SMOOTH",
"251 57 OFFCURVE",
"198 117 OFFCURVE",
"197 233 CURVE",
"197 387 LINE",
"196 488 OFFCURVE",
"197 524 OFFCURVE",
"202 534 CURVE",
"263 549 LINE",
"261 587 LINE",
"45 587 LINE",
"43 549 LINE",
"104 534 LINE",
"108 526 OFFCURVE",
"110 476 OFFCURVE",
"110 387 CURVE SMOOTH",
"110 221 LINE SMOOTH",
"110 76 OFFCURVE",
"196 -9 OFFCURVE",
"342 -9 CURVE SMOOTH",
"371 -9 LINE",
"400 18 LINE",
"306 -19 OFFCURVE",
"255 -72 OFFCURVE",
"255 -132 CURVE SMOOTH",
"255 -185 OFFCURVE",
"302 -223 OFFCURVE",
"369 -223 CURVE SMOOTH",
"409 -223 OFFCURVE",
"446 -205 OFFCURVE",
"474 -173 CURVE",
"452 -146 LINE",
"428 -170 OFFCURVE",
"406 -181 OFFCURVE",
"383 -181 CURVE SMOOTH",
"348 -181 OFFCURVE",
"325 -158 OFFCURVE",
"325 -122 CURVE SMOOTH",
"325 -71 OFFCURVE",
"369 -19 OFFCURVE",
"436 9 CURVE SMOOTH",
"514 41 OFFCURVE",
"557 122 OFFCURVE",
"557 235 CURVE SMOOTH",
"557 369 LINE SMOOTH",
"557 460 OFFCURVE",
"559 525 OFFCURVE",
"562 534 CURVE",
"623 549 LINE",
"621 587 LINE"
);
}
);
};
layerId = "720C727D-0ED9-429E-914E-55EB9E513E33";
paths = (
{
closed = 1;
nodes = (
"422 587 LINE",
"420 549 LINE",
"490 534 LINE",
"494 525 OFFCURVE",
"497 458 OFFCURVE",
"497 369 CURVE SMOOTH",
"497 240 LINE SMOOTH",
"497 119 OFFCURVE",
"448 57 OFFCURVE",
"352 57 CURVE SMOOTH",
"251 57 OFFCURVE",
"198 117 OFFCURVE",
"197 233 CURVE",
"197 387 LINE",
"196 488 OFFCURVE",
"197 524 OFFCURVE",
"202 534 CURVE",
"263 549 LINE",
"261 587 LINE",
"45 587 LINE",
"43 549 LINE",
"104 534 LINE",
"108 526 OFFCURVE",
"110 476 OFFCURVE",
"110 387 CURVE SMOOTH",
"110 221 LINE SMOOTH",
"110 76 OFFCURVE",
"196 -9 OFFCURVE",
"342 -9 CURVE SMOOTH",
"371 -9 LINE",
"400 18 LINE",
"306 -19 OFFCURVE",
"255 -72 OFFCURVE",
"255 -132 CURVE SMOOTH",
"255 -185 OFFCURVE",
"302 -223 OFFCURVE",
"369 -223 CURVE SMOOTH",
"409 -223 OFFCURVE",
"446 -205 OFFCURVE",
"474 -173 CURVE",
"452 -146 LINE",
"428 -170 OFFCURVE",
"406 -181 OFFCURVE",
"383 -181 CURVE SMOOTH",
"348 -181 OFFCURVE",
"325 -158 OFFCURVE",
"325 -122 CURVE SMOOTH",
"325 -71 OFFCURVE",
"369 -19 OFFCURVE",
"436 9 CURVE SMOOTH",
"514 41 OFFCURVE",
"557 122 OFFCURVE",
"557 235 CURVE SMOOTH",
"557 369 LINE SMOOTH",
"557 460 OFFCURVE",
"559 525 OFFCURVE",
"562 534 CURVE",
"623 549 LINE",
"621 587 LINE"
);
}
);
width = 666;
},
{
anchors = (
{
name = top;
position = "{380, 587}";
},
{
name = topright;
position = "{670, 587}";
}
);
background = {
anchors = (
{
name = top;
position = "{380, 587}";
},
{
name = topright;
position = "{670, 587}";
}
);
paths = (
{
closed = 1;
nodes = (
"445 587 LINE",
"442 537 LINE",
"512 520 LINE",
"516 514 OFFCURVE",
"519 436 OFFCURVE",
"519 348 CURVE SMOOTH",
"519 265 LINE SMOOTH",
"519 145 OFFCURVE",
"474 86 OFFCURVE",
"382 86 CURVE SMOOTH",
"288 86 OFFCURVE",
"240 147 OFFCURVE",
"240 264 CURVE",
"240 366 LINE",
"240 444 OFFCURVE",
"243 498 OFFCURVE",
"246 520 CURVE",
"310 537 LINE",
"307 587 LINE",
"34 587 LINE",
"31 537 LINE",
"95 520 LINE",
"99 513 OFFCURVE",
"102 448 OFFCURVE",
"102 366 CURVE SMOOTH",
"102 247 LINE SMOOTH",
"102 83 OFFCURVE",
"196 -9 OFFCURVE",
"363 -9 CURVE SMOOTH",
"393 -9 LINE",
"421 24 LINE",
"321 -8 OFFCURVE",
"260 -63 OFFCURVE",
"260 -122 CURVE SMOOTH",
"260 -179 OFFCURVE",
"316 -223 OFFCURVE",
"390 -223 CURVE SMOOTH",
"436 -223 OFFCURVE",
"475 -206 OFFCURVE",
"505 -173 CURVE",
"477 -134 LINE",
"453 -157 OFFCURVE",
"431 -168 OFFCURVE",
"409 -168 CURVE SMOOTH",
"378 -168 OFFCURVE",
"357 -146 OFFCURVE",
"357 -113 CURVE SMOOTH",
"357 -64 OFFCURVE",
"396 -21 OFFCURVE",
"466 9 CURVE SMOOTH",
"554 46 OFFCURVE",
"602 131 OFFCURVE",
"602 248 CURVE SMOOTH",
"602 348 LINE SMOOTH",
"602 436 OFFCURVE",
"605 514 OFFCURVE",
"609 520 CURVE",
"673 537 LINE",
"670 587 LINE"
);
}
);
};
layerId = "DEDDD934-E4FE-4A27-B966-8C21F8A9BC34";
paths = (
{
closed = 1;
nodes = (
"445 587 LINE",
"442 537 LINE",
"512 520 LINE",
"516 514 OFFCURVE",
"519 436 OFFCURVE",
"519 348 CURVE SMOOTH",
"519 265 LINE SMOOTH",
"519 145 OFFCURVE",
"474 86 OFFCURVE",
"382 86 CURVE SMOOTH",
"288 86 OFFCURVE",
"240 147 OFFCURVE",
"240 264 CURVE",
"240 366 LINE",
"240 444 OFFCURVE",
"243 498 OFFCURVE",
"246 520 CURVE",
"310 537 LINE",
"307 587 LINE",
"34 587 LINE",
"31 537 LINE",
"95 520 LINE",
"99 513 OFFCURVE",
"102 448 OFFCURVE",
"102 366 CURVE SMOOTH",
"102 247 LINE SMOOTH",
"102 83 OFFCURVE",
"196 -9 OFFCURVE",
"363 -9 CURVE SMOOTH",
"393 -9 LINE",
"421 24 LINE",
"321 -8 OFFCURVE",
"260 -63 OFFCURVE",
"260 -122 CURVE SMOOTH",
"260 -179 OFFCURVE",
"316 -223 OFFCURVE",
"390 -223 CURVE SMOOTH",
"436 -223 OFFCURVE",
"475 -206 OFFCURVE",
"505 -173 CURVE",
"477 -134 LINE",
"453 -157 OFFCURVE",
"431 -168 OFFCURVE",
"409 -168 CURVE SMOOTH",
"378 -168 OFFCURVE",
"357 -146 OFFCURVE",
"357 -113 CURVE SMOOTH",
"357 -64 OFFCURVE",
"396 -21 OFFCURVE",
"466 9 CURVE SMOOTH",
"554 46 OFFCURVE",
"602 131 OFFCURVE",
"602 248 CURVE SMOOTH",
"602 348 LINE SMOOTH",
"602 436 OFFCURVE",
"605 514 OFFCURVE",
"609 520 CURVE",
"673 537 LINE",
"670 587 LINE"
);
}
);
width = 703;
}
);
note = Uogonek;
unicode = 0172;
},
{
color = 9;
glyphname = Uhorn;
lastChange = "2018-06-05 14:05:21 +0000";
layers = (
{
anchors = (
{
name = bottom;
position = "{347, 0}";
},
{
name = ogonek;
position = "{594, 9}";
},
{
name = top;
position = "{348, 587}";
}
);
background = {
anchors = (
{
name = bottom;
position = "{347, 0}";
},
{
name = ogonek;
position = "{594, 9}";
},
{
name = top;
position = "{348, 587}";
}
);
paths = (
{
closed = 1;
nodes = (
"478 -9 OFFCURVE",
"557 81 OFFCURVE",
"557 235 CURVE SMOOTH",
"557 369 LINE SMOOTH",
"557 455 OFFCURVE",
"559 508 OFFCURVE",
"565 555 CURVE",
"553 538 LINE",
"639 543 OFFCURVE",
"699 590 OFFCURVE",
"699 653 CURVE SMOOTH",
"699 700 OFFCURVE",
"665 722 OFFCURVE",
"609 712 CURVE",
"607 661 LINE SMOOTH",
"605 602 OFFCURVE",
"588 587 OFFCURVE",
"523 587 CURVE",
"422 587 LINE",
"420 549 LINE",
"490 534 LINE",
"494 525 OFFCURVE",
"497 458 OFFCURVE",
"497 369 CURVE SMOOTH",
"497 240 LINE SMOOTH",
"497 119 OFFCURVE",
"448 57 OFFCURVE",
"352 57 CURVE SMOOTH",
"251 57 OFFCURVE",
"198 117 OFFCURVE",
"197 233 CURVE",
"197 387 LINE",
"196 469 OFFCURVE",
"198 521 OFFCURVE",
"202 534 CURVE",
"263 549 LINE",
"261 587 LINE",
"45 587 LINE",
"43 549 LINE",
"104 534 LINE",
"108 526 OFFCURVE",
"110 476 OFFCURVE",
"110 387 CURVE SMOOTH",
"110 221 LINE SMOOTH",
"110 76 OFFCURVE",
"196 -9 OFFCURVE",
"342 -9 CURVE SMOOTH"
);
}
);
};
layerId = "720C727D-0ED9-429E-914E-55EB9E513E33";
paths = (
{
closed = 1;
nodes = (
"478 -9 OFFCURVE",
"557 81 OFFCURVE",
"557 235 CURVE SMOOTH",
"557 369 LINE SMOOTH",
"557 455 OFFCURVE",
"559 508 OFFCURVE",
"565 555 CURVE",
"553 538 LINE",
"639 543 OFFCURVE",
"699 590 OFFCURVE",
"699 653 CURVE SMOOTH",
"699 700 OFFCURVE",
"665 722 OFFCURVE",
"609 712 CURVE",
"607 661 LINE SMOOTH",
"605 602 OFFCURVE",
"588 587 OFFCURVE",
"523 587 CURVE",
"422 587 LINE",
"420 549 LINE",
"490 534 LINE",
"494 525 OFFCURVE",
"497 458 OFFCURVE",
"497 369 CURVE SMOOTH",
"497 240 LINE SMOOTH",
"497 119 OFFCURVE",
"448 57 OFFCURVE",
"352 57 CURVE SMOOTH",
"251 57 OFFCURVE",
"198 117 OFFCURVE",
"197 233 CURVE",
"197 387 LINE",
"196 469 OFFCURVE",
"198 521 OFFCURVE",
"202 534 CURVE",
"263 549 LINE",
"261 587 LINE",
"45 587 LINE",
"43 549 LINE",
"104 534 LINE",
"108 526 OFFCURVE",
"110 476 OFFCURVE",
"110 387 CURVE SMOOTH",
"110 221 LINE SMOOTH",
"110 76 OFFCURVE",
"196 -9 OFFCURVE",
"342 -9 CURVE SMOOTH"
);
}
);
width = 666;
},
{
anchors = (
{
name = bottom;
position = "{380, 0}";
},
{
name = ogonek;
position = "{624, 9}";
},
{
name = top;
position = "{380, 587}";
}
);
background = {
anchors = (
{
name = bottom;
position = "{380, 0}";
},
{
name = ogonek;
position = "{624, 9}";
},
{
name = top;
position = "{380, 587}";
}
);
paths = (
{
closed = 1;
nodes = (
"511 -9 OFFCURVE",
"602 89 OFFCURVE",
"602 248 CURVE SMOOTH",
"602 348 LINE SMOOTH",
"602 452 OFFCURVE",
"604 514 OFFCURVE",
"608 544 CURVE",
"593 530 LINE",
"679 538 OFFCURVE",
"735 588 OFFCURVE",
"735 656 CURVE SMOOTH",
"735 709 OFFCURVE",
"697 730 OFFCURVE",
"620 720 CURVE",
"618 660 LINE SMOOTH",
"616 616 OFFCURVE",
"590 587 OFFCURVE",
"552 587 CURVE SMOOTH",
"445 587 LINE",
"442 537 LINE",
"512 520 LINE",
"516 514 OFFCURVE",
"519 436 OFFCURVE",
"519 348 CURVE SMOOTH",
"519 265 LINE SMOOTH",
"519 145 OFFCURVE",
"474 86 OFFCURVE",
"382 86 CURVE SMOOTH",
"288 86 OFFCURVE",
"240 147 OFFCURVE",
"240 264 CURVE",
"240 366 LINE",
"240 444 OFFCURVE",
"243 498 OFFCURVE",
"246 520 CURVE",
"310 537 LINE",
"307 587 LINE",
"34 587 LINE",
"31 537 LINE",
"95 520 LINE",
"99 513 OFFCURVE",
"102 448 OFFCURVE",
"102 366 CURVE SMOOTH",
"102 247 LINE SMOOTH",
"102 83 OFFCURVE",
"196 -9 OFFCURVE",
"363 -9 CURVE SMOOTH"
);
}
);
};
layerId = "DEDDD934-E4FE-4A27-B966-8C21F8A9BC34";
paths = (
{
closed = 1;
nodes = (
"511 -9 OFFCURVE",
"602 89 OFFCURVE",
"602 248 CURVE SMOOTH",
"602 348 LINE SMOOTH",
"602 452 OFFCURVE",
"604 514 OFFCURVE",
"608 544 CURVE",
"593 530 LINE",
"679 538 OFFCURVE",
"735 588 OFFCURVE",
"735 656 CURVE SMOOTH",
"735 709 OFFCURVE",
"697 730 OFFCURVE",
"620 720 CURVE",
"618 660 LINE SMOOTH",
"616 616 OFFCURVE",
"590 587 OFFCURVE",
"552 587 CURVE SMOOTH",
"445 587 LINE",
"442 537 LINE",
"512 520 LINE",
"516 514 OFFCURVE",
"519 436 OFFCURVE",
"519 348 CURVE SMOOTH",
"519 265 LINE SMOOTH",
"519 145 OFFCURVE",
"474 86 OFFCURVE",
"382 86 CURVE SMOOTH",
"288 86 OFFCURVE",
"240 147 OFFCURVE",
"240 264 CURVE",
"240 366 LINE",
"240 444 OFFCURVE",
"243 498 OFFCURVE",
"246 520 CURVE",
"310 537 LINE",
"307 587 LINE",
"34 587 LINE",
"31 537 LINE",
"95 520 LINE",
"99 513 OFFCURVE",
"102 448 OFFCURVE",
"102 366 CURVE SMOOTH",
"102 247 LINE SMOOTH",
"102 83 OFFCURVE",
"196 -9 OFFCURVE",
"363 -9 CURVE SMOOTH"
);
}
);
width = 703;
}
);
note = Uhorn;
unicode = 01AF;
},
{
color = 9;
glyphname = V;
lastChange = "2018-06-05 14:05:21 +0000";
layers = (
{
anchors = (
{
name = bottom;
position = "{288, 0}";
},
{
name = top;
position = "{288, 587}";
}
);
background = {
anchors = (
{
name = bottom;
position = "{288, 0}";
},
{
name = top;
position = "{288, 587}";
}
);
paths = (
{
closed = 1;
nodes = (
"312 -3 LINE",
"534 535 LINE",
"584 549 LINE",
"582 587 LINE",
"397 587 LINE",
"395 549 LINE",
"465 535 LINE",
"303 99 LINE",
"326 99 LINE",
"154 535 LINE",
"215 549 LINE",
"213 587 LINE",
"4 587 LINE",
"2 549 LINE",
"52 535 LINE",
"270 -3 LINE"
);
}
);
};
layerId = "720C727D-0ED9-429E-914E-55EB9E513E33";
paths = (
{
closed = 1;
nodes = (
"312 -3 LINE",
"534 535 LINE",
"584 549 LINE",
"582 587 LINE",
"397 587 LINE",
"395 549 LINE",
"465 535 LINE",
"303 99 LINE",
"326 99 LINE",
"154 535 LINE",
"215 549 LINE",
"213 587 LINE",
"4 587 LINE",
"2 549 LINE",
"52 535 LINE",
"270 -3 LINE"
);
}
);
width = 587;
},
{
anchors = (
{
name = bottom;
position = "{301, 0}";
},
{
name = top;
position = "{301, 587}";
}
);
background = {
anchors = (
{
name = bottom;
position = "{301, 0}";
},
{
name = top;
position = "{301, 587}";
}
);
paths = (
{
closed = 1;
nodes = (
"331 -3 LINE",
"568 520 LINE",
"620 538 LINE",
"617 587 LINE",
"410 587 LINE",
"407 537 LINE",
"477 520 LINE",
"326 134 LINE",
"367 134 LINE",
"202 520 LINE",
"264 537 LINE",
"261 587 LINE",
"-4 587 LINE",
"-7 538 LINE",
"45 520 LINE",
"277 -3 LINE"
);
}
);
};
layerId = "DEDDD934-E4FE-4A27-B966-8C21F8A9BC34";
paths = (
{
closed = 1;
nodes = (
"331 -3 LINE",
"568 520 LINE",
"620 538 LINE",
"617 587 LINE",
"410 587 LINE",
"407 537 LINE",
"477 520 LINE",
"326 134 LINE",
"367 134 LINE",
"202 520 LINE",
"264 537 LINE",
"261 587 LINE",
"-4 587 LINE",
"-7 538 LINE",
"45 520 LINE",
"277 -3 LINE"
);
}
);
width = 613;
}
);
note = V;
unicode = 0056;
},
{
color = 9;
glyphname = W;
lastChange = "2018-06-05 14:05:21 +0000";
layers = (
{
anchors = (
{
name = bottom;
position = "{472, 0}";
},
{
name = top;
position = "{472, 587}";
}
);
background = {
anchors = (
{
name = bottom;
position = "{472, 0}";
},
{
name = top;
position = "{472, 587}";
}
);
paths = (
{
closed = 1;
nodes = (
"457 520 LINE",
"298 99 LINE",
"322 99 LINE",
"159 536 LINE",
"209 549 LINE",
"207 587 LINE",
"9 587 LINE",
"7 549 LINE",
"57 535 LINE",
"266 -3 LINE",
"309 -3 LINE",
"487 439 LINE"
);
},
{
closed = 1;
nodes = (
"670 -3 LINE",
"885 535 LINE",
"935 549 LINE",
"933 587 LINE",
"748 587 LINE",
"746 549 LINE",
"816 535 LINE",
"658 99 LINE",
"682 99 LINE",
"521 536 LINE",
"582 549 LINE",
"580 587 LINE",
"373 587 LINE",
"371 549 LINE",
"421 535 LINE",
"627 -3 LINE"
);
}
);
};
layerId = "720C727D-0ED9-429E-914E-55EB9E513E33";
paths = (
{
closed = 1;
nodes = (
"457 520 LINE",
"298 99 LINE",
"322 99 LINE",
"159 536 LINE",
"209 549 LINE",
"207 587 LINE",
"9 587 LINE",
"7 549 LINE",
"57 535 LINE",
"266 -3 LINE",
"309 -3 LINE",
"487 439 LINE"
);
},
{
closed = 1;
nodes = (
"670 -3 LINE",
"885 535 LINE",
"935 549 LINE",
"933 587 LINE",
"748 587 LINE",
"746 549 LINE",
"816 535 LINE",
"658 99 LINE",
"682 99 LINE",
"521 536 LINE",
"582 549 LINE",
"580 587 LINE",
"373 587 LINE",
"371 549 LINE",
"421 535 LINE",
"627 -3 LINE"
);
}
);
width = 942;
},
{
anchors = (
{
name = bottom;
position = "{495, 0}";
},
{
name = top;
position = "{495, 587}";
}
);
background = {
anchors = (
{
name = bottom;
position = "{495, 0}";
},
{
name = top;
position = "{495, 587}";
}
);
paths = (
{
closed = 1;
nodes = (
"451 479 LINE",
"316 134 LINE",
"366 134 LINE",
"208 520 LINE",
"256 537 LINE",
"254 587 LINE",
"1 587 LINE",
"-2 537 LINE",
"49 520 LINE",
"275 -3 LINE",
"329 -3 LINE",
"496 390 LINE"
);
},
{
closed = 1;
nodes = (
"700 -3 LINE",
"927 520 LINE",
"977 537 LINE",
"974 587 LINE",
"770 587 LINE",
"767 537 LINE",
"835 520 LINE",
"690 134 LINE",
"732 134 LINE",
"573 520 LINE",
"637 537 LINE",
"634 587 LINE",
"370 587 LINE",
"367 537 LINE",
"418 520 LINE",
"646 -3 LINE"
);
}
);
};
layerId = "DEDDD934-E4FE-4A27-B966-8C21F8A9BC34";
paths = (
{
closed = 1;
nodes = (
"451 479 LINE",
"316 134 LINE",
"366 134 LINE",
"208 520 LINE",
"256 537 LINE",
"254 587 LINE",
"1 587 LINE",
"-2 537 LINE",
"49 520 LINE",
"275 -3 LINE",
"329 -3 LINE",
"496 390 LINE"
);
},
{
closed = 1;
nodes = (
"700 -3 LINE",
"927 520 LINE",
"977 537 LINE",
"974 587 LINE",
"770 587 LINE",
"767 537 LINE",
"835 520 LINE",
"690 134 LINE",
"732 134 LINE",
"573 520 LINE",
"637 537 LINE",
"634 587 LINE",
"370 587 LINE",
"367 537 LINE",
"418 520 LINE",
"646 -3 LINE"
);
}
);
width = 978;
}
);
note = W;
unicode = 0057;
},
{
color = 9;
glyphname = X;
lastChange = "2018-06-05 14:05:21 +0000";
layers = (
{
anchors = (
{
name = bottom;
position = "{289, 0}";
},
{
name = top;
position = "{289, 587}";
}
);
background = {
anchors = (
{
name = bottom;
position = "{289, 0}";
},
{
name = top;
position = "{289, 587}";
}
);
paths = (
{
closed = 1;
nodes = (
"580 38 LINE",
"530 53 LINE",
"334 326 LINE",
"306 367 LINE",
"186 535 LINE",
"247 549 LINE",
"245 587 LINE",
"29 587 LINE",
"27 549 LINE",
"73 535 LINE",
"247 294 LINE",
"278 254 LINE",
"418 53 LINE",
"357 38 LINE",
"359 0 LINE",
"578 0 LINE"
);
},
{
closed = 1;
nodes = (
"306 367 LINE",
"247 294 LINE",
"67 53 LINE",
"17 38 LINE",
"19 0 LINE",
"204 0 LINE",
"206 38 LINE",
"136 53 LINE",
"278 254 LINE",
"334 326 LINE",
"493 535 LINE",
"543 549 LINE",
"541 587 LINE",
"356 587 LINE",
"354 549 LINE",
"424 535 LINE"
);
}
);
};
layerId = "720C727D-0ED9-429E-914E-55EB9E513E33";
paths = (
{
closed = 1;
nodes = (
"580 38 LINE",
"530 53 LINE",
"334 326 LINE",
"306 367 LINE",
"186 535 LINE",
"247 549 LINE",
"245 587 LINE",
"29 587 LINE",
"27 549 LINE",
"73 535 LINE",
"247 294 LINE",
"278 254 LINE",
"418 53 LINE",
"357 38 LINE",
"359 0 LINE",
"578 0 LINE"
);
},
{
closed = 1;
nodes = (
"306 367 LINE",
"247 294 LINE",
"67 53 LINE",
"17 38 LINE",
"19 0 LINE",
"204 0 LINE",
"206 38 LINE",
"136 53 LINE",
"278 254 LINE",
"334 326 LINE",
"493 535 LINE",
"543 549 LINE",
"541 587 LINE",
"356 587 LINE",
"354 549 LINE",
"424 535 LINE"
);
}
);
width = 583;
},
{
anchors = (
{
name = bottom;
position = "{300, 0}";
},
{
name = top;
position = "{300, 587}";
}
);
background = {
anchors = (
{
name = bottom;
position = "{300, 0}";
},
{
name = top;
position = "{300, 587}";
}
);
paths = (
{
closed = 1;
nodes = (
"609 50 LINE",
"557 67 LINE",
"369 336 LINE",
"331 392 LINE",
"240 520 LINE",
"290 537 LINE",
"287 587 LINE",
"30 587 LINE",
"27 537 LINE",
"77 520 LINE",
"238 287 LINE",
"280 231 LINE",
"392 67 LINE",
"328 50 LINE",
"331 0 LINE",
"606 0 LINE"
);
},
{
closed = 1;
nodes = (
"331 392 LINE",
"238 287 LINE",
"72 67 LINE",
"22 50 LINE",
"25 0 LINE",
"229 0 LINE",
"232 50 LINE",
"168 67 LINE",
"280 231 LINE",
"369 336 LINE",
"515 520 LINE",
"565 537 LINE",
"562 587 LINE",
"372 587 LINE",
"369 537 LINE",
"419 520 LINE"
);
}
);
};
layerId = "DEDDD934-E4FE-4A27-B966-8C21F8A9BC34";
paths = (
{
closed = 1;
nodes = (
"609 50 LINE",
"557 67 LINE",
"369 336 LINE",
"331 392 LINE",
"240 520 LINE",
"290 537 LINE",
"287 587 LINE",
"30 587 LINE",
"27 537 LINE",
"77 520 LINE",
"238 287 LINE",
"280 231 LINE",
"392 67 LINE",
"328 50 LINE",
"331 0 LINE",
"606 0 LINE"
);
},
{
closed = 1;
nodes = (
"331 392 LINE",
"238 287 LINE",
"72 67 LINE",
"22 50 LINE",
"25 0 LINE",
"229 0 LINE",
"232 50 LINE",
"168 67 LINE",
"280 231 LINE",
"369 336 LINE",
"515 520 LINE",
"565 537 LINE",
"562 587 LINE",
"372 587 LINE",
"369 537 LINE",
"419 520 LINE"
);
}
);
width = 607;
}
);
note = X;
unicode = 0058;
},
{
color = 9;
glyphname = Y;
lastChange = "2018-06-05 14:05:21 +0000";
layers = (
{
anchors = (
{
name = bottom;
position = "{271, 0}";
},
{
name = top;
position = "{271, 587}";
},
{
name = topleft;
position = "{21, 587}";
}
);
background = {
anchors = (
{
name = bottom;
position = "{271, 0}";
},
{
name = top;
position = "{271, 587}";
},
{
name = topleft;
position = "{21, 587}";
}
);
paths = (
{
closed = 1;
nodes = (
"543 549 LINE",
"541 587 LINE",
"357 587 LINE",
"355 549 LINE",
"425 535 LINE",
"284 299 LINE",
"299 299 LINE",
"152 535 LINE",
"213 549 LINE",
"211 587 LINE",
"3 587 LINE",
"1 549 LINE",
"51 535 LINE",
"249 218 LINE",
"229 286 LINE",
"229 191 LINE SMOOTH",
"229 91 OFFCURVE",
"225 59 OFFCURVE",
"223 52 CURVE",
"153 39 LINE",
"155 0 LINE",
"387 0 LINE",
"389 39 LINE",
"319 52 LINE",
"317 59 OFFCURVE",
"313 91 OFFCURVE",
"313 191 CURVE SMOOTH",
"313 286 LINE",
"288 218 LINE",
"493 535 LINE"
);
}
);
};
layerId = "720C727D-0ED9-429E-914E-55EB9E513E33";
paths = (
{
closed = 1;
nodes = (
"543 549 LINE",
"541 587 LINE",
"357 587 LINE",
"355 549 LINE",
"425 535 LINE",
"284 299 LINE",
"299 299 LINE",
"152 535 LINE",
"213 549 LINE",
"211 587 LINE",
"3 587 LINE",
"1 549 LINE",
"51 535 LINE",
"249 218 LINE",
"229 286 LINE",
"229 191 LINE SMOOTH",
"229 91 OFFCURVE",
"225 59 OFFCURVE",
"223 52 CURVE",
"153 39 LINE",
"155 0 LINE",
"387 0 LINE",
"389 39 LINE",
"319 52 LINE",
"317 59 OFFCURVE",
"313 91 OFFCURVE",
"313 191 CURVE SMOOTH",
"313 286 LINE",
"288 218 LINE",
"493 535 LINE"
);
}
);
width = 542;
},
{
anchors = (
{
name = bottom;
position = "{293, 0}";
},
{
name = top;
position = "{293, 587}";
},
{
name = topleft;
position = "{22, 587}";
}
);
background = {
anchors = (
{
name = bottom;
position = "{293, 0}";
},
{
name = top;
position = "{293, 587}";
},
{
name = topleft;
position = "{22, 587}";
}
);
paths = (
{
closed = 1;
nodes = (
"579 537 LINE",
"576 587 LINE",
"377 587 LINE",
"374 537 LINE",
"444 520 LINE",
"319 303 LINE",
"343 303 LINE",
"216 520 LINE",
"280 537 LINE",
"277 587 LINE",
"11 587 LINE",
"8 537 LINE",
"58 520 LINE",
"258 181 LINE",
"225 283 LINE",
"225 183 LINE SMOOTH",
"225 137 OFFCURVE",
"223 75 OFFCURVE",
"220 67 CURVE",
"150 51 LINE",
"153 0 LINE",
"434 0 LINE",
"437 51 LINE",
"367 67 LINE",
"363 75 OFFCURVE",
"361 137 OFFCURVE",
"361 183 CURVE SMOOTH",
"361 283 LINE",
"316 181 LINE",
"529 520 LINE"
);
}
);
};
layerId = "DEDDD934-E4FE-4A27-B966-8C21F8A9BC34";
paths = (
{
closed = 1;
nodes = (
"579 537 LINE",
"576 587 LINE",
"377 587 LINE",
"374 537 LINE",
"444 520 LINE",
"319 303 LINE",
"343 303 LINE",
"216 520 LINE",
"280 537 LINE",
"277 587 LINE",
"11 587 LINE",
"8 537 LINE",
"58 520 LINE",
"258 181 LINE",
"225 283 LINE",
"225 183 LINE SMOOTH",
"225 137 OFFCURVE",
"223 75 OFFCURVE",
"220 67 CURVE",
"150 51 LINE",
"153 0 LINE",
"434 0 LINE",
"437 51 LINE",
"367 67 LINE",
"363 75 OFFCURVE",
"361 137 OFFCURVE",
"361 183 CURVE SMOOTH",
"361 283 LINE",
"316 181 LINE",
"529 520 LINE"
);
}
);
width = 586;
}
);
note = Y;
unicode = 0059;
},
{
color = 9;
glyphname = Z;
lastChange = "2018-06-05 14:05:21 +0000";
layers = (
{
anchors = (
{
name = bottom;
position = "{268, 0}";
},
{
name = top;
position = "{268, 587}";
}
);
background = {
anchors = (
{
name = bottom;
position = "{268, 0}";
},
{
name = top;
position = "{268, 587}";
}
);
paths = (
{
closed = 1;
nodes = (
"510 160 LINE",
"469 165 LINE",
"426 54 LINE",
"415 52 OFFCURVE",
"402 51 OFFCURVE",
"389 51 CURVE SMOOTH",
"154 51 LINE",
"154 17 LINE",
"482 553 LINE",
"482 589 LINE",
"457 588 OFFCURVE",
"431 587 OFFCURVE",
"406 587 CURVE SMOOTH",
"132 587 LINE SMOOTH",
"107 587 OFFCURVE",
"79 587 OFFCURVE",
"49 588 CURVE",
"50 434 LINE",
"93 434 LINE",
"106 535 LINE",
"124 538 OFFCURVE",
"143 539 OFFCURVE",
"172 539 CURVE SMOOTH",
"396 539 LINE",
"396 572 LINE",
"66 34 LINE",
"66 -2 LINE",
"91 -1 OFFCURVE",
"112 0 OFFCURVE",
"137 0 CURVE SMOOTH",
"389 0 LINE SMOOTH",
"420 0 OFFCURVE",
"454 -2 OFFCURVE",
"486 -4 CURVE"
);
}
);
};
layerId = "720C727D-0ED9-429E-914E-55EB9E513E33";
paths = (
{
closed = 1;
nodes = (
"510 160 LINE",
"469 165 LINE",
"426 54 LINE",
"415 52 OFFCURVE",
"402 51 OFFCURVE",
"389 51 CURVE SMOOTH",
"154 51 LINE",
"154 17 LINE",
"482 553 LINE",
"482 589 LINE",
"457 588 OFFCURVE",
"431 587 OFFCURVE",
"406 587 CURVE SMOOTH",
"132 587 LINE SMOOTH",
"107 587 OFFCURVE",
"79 587 OFFCURVE",
"49 588 CURVE",
"50 434 LINE",
"93 434 LINE",
"106 535 LINE",
"124 538 OFFCURVE",
"143 539 OFFCURVE",
"172 539 CURVE SMOOTH",
"396 539 LINE",
"396 572 LINE",
"66 34 LINE",
"66 -2 LINE",
"91 -1 OFFCURVE",
"112 0 OFFCURVE",
"137 0 CURVE SMOOTH",
"389 0 LINE SMOOTH",
"420 0 OFFCURVE",
"454 -2 OFFCURVE",
"486 -4 CURVE"
);
}
);
width = 534;
},
{
anchors = (
{
name = bottom;
position = "{274, 0}";
},
{
name = top;
position = "{274, 587}";
}
);
background = {
anchors = (
{
name = bottom;
position = "{274, 0}";
},
{
name = top;
position = "{274, 587}";
}
);
paths = (
{
closed = 1;
nodes = (
"536 174 LINE",
"475 182 LINE",
"433 68 LINE",
"415 65 OFFCURVE",
"403 64 OFFCURVE",
"387 64 CURVE SMOOTH",
"194 64 LINE",
"194 23 LINE",
"504 536 LINE",
"504 589 LINE",
"478 588 OFFCURVE",
"451 587 OFFCURVE",
"425 587 CURVE SMOOTH",
"139 587 LINE SMOOTH",
"114 587 OFFCURVE",
"72 587 OFFCURVE",
"40 589 CURVE",
"42 420 LINE",
"105 420 LINE",
"124 523 LINE",
"145 526 OFFCURVE",
"166 528 OFFCURVE",
"207 528 CURVE SMOOTH",
"374 528 LINE",
"374 571 LINE",
"58 50 LINE",
"58 -3 LINE",
"84 -1 OFFCURVE",
"111 0 OFFCURVE",
"138 0 CURVE SMOOTH",
"370 0 LINE SMOOTH",
"406 0 OFFCURVE",
"478 -4 OFFCURVE",
"506 -5 CURVE"
);
}
);
};
layerId = "DEDDD934-E4FE-4A27-B966-8C21F8A9BC34";
paths = (
{
closed = 1;
nodes = (
"536 174 LINE",
"475 182 LINE",
"433 68 LINE",
"415 65 OFFCURVE",
"403 64 OFFCURVE",
"387 64 CURVE SMOOTH",
"194 64 LINE",
"194 23 LINE",
"504 536 LINE",
"504 589 LINE",
"478 588 OFFCURVE",
"451 587 OFFCURVE",
"425 587 CURVE SMOOTH",
"139 587 LINE SMOOTH",
"114 587 OFFCURVE",
"72 587 OFFCURVE",
"40 589 CURVE",
"42 420 LINE",
"105 420 LINE",
"124 523 LINE",
"145 526 OFFCURVE",
"166 528 OFFCURVE",
"207 528 CURVE SMOOTH",
"374 528 LINE",
"374 571 LINE",
"58 50 LINE",
"58 -3 LINE",
"84 -1 OFFCURVE",
"111 0 OFFCURVE",
"138 0 CURVE SMOOTH",
"370 0 LINE SMOOTH",
"406 0 OFFCURVE",
"478 -4 OFFCURVE",
"506 -5 CURVE"
);
}
);
width = 551;
}
);
note = Z;
unicode = 005A;
},
{
color = 4;
glyphname = a;
lastChange = "2018-06-12 20:35:22 +0000";
layers = (
{
background = {
paths = (
{
closed = 1;
nodes = (
"174 -8 OFFCURVE",
"275 110 OFFCURVE",
"341 285 CURVE",
"329 285 LINE",
"287 140 OFFCURVE",
"273 69 OFFCURVE",
"273 35 CURVE SMOOTH",
"273 8 OFFCURVE",
"286 -8 OFFCURVE",
"311 -8 CURVE SMOOTH",
"352 -8 OFFCURVE",
"408 33 OFFCURVE",
"458 95 CURVE",
"434 129 LINE",
"407 95 OFFCURVE",
"381 71 OFFCURVE",
"352 55 CURVE",
"352 110 OFFCURVE",
"394 287 OFFCURVE",
"439 430 CURVE",
"395 430 LINE",
"357 396 LINE",
"347 376 LINE",
"292 212 OFFCURVE",
"182 58 OFFCURVE",
"133 58 CURVE SMOOTH",
"120 58 OFFCURVE",
"113 79 OFFCURVE",
"113 113 CURVE SMOOTH",
"113 239 OFFCURVE",
"176 387 OFFCURVE",
"275 387 CURVE SMOOTH",
"304 387 OFFCURVE",
"335 378 OFFCURVE",
"357 354 CURVE",
"378 387 LINE",
"351 419 OFFCURVE",
"327 438 OFFCURVE",
"291 438 CURVE SMOOTH",
"169 438 OFFCURVE",
"26 282 OFFCURVE",
"26 95 CURVE SMOOTH",
"26 34 OFFCURVE",
"53 -8 OFFCURVE",
"100 -8 CURVE SMOOTH"
);
}
);
};
layerId = "720C727D-0ED9-429E-914E-55EB9E513E33";
paths = (
{
closed = 1;
nodes = (
"174 -8 OFFCURVE",
"275 110 OFFCURVE",
"341 285 CURVE",
"329 285 LINE",
"287 140 OFFCURVE",
"273 69 OFFCURVE",
"273 35 CURVE SMOOTH",
"273 8 OFFCURVE",
"286 -8 OFFCURVE",
"311 -8 CURVE SMOOTH",
"352 -8 OFFCURVE",
"408 33 OFFCURVE",
"458 95 CURVE",
"434 129 LINE",
"407 95 OFFCURVE",
"381 71 OFFCURVE",
"352 55 CURVE",
"352 110 OFFCURVE",
"394 287 OFFCURVE",
"439 430 CURVE",
"395 430 LINE",
"357 396 LINE",
"347 376 LINE",
"292 212 OFFCURVE",
"182 58 OFFCURVE",
"133 58 CURVE SMOOTH",
"120 58 OFFCURVE",
"113 79 OFFCURVE",
"113 113 CURVE SMOOTH",
"113 260 OFFCURVE",
"188 388 OFFCURVE",
"273 388 CURVE SMOOTH",
"304 388 OFFCURVE",
"335 379 OFFCURVE",
"357 355 CURVE",
"378 387 LINE",
"351 419 OFFCURVE",
"327 438 OFFCURVE",
"291 438 CURVE SMOOTH",
"169 438 OFFCURVE",
"26 282 OFFCURVE",
"26 95 CURVE SMOOTH",
"26 34 OFFCURVE",
"53 -8 OFFCURVE",
"100 -8 CURVE SMOOTH"
);
}
);
width = 489;
},
{
background = {
paths = (
{
closed = 1;
nodes = (
"205 -8 OFFCURVE",
"299 107 OFFCURVE",
"361 290 CURVE",
"351 290 LINE",
"309 160 OFFCURVE",
"291 76 OFFCURVE",
"291 50 CURVE SMOOTH",
"291 12 OFFCURVE",
"310 -8 OFFCURVE",
"342 -8 CURVE SMOOTH",
"405 -8 OFFCURVE",
"482 44 OFFCURVE",
"541 113 CURVE",
"510 159 LINE",
"479 125 OFFCURVE",
"456 105 OFFCURVE",
"422 86 CURVE",
"422 142 OFFCURVE",
"473 328 OFFCURVE",
"510 440 CURVE",
"420 440 LINE",
"385 409 LINE",
"368 397 LINE",
"327 261 OFFCURVE",
"213 93 OFFCURVE",
"180 93 CURVE SMOOTH",
"167 93 OFFCURVE",
"160 110 OFFCURVE",
"160 139 CURVE SMOOTH",
"160 275 OFFCURVE",
"220 380 OFFCURVE",
"298 380 CURVE SMOOTH",
"326 380 OFFCURVE",
"354 374 OFFCURVE",
"375 352 CURVE",
"413 383 LINE",
"382 425 OFFCURVE",
"354 449 OFFCURVE",
"312 449 CURVE SMOOTH",
"178 449 OFFCURVE",
"18 296 OFFCURVE",
"18 107 CURVE SMOOTH",
"18 40 OFFCURVE",
"57 -8 OFFCURVE",
"115 -8 CURVE SMOOTH"
);
}
);
};
layerId = "DEDDD934-E4FE-4A27-B966-8C21F8A9BC34";
paths = (
{
closed = 1;
nodes = (
"205 -8 OFFCURVE",
"299 107 OFFCURVE",
"361 290 CURVE",
"351 290 LINE",
"309 160 OFFCURVE",
"291 76 OFFCURVE",
"291 50 CURVE SMOOTH",
"291 12 OFFCURVE",
"310 -8 OFFCURVE",
"342 -8 CURVE SMOOTH",
"405 -8 OFFCURVE",
"482 44 OFFCURVE",
"541 113 CURVE",
"510 159 LINE",
"479 125 OFFCURVE",
"456 105 OFFCURVE",
"422 86 CURVE",
"422 142 OFFCURVE",
"473 328 OFFCURVE",
"510 440 CURVE",
"420 440 LINE",
"385 409 LINE",
"368 397 LINE",
"327 261 OFFCURVE",
"213 93 OFFCURVE",
"180 93 CURVE SMOOTH",
"167 93 OFFCURVE",
"160 110 OFFCURVE",
"160 139 CURVE SMOOTH",
"160 275 OFFCURVE",
"220 380 OFFCURVE",
"298 380 CURVE SMOOTH",
"326 380 OFFCURVE",
"354 374 OFFCURVE",
"375 352 CURVE",
"413 383 LINE",
"382 425 OFFCURVE",
"354 449 OFFCURVE",
"312 449 CURVE SMOOTH",
"178 449 OFFCURVE",
"18 296 OFFCURVE",
"18 107 CURVE SMOOTH",
"18 40 OFFCURVE",
"57 -8 OFFCURVE",
"115 -8 CURVE SMOOTH"
);
}
);
width = 550;
}
);
note = a;
unicode = 0061;
},
{
glyphname = aogonek;
lastChange = "2018-06-05 11:52:57 +0000";
layers = (
{
background = {
paths = (
{
closed = 1;
nodes = (
"308 -230 OFFCURVE",
"345 -207.667 OFFCURVE",
"385 -163 CURVE",
"389 -159 OFFCURVE",
"397.667 -134.333 OFFCURVE",
"391 -133 CURVE",
"384.42 -133 OFFCURVE",
"332.268 -171 OFFCURVE",
"308 -171 CURVE SMOOTH",
"287.333 -171 OFFCURVE",
"277 -160.333 OFFCURVE",
"277 -139 CURVE SMOOTH",
"277 -87.391 OFFCURVE",
"363.011 -17.989 OFFCURVE",
"395 14 CURVE",
"427 49.333 OFFCURVE",
"447.667 79 OFFCURVE",
"457 103 CURVE",
"457 109.72 OFFCURVE",
"448.83 125 OFFCURVE",
"447 125 CURVE SMOOTH",
"438.48 125 OFFCURVE",
"394.055 52 OFFCURVE",
"382 52 CURVE SMOOTH",
"367.333 52 OFFCURVE",
"360 64.333 OFFCURVE",
"360 89 CURVE SMOOTH",
"360 97 OFFCURVE",
"360.333 102.667 OFFCURVE",
"361 106 CURVE SMOOTH",
"421 421 LINE",
"411.667 430.333 OFFCURVE",
"387 435 OFFCURVE",
"347 435 CURVE SMOOTH",
"297.667 435 OFFCURVE",
"223.833 388.667 OFFCURVE",
"164.5 326 CURVE SMOOTH",
"105.167 263.333 OFFCURVE",
"57 172.667 OFFCURVE",
"57 98 CURVE SMOOTH",
"57 28.667 OFFCURVE",
"79.667 -7 OFFCURVE",
"141 -7 CURVE SMOOTH",
"198.333 -7 OFFCURVE",
"268.333 78 OFFCURVE",
"295 134 CURVE",
"297 136 LINE",
"298 134 LINE",
"294 108 LINE",
"292 90.667 OFFCURVE",
"291 77 OFFCURVE",
"291 67 CURVE SMOOTH",
"291 29.667 OFFCURVE",
"306.333 2 OFFCURVE",
"333 -2 CURVE",
"275.667 -59.333 OFFCURVE",
"223 -133.333 OFFCURVE",
"223 -180 CURVE SMOOTH",
"223 -208 OFFCURVE",
"244.667 -230 OFFCURVE",
"274 -230 CURVE SMOOTH"
);
},
{
closed = 1;
nodes = (
"136.656 52 OFFCURVE",
"133 88.212 OFFCURVE",
"133 121 CURVE SMOOTH",
"133 229 OFFCURVE",
"252 397 OFFCURVE",
"340 397 CURVE SMOOTH",
"344 397 OFFCURVE",
"346 393 OFFCURVE",
"346 385 CURVE SMOOTH",
"346 383.667 OFFCURVE",
"345.833 381.5 OFFCURVE",
"345.5 378.5 CURVE SMOOTH",
"345.167 375.5 OFFCURVE",
"345 373.667 OFFCURVE",
"345 373 CURVE",
"325 270 LINE SMOOTH",
"306.333 178 OFFCURVE",
"219.667 52 OFFCURVE",
"177 52 CURVE SMOOTH"
);
}
);
};
layerId = "720C727D-0ED9-429E-914E-55EB9E513E33";
paths = (
{
closed = 1;
nodes = (
"308 -230 OFFCURVE",
"345 -207.667 OFFCURVE",
"385 -163 CURVE",
"389 -159 OFFCURVE",
"397.667 -134.333 OFFCURVE",
"391 -133 CURVE",
"384.42 -133 OFFCURVE",
"332.268 -171 OFFCURVE",
"308 -171 CURVE SMOOTH",
"287.333 -171 OFFCURVE",
"277 -160.333 OFFCURVE",
"277 -139 CURVE SMOOTH",
"277 -87.391 OFFCURVE",
"363.011 -17.989 OFFCURVE",
"395 14 CURVE",
"427 49.333 OFFCURVE",
"447.667 79 OFFCURVE",
"457 103 CURVE",
"457 109.72 OFFCURVE",
"448.83 125 OFFCURVE",
"447 125 CURVE SMOOTH",
"438.48 125 OFFCURVE",
"394.055 52 OFFCURVE",
"382 52 CURVE SMOOTH",
"367.333 52 OFFCURVE",
"360 64.333 OFFCURVE",
"360 89 CURVE SMOOTH",
"360 97 OFFCURVE",
"360.333 102.667 OFFCURVE",
"361 106 CURVE SMOOTH",
"421 421 LINE",
"411.667 430.333 OFFCURVE",
"387 435 OFFCURVE",
"347 435 CURVE SMOOTH",
"297.667 435 OFFCURVE",
"223.833 388.667 OFFCURVE",
"164.5 326 CURVE SMOOTH",
"105.167 263.333 OFFCURVE",
"57 172.667 OFFCURVE",
"57 98 CURVE SMOOTH",
"57 28.667 OFFCURVE",
"79.667 -7 OFFCURVE",
"141 -7 CURVE SMOOTH",
"198.333 -7 OFFCURVE",
"268.333 78 OFFCURVE",
"295 134 CURVE",
"297 136 LINE",
"298 134 LINE",
"294 108 LINE",
"292 90.667 OFFCURVE",
"291 77 OFFCURVE",
"291 67 CURVE SMOOTH",
"291 29.667 OFFCURVE",
"306.333 2 OFFCURVE",
"333 -2 CURVE",
"275.667 -59.333 OFFCURVE",
"223 -133.333 OFFCURVE",
"223 -180 CURVE SMOOTH",
"223 -208 OFFCURVE",
"244.667 -230 OFFCURVE",
"274 -230 CURVE SMOOTH"
);
},
{
closed = 1;
nodes = (
"136.656 52 OFFCURVE",
"133 88.212 OFFCURVE",
"133 121 CURVE SMOOTH",
"133 229 OFFCURVE",
"252 397 OFFCURVE",
"340 397 CURVE SMOOTH",
"344 397 OFFCURVE",
"346 393 OFFCURVE",
"346 385 CURVE SMOOTH",
"346 383.667 OFFCURVE",
"345.833 381.5 OFFCURVE",
"345.5 378.5 CURVE SMOOTH",
"345.167 375.5 OFFCURVE",
"345 373.667 OFFCURVE",
"345 373 CURVE",
"325 270 LINE SMOOTH",
"306.333 178 OFFCURVE",
"219.667 52 OFFCURVE",
"177 52 CURVE SMOOTH"
);
}
);
width = 444;
},
{
background = {
paths = (
{
closed = 1;
nodes = (
"262 394 CURVE SMOOTH",
"194 394 OFFCURVE",
"137 270 OFFCURVE",
"137 152 CURVE SMOOTH",
"137 104 OFFCURVE",
"151 81 OFFCURVE",
"173 81 CURVE SMOOTH",
"207 81 OFFCURVE",
"257 182 OFFCURVE",
"277 281 CURVE SMOOTH",
"297 382 LINE",
"290 390 OFFCURVE",
"276 394 OFFCURVE"
);
},
{
closed = 1;
nodes = (
"458 112 CURVE",
"449 95 OFFCURVE",
"419 62 OFFCURVE",
"385 34 CURVE SMOOTH",
"324 -16 OFFCURVE",
"256 -67 OFFCURVE",
"256 -122 CURVE SMOOTH",
"256 -146 OFFCURVE",
"267 -156 OFFCURVE",
"292 -156 CURVE SMOOTH",
"334 -156 OFFCURVE",
"359 -125 OFFCURVE",
"366 -120 CURVE",
"373 -122 OFFCURVE",
"371 -142 OFFCURVE",
"369 -146 CURVE SMOOTH",
"346 -185 OFFCURVE",
"297 -218 OFFCURVE",
"255 -218 CURVE SMOOTH",
"216 -218 OFFCURVE",
"195 -187 OFFCURVE",
"195 -160 CURVE SMOOTH",
"195 -96 OFFCURVE",
"246 -52 OFFCURVE",
"288 -7 CURVE",
"258 -3 OFFCURVE",
"237 18 OFFCURVE",
"237 58 CURVE SMOOTH",
"237 62 OFFCURVE",
"238 70 OFFCURVE",
"239 77 CURVE SMOOTH",
"240 85 OFFCURVE",
"242 92 OFFCURVE",
"243 96 CURVE",
"222 59 OFFCURVE",
"157 -7 OFFCURVE",
"97 -7 CURVE SMOOTH",
"41 -7 OFFCURVE",
"11 47 OFFCURVE",
"11 115 CURVE SMOOTH",
"11 294 OFFCURVE",
"191 449 OFFCURVE",
"318 449 CURVE SMOOTH",
"354 449 OFFCURVE",
"405 438 OFFCURVE",
"425 431 CURVE",
"363 132 LINE SMOOTH",
"362 128 OFFCURVE",
"359 104 OFFCURVE",
"359 99 CURVE SMOOTH",
"359 90 OFFCURVE",
"363 78 OFFCURVE",
"373 78 CURVE SMOOTH",
"395 78 OFFCURVE",
"441 133 OFFCURVE",
"444 139 CURVE",
"451 139 OFFCURVE",
"458 118 OFFCURVE"
);
}
);
};
layerId = "DEDDD934-E4FE-4A27-B966-8C21F8A9BC34";
paths = (
{
closed = 1;
nodes = (
"262 394 CURVE SMOOTH",
"194 394 OFFCURVE",
"137 270 OFFCURVE",
"137 152 CURVE SMOOTH",
"137 104 OFFCURVE",
"151 81 OFFCURVE",
"173 81 CURVE SMOOTH",
"207 81 OFFCURVE",
"257 182 OFFCURVE",
"277 281 CURVE SMOOTH",
"297 382 LINE",
"290 390 OFFCURVE",
"276 394 OFFCURVE"
);
},
{
closed = 1;
nodes = (
"458 112 CURVE",
"449 95 OFFCURVE",
"419 62 OFFCURVE",
"385 34 CURVE SMOOTH",
"324 -16 OFFCURVE",
"256 -67 OFFCURVE",
"256 -122 CURVE SMOOTH",
"256 -146 OFFCURVE",
"267 -156 OFFCURVE",
"292 -156 CURVE SMOOTH",
"334 -156 OFFCURVE",
"359 -125 OFFCURVE",
"366 -120 CURVE",
"373 -122 OFFCURVE",
"371 -142 OFFCURVE",
"369 -146 CURVE SMOOTH",
"346 -185 OFFCURVE",
"297 -218 OFFCURVE",
"255 -218 CURVE SMOOTH",
"216 -218 OFFCURVE",
"195 -187 OFFCURVE",
"195 -160 CURVE SMOOTH",
"195 -96 OFFCURVE",
"246 -52 OFFCURVE",
"288 -7 CURVE",
"258 -3 OFFCURVE",
"237 18 OFFCURVE",
"237 58 CURVE SMOOTH",
"237 62 OFFCURVE",
"238 70 OFFCURVE",
"239 77 CURVE SMOOTH",
"240 85 OFFCURVE",
"242 92 OFFCURVE",
"243 96 CURVE",
"222 59 OFFCURVE",
"157 -7 OFFCURVE",
"97 -7 CURVE SMOOTH",
"41 -7 OFFCURVE",
"11 47 OFFCURVE",
"11 115 CURVE SMOOTH",
"11 294 OFFCURVE",
"191 449 OFFCURVE",
"318 449 CURVE SMOOTH",
"354 449 OFFCURVE",
"405 438 OFFCURVE",
"425 431 CURVE",
"363 132 LINE SMOOTH",
"362 128 OFFCURVE",
"359 104 OFFCURVE",
"359 99 CURVE SMOOTH",
"359 90 OFFCURVE",
"363 78 OFFCURVE",
"373 78 CURVE SMOOTH",
"395 78 OFFCURVE",
"441 133 OFFCURVE",
"444 139 CURVE",
"451 139 OFFCURVE",
"458 118 OFFCURVE"
);
}
);
width = 489;
}
);
note = aogonek;
unicode = 0105;
},
{
color = 4;
glyphname = ae;
lastChange = "2018-06-13 07:51:00 +0000";
layers = (
{
background = {
paths = (
{
closed = 1;
nodes = (
"181 -8 OFFCURVE",
"234 16 OFFCURVE",
"292 85 CURVE",
"269 118 LINE",
"244 77 OFFCURVE",
"198 51 OFFCURVE",
"169 51 CURVE SMOOTH",
"132 51 OFFCURVE",
"109 75 OFFCURVE",
"109 107 CURVE SMOOTH",
"109 139 OFFCURVE",
"128 161 OFFCURVE",
"179 171 CURVE SMOOTH",
"413 217 LINE SMOOTH",
"560 246 OFFCURVE",
"600 301 OFFCURVE",
"600 359 CURVE SMOOTH",
"600 402 OFFCURVE",
"567 438 OFFCURVE",
"501 438 CURVE SMOOTH",
"437 438 OFFCURVE",
"375 403 OFFCURVE",
"335 346 CURVE",
"354 346 LINE",
"350 409 OFFCURVE",
"296 438 OFFCURVE",
"238 438 CURVE",
"176 429 OFFCURVE",
"61 374 OFFCURVE",
"61 322 CURVE SMOOTH",
"61 290 OFFCURVE",
"105 285 OFFCURVE",
"139 294 CURVE",
"150 335 LINE SMOOTH",
"160 374 OFFCURVE",
"170 387 OFFCURVE",
"201 387 CURVE SMOOTH",
"247 387 OFFCURVE",
"293 351 OFFCURVE",
"277 273 CURVE SMOOTH",
"262 203 LINE SMOOTH",
"235 75 OFFCURVE",
"300 -8 OFFCURVE",
"397 -8 CURVE SMOOTH",
"458 -8 OFFCURVE",
"525 30 OFFCURVE",
"572 95 CURVE",
"548 129 LINE",
"508 75 OFFCURVE",
"460 56 OFFCURVE",
"428 56 CURVE SMOOTH",
"377 56 OFFCURVE",
"342 96 OFFCURVE",
"342 166 CURVE SMOOTH",
"342 299 OFFCURVE",
"404 394 OFFCURVE",
"474 394 CURVE SMOOTH",
"499 394 OFFCURVE",
"520 381 OFFCURVE",
"520 348 CURVE SMOOTH",
"520 297 OFFCURVE",
"488 271 OFFCURVE",
"416 257 CURVE SMOOTH",
"166 208 LINE SMOOTH",
"62 188 OFFCURVE",
"16 146 OFFCURVE",
"16 85 CURVE SMOOTH",
"16 32 OFFCURVE",
"68 -8 OFFCURVE",
"130 -8 CURVE SMOOTH"
);
}
);
};
layerId = "720C727D-0ED9-429E-914E-55EB9E513E33";
paths = (
{
closed = 1;
nodes = (
"181 -8 OFFCURVE",
"234 16 OFFCURVE",
"292 85 CURVE",
"269 118 LINE",
"244 77 OFFCURVE",
"198 51 OFFCURVE",
"169 51 CURVE SMOOTH",
"132 51 OFFCURVE",
"109 75 OFFCURVE",
"109 107 CURVE SMOOTH",
"109 139 OFFCURVE",
"128 161 OFFCURVE",
"179 171 CURVE SMOOTH",
"412 217 LINE SMOOTH",
"559 246 OFFCURVE",
"599 301 OFFCURVE",
"599 359 CURVE SMOOTH",
"599 402 OFFCURVE",
"566 438 OFFCURVE",
"500 438 CURVE SMOOTH",
"436 438 OFFCURVE",
"375 403 OFFCURVE",
"335 346 CURVE",
"354 346 LINE",
"350 409 OFFCURVE",
"296 438 OFFCURVE",
"238 438 CURVE",
"176 429 OFFCURVE",
"61 374 OFFCURVE",
"61 322 CURVE SMOOTH",
"61 290 OFFCURVE",
"105 285 OFFCURVE",
"139 294 CURVE",
"150 335 LINE SMOOTH",
"160 374 OFFCURVE",
"170 387 OFFCURVE",
"201 387 CURVE SMOOTH",
"247 387 OFFCURVE",
"293 351 OFFCURVE",
"277 273 CURVE SMOOTH",
"262 203 LINE SMOOTH",
"235 75 OFFCURVE",
"300 -8 OFFCURVE",
"396 -8 CURVE SMOOTH",
"457 -8 OFFCURVE",
"524 30 OFFCURVE",
"571 95 CURVE",
"547 129 LINE",
"507 75 OFFCURVE",
"459 56 OFFCURVE",
"427 56 CURVE SMOOTH",
"376 56 OFFCURVE",
"341 96 OFFCURVE",
"341 166 CURVE SMOOTH",
"341 299 OFFCURVE",
"403 394 OFFCURVE",
"473 394 CURVE SMOOTH",
"498 394 OFFCURVE",
"519 381 OFFCURVE",
"519 348 CURVE SMOOTH",
"519 297 OFFCURVE",
"487 271 OFFCURVE",
"415 257 CURVE SMOOTH",
"166 208 LINE SMOOTH",
"62 188 OFFCURVE",
"16 146 OFFCURVE",
"16 85 CURVE SMOOTH",
"16 32 OFFCURVE",
"68 -8 OFFCURVE",
"130 -8 CURVE SMOOTH"
);
}
);
width = 618;
},
{
background = {
paths = (
{
closed = 1;
nodes = (
"207 -8 OFFCURVE",
"262 17 OFFCURVE",
"328 92 CURVE",
"291 132 LINE",
"268 98 OFFCURVE",
"239 83 OFFCURVE",
"214 83 CURVE SMOOTH",
"184 83 OFFCURVE",
"166 104 OFFCURVE",
"166 130 CURVE SMOOTH",
"166 159 OFFCURVE",
"186 176 OFFCURVE",
"237 184 CURVE SMOOTH",
"474 221 LINE SMOOTH",
"596 240 OFFCURVE",
"666 289 OFFCURVE",
"666 359 CURVE SMOOTH",
"666 411 OFFCURVE",
"619 448 OFFCURVE",
"545 448 CURVE SMOOTH",
"473 448 OFFCURVE",
"406 413 OFFCURVE",
"363 350 CURVE",
"414 350 LINE",
"406 419 OFFCURVE",
"347 448 OFFCURVE",
"272 448 CURVE",
"218 441 OFFCURVE",
"66 377 OFFCURVE",
"66 315 CURVE SMOOTH",
"66 276 OFFCURVE",
"118 267 OFFCURVE",
"170 278 CURVE",
"188 340 LINE SMOOTH",
"196 369 OFFCURVE",
"206 377 OFFCURVE",
"223 377 CURVE SMOOTH",
"264 377 OFFCURVE",
"302 337 OFFCURVE",
"287 268 CURVE SMOOTH",
"275 212 LINE SMOOTH",
"248 88 OFFCURVE",
"306 -8 OFFCURVE",
"436 -8 CURVE SMOOTH",
"498 -8 OFFCURVE",
"580 28 OFFCURVE",
"641 111 CURVE",
"610 157 LINE",
"565 105 OFFCURVE",
"513 88 OFFCURVE",
"479 88 CURVE SMOOTH",
"436 88 OFFCURVE",
"408 117 OFFCURVE",
"408 179 CURVE SMOOTH",
"408 307 OFFCURVE",
"459 392 OFFCURVE",
"503 392 CURVE SMOOTH",
"519 392 OFFCURVE",
"536 381 OFFCURVE",
"536 351 CURVE SMOOTH",
"536 305 OFFCURVE",
"507 278 OFFCURVE",
"452 269 CURVE SMOOTH",
"190 228 LINE SMOOTH",
"76 210 OFFCURVE",
"22 164 OFFCURVE",
"22 100 CURVE SMOOTH",
"22 39 OFFCURVE",
"79 -8 OFFCURVE",
"151 -8 CURVE SMOOTH"
);
}
);
};
layerId = "DEDDD934-E4FE-4A27-B966-8C21F8A9BC34";
paths = (
{
closed = 1;
nodes = (
"207 -8 OFFCURVE",
"262 17 OFFCURVE",
"328 92 CURVE",
"291 132 LINE",
"268 98 OFFCURVE",
"239 83 OFFCURVE",
"214 83 CURVE SMOOTH",
"184 83 OFFCURVE",
"166 104 OFFCURVE",
"166 130 CURVE SMOOTH",
"166 159 OFFCURVE",
"186 176 OFFCURVE",
"237 184 CURVE SMOOTH",
"472 221 LINE SMOOTH",
"594 240 OFFCURVE",
"664 289 OFFCURVE",
"664 359 CURVE SMOOTH",
"664 411 OFFCURVE",
"617 448 OFFCURVE",
"543 448 CURVE SMOOTH",
"471 448 OFFCURVE",
"406 413 OFFCURVE",
"363 350 CURVE",
"414 350 LINE",
"406 419 OFFCURVE",
"347 448 OFFCURVE",
"272 448 CURVE",
"218 441 OFFCURVE",
"66 377 OFFCURVE",
"66 315 CURVE SMOOTH",
"66 276 OFFCURVE",
"118 267 OFFCURVE",
"170 278 CURVE",
"188 340 LINE SMOOTH",
"196 369 OFFCURVE",
"206 377 OFFCURVE",
"223 377 CURVE SMOOTH",
"264 377 OFFCURVE",
"302 337 OFFCURVE",
"287 268 CURVE SMOOTH",
"275 212 LINE SMOOTH",
"248 88 OFFCURVE",
"306 -8 OFFCURVE",
"434 -8 CURVE SMOOTH",
"496 -8 OFFCURVE",
"578 28 OFFCURVE",
"639 111 CURVE",
"608 157 LINE",
"563 105 OFFCURVE",
"511 88 OFFCURVE",
"477 88 CURVE SMOOTH",
"434 88 OFFCURVE",
"406 117 OFFCURVE",
"406 179 CURVE SMOOTH",
"406 307 OFFCURVE",
"457 392 OFFCURVE",
"501 392 CURVE SMOOTH",
"517 392 OFFCURVE",
"534 381 OFFCURVE",
"534 351 CURVE SMOOTH",
"534 305 OFFCURVE",
"505 278 OFFCURVE",
"450 269 CURVE SMOOTH",
"190 228 LINE SMOOTH",
"76 210 OFFCURVE",
"22 164 OFFCURVE",
"22 100 CURVE SMOOTH",
"22 39 OFFCURVE",
"79 -8 OFFCURVE",
"151 -8 CURVE SMOOTH"
);
}
);
width = 691;
}
);
note = ae;
rightMetricsKey = "=e+1";
unicode = 00E6;
},
{
color = 4;
glyphname = b;
lastChange = "2018-06-12 21:14:48 +0000";
layers = (
{
background = {
paths = (
{
closed = 1;
nodes = (
"63 0 LINE",
"101 34 LINE",
"111 54 LINE",
"166 218 OFFCURVE",
"280 372 OFFCURVE",
"327 372 CURVE SMOOTH",
"342 372 OFFCURVE",
"349 351 OFFCURVE",
"349 317 CURVE SMOOTH",
"349 170 OFFCURVE",
"274 42 OFFCURVE",
"187 42 CURVE SMOOTH",
"154 42 OFFCURVE",
"123 51 OFFCURVE",
"101 75 CURVE",
"80 43 LINE",
"107 11 OFFCURVE",
"131 -8 OFFCURVE",
"169 -8 CURVE SMOOTH",
"293 -8 OFFCURVE",
"436 148 OFFCURVE",
"436 335 CURVE SMOOTH",
"436 396 OFFCURVE",
"409 438 OFFCURVE",
"360 438 CURVE SMOOTH",
"288 438 OFFCURVE",
"183 320 OFFCURVE",
"117 145 CURVE",
"129 145 LINE",
"161 256 OFFCURVE",
"176 325 OFFCURVE",
"186 376 CURVE SMOOTH",
"209 489 LINE SMOOTH",
"218 535 OFFCURVE",
"228 574 OFFCURVE",
"234 599 CURVE",
"309 614 LINE",
"315 650 LINE",
"99 650 LINE",
"89 614 LINE",
"148 599 LINE",
"146 583 OFFCURVE",
"140 540 OFFCURVE",
"123 455 CURVE SMOOTH",
"77 221 LINE SMOOTH",
"58 125 OFFCURVE",
"41 68 OFFCURVE",
"19 0 CURVE"
);
}
);
};
layerId = "720C727D-0ED9-429E-914E-55EB9E513E33";
paths = (
{
closed = 1;
nodes = (
"149 211 OFFCURVE",
"295 374 OFFCURVE",
"337 374 CURVE SMOOTH",
"352 374 OFFCURVE",
"362 353 OFFCURVE",
"362 317 CURVE SMOOTH",
"362 162 OFFCURVE",
"284 48 OFFCURVE",
"206 48 CURVE SMOOTH",
"176 48 OFFCURVE",
"149 71 OFFCURVE",
"149 109 CURVE SMOOTH"
);
},
{
closed = 1;
nodes = (
"50 67 OFFCURVE",
"95 -8 OFFCURVE",
"190 -8 CURVE SMOOTH",
"301 -8 OFFCURVE",
"449 146 OFFCURVE",
"449 335 CURVE SMOOTH",
"449 396 OFFCURVE",
"421 438 OFFCURVE",
"374 438 CURVE SMOOTH",
"305 438 OFFCURVE",
"192 338 OFFCURVE",
"124 160 CURVE",
"132 160 LINE",
"165 258 OFFCURVE",
"184 325 OFFCURVE",
"203 404 CURVE SMOOTH",
"237 547 LINE SMOOTH",
"243 572 OFFCURVE",
"255 620 OFFCURVE",
"271 680 CURVE",
"255 694 LINE",
"106 651 LINE",
"99 619 LINE",
"173 609 LINE",
"77 185 LINE SMOOTH"
);
}
);
width = 475;
},
{
background = {
paths = (
{
closed = 1;
nodes = (
"97 0 LINE",
"132 31 LINE",
"149 43 LINE",
"190 179 OFFCURVE",
"307 347 OFFCURVE",
"340 347 CURVE SMOOTH",
"356 347 OFFCURVE",
"363 330 OFFCURVE",
"363 301 CURVE SMOOTH",
"363 165 OFFCURVE",
"303 60 OFFCURVE",
"222 60 CURVE SMOOTH",
"193 60 OFFCURVE",
"163 66 OFFCURVE",
"142 88 CURVE",
"104 57 LINE",
"135 15 OFFCURVE",
"165 -9 OFFCURVE",
"208 -9 CURVE SMOOTH",
"345 -9 OFFCURVE",
"505 144 OFFCURVE",
"505 333 CURVE SMOOTH",
"505 400 OFFCURVE",
"466 448 OFFCURVE",
"405 448 CURVE SMOOTH",
"316 448 OFFCURVE",
"218 333 OFFCURVE",
"156 150 CURVE",
"166 150 LINE",
"201 258 OFFCURVE",
"218 339 OFFCURVE",
"227 375 CURVE SMOOTH",
"256 498 LINE SMOOTH",
"268 549 OFFCURVE",
"274 580 OFFCURVE",
"279 597 CURVE",
"355 614 LINE",
"361 660 LINE",
"98 660 LINE",
"84 614 LINE",
"142 597 LINE",
"141 585 OFFCURVE",
"134 538 OFFCURVE",
"117 458 CURVE SMOOTH",
"66 212 LINE SMOOTH",
"53 148 OFFCURVE",
"24 44 OFFCURVE",
"7 0 CURVE"
);
}
);
};
layerId = "DEDDD934-E4FE-4A27-B966-8C21F8A9BC34";
paths = (
{
closed = 1;
nodes = (
"195 198 OFFCURVE",
"315 349 OFFCURVE",
"350 349 CURVE SMOOTH",
"365 349 OFFCURVE",
"375 332 OFFCURVE",
"375 301 CURVE SMOOTH",
"375 168 OFFCURVE",
"310 72 OFFCURVE",
"245 72 CURVE SMOOTH",
"215 72 OFFCURVE",
"195 92 OFFCURVE",
"195 120 CURVE SMOOTH"
);
},
{
closed = 1;
nodes = (
"39 68 OFFCURVE",
"92 -8 OFFCURVE",
"209 -8 CURVE SMOOTH",
"338 -8 OFFCURVE",
"517 142 OFFCURVE",
"517 333 CURVE SMOOTH",
"517 400 OFFCURVE",
"477 448 OFFCURVE",
"416 448 CURVE SMOOTH",
"328 448 OFFCURVE",
"229 346 OFFCURVE",
"164 171 CURVE",
"172 171 LINE",
"206 270 OFFCURVE",
"227 339 OFFCURVE",
"244 403 CURVE SMOOTH",
"275 522 LINE SMOOTH",
"285 559 OFFCURVE",
"294 597 OFFCURVE",
"320 680 CURVE",
"296 698 LINE",
"95 648 LINE",
"86 604 LINE",
"160 594 LINE",
"68 194 LINE SMOOTH"
);
}
);
width = 535;
}
);
note = b;
unicode = 0062;
},
{
color = 4;
glyphname = c;
lastChange = "2018-06-12 21:14:48 +0000";
layers = (
{
background = {
paths = (
{
closed = 1;
nodes = (
"904 -8 OFFCURVE",
"1011 140 OFFCURVE",
"1011 285 CURVE SMOOTH",
"1011 380 OFFCURVE",
"950 438 OFFCURVE",
"873 438 CURVE SMOOTH",
"742 438 OFFCURVE",
"635 290 OFFCURVE",
"635 145 CURVE SMOOTH",
"635 50 OFFCURVE",
"696 -8 OFFCURVE",
"773 -8 CURVE SMOOTH"
);
},
{
closed = 1;
nodes = (
"753 39 OFFCURVE",
"722 80 OFFCURVE",
"722 156 CURVE SMOOTH",
"722 276 OFFCURVE",
"773 393 OFFCURVE",
"853 393 CURVE SMOOTH",
"894 393 OFFCURVE",
"926 347 OFFCURVE",
"926 274 CURVE SMOOTH",
"926 154 OFFCURVE",
"875 39 OFFCURVE",
"795 39 CURVE SMOOTH"
);
},
{
closed = 1;
nodes = (
"550 392 LINE",
"581 392 OFFCURVE",
"614 374 OFFCURVE",
"655 334 CURVE",
"669 345 OFFCURVE",
"677 361 OFFCURVE",
"677 378 CURVE SMOOTH",
"677 412 OFFCURVE",
"629 438 OFFCURVE",
"568 438 CURVE"
);
},
{
closed = 1;
nodes = (
"229 -8 OFFCURVE",
"296 30 OFFCURVE",
"343 95 CURVE",
"319 129 LINE",
"279 75 OFFCURVE",
"231 56 OFFCURVE",
"199 56 CURVE SMOOTH",
"148 56 OFFCURVE",
"113 96 OFFCURVE",
"113 166 CURVE SMOOTH",
"113 299 OFFCURVE",
"175 394 OFFCURVE",
"245 394 CURVE SMOOTH",
"270 394 OFFCURVE",
"291 381 OFFCURVE",
"291 352 CURVE SMOOTH",
"291 296 OFFCURVE",
"225 249 OFFCURVE",
"100 201 CURVE",
"100 158 LINE",
"286 226 OFFCURVE",
"371 291 OFFCURVE",
"371 362 CURVE SMOOTH",
"371 402 OFFCURVE",
"338 438 OFFCURVE",
"272 438 CURVE SMOOTH",
"134 438 OFFCURVE",
"27 290 OFFCURVE",
"27 145 CURVE SMOOTH",
"27 50 OFFCURVE",
"88 -8 OFFCURVE",
"168 -8 CURVE SMOOTH"
);
}
);
};
layerId = "720C727D-0ED9-429E-914E-55EB9E513E33";
paths = (
{
closed = 1;
nodes = (
"279 390 OFFCURVE",
"317 368 OFFCURVE",
"352 332 CURVE",
"367 344 OFFCURVE",
"375 361 OFFCURVE",
"375 379 CURVE SMOOTH",
"375 417 OFFCURVE",
"330 438 OFFCURVE",
"275 438 CURVE SMOOTH",
"140 438 OFFCURVE",
"35 290 OFFCURVE",
"35 145 CURVE SMOOTH",
"35 50 OFFCURVE",
"96 -8 OFFCURVE",
"171 -8 CURVE SMOOTH",
"229 -8 OFFCURVE",
"296 30 OFFCURVE",
"343 95 CURVE",
"319 129 LINE",
"279 75 OFFCURVE",
"232 57 OFFCURVE",
"205 57 CURVE SMOOTH",
"158 57 OFFCURVE",
"123 96 OFFCURVE",
"123 166 CURVE SMOOTH",
"123 301 OFFCURVE",
"187 390 OFFCURVE",
"248 390 CURVE SMOOTH"
);
}
);
width = 373;
},
{
background = {
paths = (
{
closed = 1;
nodes = (
"250 -8 OFFCURVE",
"332 28 OFFCURVE",
"393 111 CURVE",
"362 157 LINE",
"317 105 OFFCURVE",
"265 88 OFFCURVE",
"231 88 CURVE SMOOTH",
"188 88 OFFCURVE",
"160 117 OFFCURVE",
"160 179 CURVE SMOOTH",
"160 307 OFFCURVE",
"211 392 OFFCURVE",
"255 392 CURVE SMOOTH",
"271 392 OFFCURVE",
"288 381 OFFCURVE",
"288 356 CURVE SMOOTH",
"288 307 OFFCURVE",
"254 261 OFFCURVE",
"146 218 CURVE",
"146 168 LINE",
"370 234 OFFCURVE",
"418 304 OFFCURVE",
"418 359 CURVE SMOOTH",
"418 411 OFFCURVE",
"371 448 OFFCURVE",
"292 448 CURVE SMOOTH",
"147 448 OFFCURVE",
"21 311 OFFCURVE",
"21 151 CURVE SMOOTH",
"21 53 OFFCURVE",
"85 -8 OFFCURVE",
"188 -8 CURVE SMOOTH"
);
}
);
};
layerId = "DEDDD934-E4FE-4A27-B966-8C21F8A9BC34";
paths = (
{
closed = 1;
nodes = (
"289 379 OFFCURVE",
"342 348 OFFCURVE",
"386 299 CURVE",
"402 317 OFFCURVE",
"413 342 OFFCURVE",
"413 367 CURVE SMOOTH",
"413 417 OFFCURVE",
"369 448 OFFCURVE",
"292 448 CURVE SMOOTH",
"144 448 OFFCURVE",
"27 299 OFFCURVE",
"27 151 CURVE SMOOTH",
"27 53 OFFCURVE",
"91 -8 OFFCURVE",
"191 -8 CURVE SMOOTH",
"250 -8 OFFCURVE",
"332 28 OFFCURVE",
"393 111 CURVE",
"362 157 LINE",
"319 109 OFFCURVE",
"271 90 OFFCURVE",
"238 90 CURVE SMOOTH",
"198 90 OFFCURVE",
"171 117 OFFCURVE",
"170 179 CURVE SMOOTH",
"168 285 OFFCURVE",
"210 379 OFFCURVE",
"261 379 CURVE SMOOTH"
);
}
);
width = 411;
}
);
note = c;
unicode = 0063;
},
